<svg width="448" height="400" viewBox="0 0 448 400" fill="none" xmlns="http://www.w3.org/2000/svg">
<g clip-path="url(#clip0_2626:51304)">
<rect width="448" height="400" rx="2" fill="#E5EEF5"/>
<g clip-path="url(#clip1_2626:51304)">
<path d="M409.318 241.489L402.467 272.337L396.905 297.364L392.472 317.323L386.914 342.35L368.751 424.111L143.685 320.001L127.142 312.348L106.201 302.659L89.651 295.005L69.7461 285.797L81.0305 269.361L90.4143 255.695L102.285 238.405L111.667 224.747L217.233 71L329.063 170.258L348.977 187.933L364.856 202.027L384.774 219.702L409.318 241.489Z" fill="#C8DBEA"/>
<path d="M82.174 332.247C67.1242 323.848 57.7551 312.382 54.3269 298.166C51.7815 287.612 52.513 275.735 56.5007 262.866C59.457 253.377 63.8893 244.415 69.6345 236.308C100.113 193.121 102.864 164.98 99.8048 148.977C96.4505 131.431 85.5525 124.143 85.4428 124.072L85.9132 123.348C86.0257 123.421 97.2108 130.877 100.646 148.78C102.626 159.101 101.694 170.869 97.8768 183.758C93.1255 199.799 83.8606 217.647 70.3394 236.807C64.6466 244.839 60.2545 253.72 57.3249 263.121C50.7845 284.229 49.8592 313.224 82.5941 331.493L82.174 332.247Z" fill="#3E4A5B"/>
<path d="M89.4115 332.247C104.461 323.848 113.83 312.382 117.259 298.166C119.804 287.612 119.073 275.735 115.085 262.866C112.129 253.377 107.696 244.415 101.951 236.308C71.4723 193.121 68.7214 164.98 71.7808 148.977C75.135 131.431 86.033 124.143 86.1427 124.072L85.6723 123.348C85.5598 123.421 74.3747 130.877 70.9397 148.78C68.9595 159.101 69.8911 170.869 73.7087 183.758C78.46 199.799 87.725 217.647 101.246 236.807C106.939 244.839 111.331 253.72 114.261 263.121C120.801 284.229 121.726 313.224 88.9914 331.493L89.4115 332.247Z" fill="#3E4A5B"/>
<path d="M417.431 295.965C402.381 287.566 393.012 276.1 389.584 261.884C387.039 251.33 387.77 239.453 391.758 226.583C394.714 217.095 399.147 208.132 404.892 200.026C435.37 156.839 438.121 128.698 435.062 112.695C431.708 95.1484 420.81 87.8612 420.7 87.7897L421.171 87.0654C421.283 87.1386 432.468 94.5952 435.903 112.498C437.883 122.819 436.952 134.587 433.134 147.476C428.383 163.517 419.118 181.365 405.597 200.525C399.904 208.557 395.512 217.437 392.582 226.839C386.042 247.946 385.117 276.942 417.851 295.211L417.431 295.965Z" fill="#3E4A5B"/>
<path d="M424.669 295.965C439.719 287.566 449.088 276.1 452.516 261.884C455.061 251.33 454.33 239.453 450.342 226.583C447.386 217.095 442.954 208.132 437.208 200.026C406.73 156.839 403.979 128.698 407.038 112.695C410.392 95.1484 421.29 87.8612 421.4 87.7897L420.93 87.0654C420.817 87.1386 409.632 94.5952 406.197 112.498C404.217 122.819 405.148 134.587 408.966 147.476C413.717 163.517 422.982 181.365 436.503 200.525C442.196 208.557 446.588 217.437 449.518 226.839C456.058 247.946 456.984 276.942 424.249 295.211L424.669 295.965Z" fill="#3E4A5B"/>
<path d="M195.851 200.556C184.544 181.429 162.172 180.538 162.172 180.538C162.172 180.538 140.373 177.747 126.389 206.877C113.354 234.029 95.365 260.245 123.493 266.601L128.573 250.771L131.72 267.779C135.724 268.068 139.742 268.136 143.754 267.985C173.877 267.012 202.564 268.27 201.64 257.449C200.412 243.065 206.732 218.96 195.851 200.556Z" fill="#3E4A5B"/>
<path d="M149.438 240.586C153.335 249.214 155.792 259.499 157.259 270.923L188.541 268.966C181.349 258.764 178.961 247.054 181.698 233.736L149.438 240.586Z" fill="#EAC7C7"/>
<path opacity="0.2" d="M149.438 240.586C153.335 249.214 155.792 259.499 157.259 270.923L188.541 268.966C181.349 258.764 178.961 247.054 181.698 233.736L149.438 240.586Z" fill="black"/>
<path d="M202.227 379.545L201.974 391.405L201.434 417.032V417.036L201.277 424.458H97.7437L101.951 401.068L101.956 401.051L105.723 380.116L107.405 370.741V370.737L192.452 358.994L202.227 379.545Z" fill="#3E4A5B"/>
<path d="M202.226 379.546L201.972 391.407C171.883 390.634 125.244 383.363 105.722 380.114L107.404 370.739L192.451 358.996L202.226 379.546Z" fill="#3F3D56"/>
<path d="M164.59 248.905C178.087 248.905 189.029 237.952 189.029 224.44C189.029 210.929 178.087 199.976 164.59 199.976C151.093 199.976 140.151 210.929 140.151 224.44C140.151 237.952 151.093 248.905 164.59 248.905Z" fill="#EAC7C7"/>
<path d="M211.513 392.757C211.513 392.757 214.446 419.179 196.85 417.222L193.917 390.8L178.276 375.143L134.286 374.164L102.027 404.5C102.027 404.5 101.049 373.186 104.96 370.25C108.87 367.314 117.668 360.464 117.668 360.464V355.571L91.2739 301.748C91.2739 301.748 106.915 269.455 119.623 268.476L136.241 267.498C136.241 267.498 142.107 264.562 142.107 263.584C142.107 262.605 141.129 254.776 146.017 256.733C146.017 256.733 146.457 246.693 151.608 249.756C151.608 249.756 167.826 262.478 184.288 250.314C184.288 250.314 191.962 248.905 190.984 252.819C190.007 256.733 190.984 259.669 192.939 259.669C194.895 259.669 203.693 262.605 203.693 264.562C203.693 264.983 204.328 269.034 205.325 275.131V275.141C208.952 297.364 217.378 346.764 217.378 346.764C217.378 346.764 226.176 359.485 211.513 392.757Z" fill="#FF636D"/>
<path d="M98.1167 296.855L91.2738 301.748L28.7104 381.993L-4.52637 408.415C-4.52637 408.415 14.0471 405.479 10.1369 421.136L124.511 355.571L98.1167 296.855Z" fill="#FF636D"/>
<path d="M205.325 275.131V275.141C204.025 282.793 161.658 281.198 155.793 281.198C149.927 281.198 145.039 280.22 139.174 276.305C133.309 272.391 136.241 267.498 136.241 267.498C136.241 267.498 141.236 263.69 141.236 262.711C141.236 261.733 140.258 253.904 145.146 255.861C145.146 255.861 145.586 245.821 150.737 248.884C150.737 248.884 167.826 262.478 184.288 250.314C184.288 250.314 191.962 248.905 190.984 252.819C190.007 256.733 190.984 259.669 192.94 259.669C194.895 259.669 203.693 262.605 203.693 264.562C203.693 264.983 204.328 269.034 205.325 275.131Z" fill="#3F3D56"/>
<path d="M200.271 238.63C200.271 238.63 192.451 221.994 184.63 229.822C176.81 237.651 193.428 249.394 193.428 249.394L200.271 238.63Z" fill="#EAC7C7"/>
<path d="M200.271 234.715C200.271 234.715 188.195 249.992 184.458 251.161C184.458 251.161 195.383 294.409 209.069 306.152L216.889 346.274C216.889 346.274 250.126 332.574 242.306 310.066C242.228 309.841 242.15 309.617 242.072 309.395C235.543 290.651 226.531 272.868 215.278 256.523L200.271 234.715Z" fill="#FF636D"/>
<path opacity="0.2" d="M193.818 280.027L217.867 346.275L209.069 306.152L193.818 280.027Z" fill="black"/>
<path d="M190.853 198.712L168.751 187.123L138.229 191.864L131.914 219.784L147.634 219.179L152.025 208.921V219.01L159.278 218.73L163.488 202.4L166.119 219.784L191.905 219.257L190.853 198.712Z" fill="#3E4A5B"/>
<path d="M399.644 349.311L412.183 394.09C412.183 394.09 409.599 433.753 421.658 425.993C433.998 418.052 429.41 384.605 429.41 384.605L422.182 344.433L399.644 349.311Z" fill="#E8C0C0"/>
<path d="M406.345 223.695L416.7 234.062V283.455C416.7 283.455 422.791 292.601 421.573 295.041C420.355 297.48 419.137 297.48 420.355 299.309C421.573 301.138 422.791 302.358 421.573 303.578C420.355 304.797 420.355 307.846 421.573 309.066C422.791 310.285 425.228 312.115 423.4 313.944C421.573 315.773 419.136 314.554 421.573 321.261C424.01 327.969 428.274 329.798 427.055 332.238C425.837 334.677 425.837 340.775 425.837 340.775L399.644 344.433L394.162 275.527L406.345 223.695Z" fill="#FCFCFE"/>
<path d="M427.055 340.164L396.598 341.384L397.816 354.189L424.619 349.311L427.055 340.164Z" fill="#3F3D56"/>
<path d="M343.298 159.973L339.643 196.56L376.801 202.048L379.542 181.01L382.283 159.973H343.298Z" fill="#E8C0C0"/>
<path opacity="0.1" d="M343.298 159.774L339.643 196.362L376.801 201.85L379.542 180.812L382.283 159.774H343.298Z" fill="black"/>
<path d="M262.587 334.066L283.298 378.581C283.298 378.581 286.953 399.314 292.435 399.923C297.917 400.533 303.399 378.581 303.399 378.581L296.09 366.995L287.562 334.066H262.587Z" fill="#E8C0C0"/>
<path d="M404.359 424.889H287.27C288.197 410.199 288.781 401.142 288.781 401.142L290.336 398.692L297.876 386.831L303.26 378.363L305.137 375.407L305.834 374.313L313.209 372.965L389.288 359.068C390.546 364.709 392.326 370.219 394.606 375.529C395.124 376.711 395.682 377.892 396.279 379.061C398.191 382.798 400.526 386.339 403.3 388.946C403.932 389.539 404.389 391.122 404.685 393.555C405.417 399.516 405.208 410.6 404.359 424.889Z" fill="#3E4A5B"/>
<path d="M363.705 171.863C379.853 171.863 392.943 158.758 392.943 142.593C392.943 126.428 379.853 113.323 363.705 113.323C347.556 113.323 334.466 126.428 334.466 142.593C334.466 158.758 347.556 171.863 363.705 171.863Z" fill="#E8C0C0"/>
<path d="M298.527 202.352L294.263 199.913C294.263 199.913 275.379 212.719 269.288 241.379C263.196 270.039 258.932 277.356 258.932 277.356C258.932 277.356 252.841 278.576 257.105 282.844C261.369 287.113 261.369 286.503 257.714 288.942C254.059 291.381 251.623 286.503 254.059 291.381C256.496 296.26 259.541 295.04 257.105 298.089C254.668 301.138 250.404 301.138 252.841 303.577C255.277 306.016 250.404 311.504 253.45 313.943C256.496 316.383 257.714 316.992 257.714 321.261C257.695 323.752 258.108 326.228 258.932 328.578H290.608C290.608 328.578 284.516 316.992 286.344 314.553C288.171 312.114 288.78 309.675 287.562 308.455C286.344 307.236 282.689 309.675 286.344 306.626C289.999 303.577 291.217 305.406 289.999 301.748C288.78 298.089 286.344 299.918 288.78 298.089C291.217 296.26 293.044 296.869 291.826 295.04C290.608 293.211 288.171 293.211 290.608 291.991C293.044 290.771 294.872 291.991 294.263 288.942C293.653 285.893 293.044 287.113 294.263 285.893C295.481 284.674 308.273 243.208 308.273 241.988C308.273 240.769 298.527 202.352 298.527 202.352Z" fill="#FCFCFE"/>
<path d="M292.435 326.14L254.059 328.579L263.805 337.725L290.608 338.335L292.435 326.14Z" fill="#3F3D56"/>
<path d="M303.399 371.873L295.48 386.508C295.48 386.508 319.237 389.557 327.765 392.606C336.293 395.655 358.222 399.923 358.222 399.923L363.704 378.581L303.399 371.873Z" fill="#3F3D56"/>
<path d="M372.842 378.581L379.543 398.704L406.345 393.216L403.299 374.312L372.842 378.581Z" fill="#3F3D56"/>
<path d="M383.806 181.62C383.806 181.62 381.979 180.401 377.715 182.84C373.451 185.279 359.44 186.498 352.74 179.181C346.039 171.864 341.166 165.766 339.339 166.985C337.511 168.205 336.293 182.23 336.293 182.23L330.202 187.108L294.262 199.914L297.308 282.235L302.79 301.139C302.79 301.139 298.526 315.774 304.008 324.311C309.491 332.848 300.963 335.897 300.963 335.897C300.963 335.897 299.135 338.336 300.354 344.434C301.572 350.531 299.135 373.094 299.135 373.094C299.135 373.094 350.912 396.266 405.126 376.143L399.035 352.971L395.989 301.139C395.989 301.139 399.035 292.602 398.426 288.943C397.816 285.284 416.7 234.062 416.7 234.062C416.7 234.062 413.654 208.451 397.816 202.963C381.979 197.475 379.542 191.987 379.542 191.987C379.542 191.987 386.852 184.059 383.806 181.62Z" fill="#FCFCFE"/>
<path d="M334.263 146.343C334.263 146.343 331.226 141.784 332.394 136.874C333.092 134.086 333.368 131.209 333.212 128.34C333.212 128.34 335.664 120.39 338.117 115.948C340.569 111.505 339.401 109.635 347.109 108.232C354.816 106.829 351.663 96.7754 371.983 107.648C372.669 108.606 373.622 109.339 374.724 109.755C375.825 110.171 377.025 110.252 378.172 109.986C382.376 109.167 383.895 115.013 383.895 115.013C383.895 115.013 386.697 113.376 387.748 115.714C388.799 118.052 396.293 114.311 396.293 130.093C396.293 145.875 387.765 159.972 387.765 159.972C387.765 159.972 388.391 133.425 374.494 130.736C360.597 128.047 345.649 120.215 342.029 130.269C338.409 140.322 334.263 146.343 334.263 146.343Z" fill="#3E4A5B"/>
<path d="M388.07 152.654C389.584 152.654 390.811 151.016 390.811 148.996C390.811 146.975 389.584 145.337 388.07 145.337C386.556 145.337 385.329 146.975 385.329 148.996C385.329 151.016 386.556 152.654 388.07 152.654Z" fill="#E8C0C0"/>
</g>
</g>
<defs>
<clipPath id="clip0_2626:51304">
<rect width="448" height="400" rx="2" fill="white"/>
</clipPath>
<clipPath id="clip1_2626:51304">
<rect width="460" height="356" fill="white" transform="translate(-6 71)"/>
</clipPath>
</defs>
</svg>
