<svg width="586" height="100" viewBox="0 0 586 100" fill="none" xmlns="http://www.w3.org/2000/svg">
<path d="M44.2184 26.8595C43.9163 26.8543 36.0622 26.797 30.7393 28.047L28.583 28.5522V72.0886L31.958 71.3699C36.2341 70.4636 39.3382 71.2084 42.9372 72.0782C44.4111 72.4324 45.9372 72.8022 47.6195 73.0782C48.3278 73.1928 49.0257 73.2501 49.708 73.2501C51.5309 73.2501 53.2341 72.8334 54.7184 72.0209C56.6403 70.9636 58.1039 69.2657 58.8539 67.2397C59.583 65.2605 59.583 63.073 58.8643 61.0782C58.0986 58.9636 56.5778 57.172 54.4684 55.9011C53.3955 55.2553 51.9684 54.7605 50.458 54.2397C49.0205 53.7449 47.5361 53.2293 46.333 52.5938C46.307 52.5834 46.2861 52.5678 46.2601 52.5574C44.5986 51.6616 43.833 49.6876 44.4945 47.922C44.4997 47.9116 44.5049 47.9011 44.5049 47.8907C44.9372 46.7553 46.2497 45.3178 46.8434 44.7657L42.8382 40.8595C41.8122 41.8178 40.0934 43.7605 39.2809 45.9063C38.3799 48.2813 38.4007 50.8126 39.3434 53.2293L39.3851 53.3334C40.9372 56.8647 45.2028 58.3386 48.6299 59.5261C49.8018 59.9324 51.0153 60.3491 51.583 60.6928C52.583 61.297 53.2809 62.0886 53.6091 62.9845C53.8851 63.7397 53.8851 64.5678 53.6091 65.3126C52.8226 67.4584 50.4684 67.8803 48.5309 67.5626C47.0518 67.3178 45.6299 66.9793 44.2549 66.6459C41.1924 65.9063 38.0518 65.1511 34.1768 65.422V33.0782C34.1768 33.0782 36.3018 32.5991 39.6663 32.6459C39.6663 32.6459 40.0622 29.5782 44.2184 26.8595Z" fill="white"/>
<path d="M55.7861 73.25C56.0882 73.2552 63.9424 73.3125 69.2653 72.0625L71.4216 71.5573V28.0208L68.0466 28.7396C63.7705 29.6458 60.6663 28.901 57.0674 28.0313C55.5934 27.6771 54.0674 27.3073 52.3851 27.0312C51.6768 26.9167 50.9789 26.8594 50.2966 26.8594C48.4736 26.8594 46.7705 27.276 45.2861 28.0885C43.3643 29.1458 41.9007 30.8437 41.1507 32.8698C40.4216 34.849 40.4216 37.0365 41.1403 39.0313C41.9059 41.1458 43.4268 42.9375 45.5361 44.2083C46.6091 44.8542 48.0361 45.349 49.5466 45.8698C50.9841 46.3646 52.4684 46.8802 53.6716 47.5156C53.6976 47.526 53.7184 47.5417 53.7445 47.5521C55.4059 48.4479 56.1716 50.4219 55.5101 52.1875C55.5049 52.1979 55.4997 52.2083 55.4997 52.2188C55.0674 53.3542 53.7549 54.7917 53.1611 55.3438L57.1663 59.25C58.1924 58.2917 59.9111 56.349 60.7236 54.2031C61.6247 51.8281 61.6038 49.2969 60.6611 46.8802L60.6195 46.776C59.0674 43.2448 54.8018 41.7708 51.3747 40.5833C50.2028 40.1771 48.9893 39.7604 48.4216 39.4167C47.4216 38.8125 46.7236 38.0208 46.3955 37.125C46.1195 36.3698 46.1195 35.5417 46.3955 34.7969C47.182 32.651 49.5361 32.2292 51.4736 32.5469C52.9528 32.7917 54.3747 33.1302 55.7497 33.4635C58.8122 34.2031 61.9528 34.9583 65.8278 34.6875V67.0313C65.8278 67.0313 63.7028 67.5104 60.3382 67.4636C60.3382 67.4636 59.9424 70.5261 55.7861 73.25Z" fill="white"/>
<path d="M11.8594 20.4584L12.25 19.9376C12.5885 19.4845 12.8802 19.2136 13.125 19.1303C13.3646 19.047 13.6771 19.1459 14.0573 19.4324L18.8385 23.0314C18.9948 23.1459 19.1146 23.2605 19.2031 23.3699C19.2917 23.4793 19.349 23.5886 19.375 23.698C19.401 23.8074 19.3958 23.9272 19.3542 24.0522C19.3125 24.1824 19.2552 24.3074 19.1823 24.4324C19.1042 24.5574 19 24.7136 18.8594 24.9011L18.4688 25.422L19.4167 26.1355L18.6198 27.1928L17.6719 26.4793L17.2813 27.0001C16.9375 27.4532 16.6458 27.7189 16.401 27.8022C16.1563 27.8855 15.849 27.7866 15.474 27.5053L10.6823 23.9064C10.3021 23.6199 10.1198 23.3491 10.1354 23.0939C10.151 22.8386 10.3281 22.4845 10.6667 22.0314L11.0573 21.5105L10.1094 20.797L10.9062 19.7397L11.8594 20.4584ZM11.8125 22.0782L11.5 22.4897C11.3698 22.6616 11.401 22.8126 11.5885 22.9532L16.125 26.3699C16.3125 26.5105 16.4688 26.4949 16.5938 26.323L16.9063 25.9116L11.8125 22.0782ZM12.6094 21.0209L17.7031 24.8595L18.0156 24.448C18.1458 24.2761 18.1146 24.1251 17.9271 23.9845L13.3906 20.5678C13.2031 20.4272 13.0469 20.4428 12.9219 20.6147L12.6094 21.0209Z" fill="white"/>
<path d="M17.0419 17.245L17.2034 17.0835C17.9638 16.3231 18.6565 16.2606 19.2867 16.8856L21.7503 19.3439L20.193 20.9012L21.4065 22.1148C21.5732 22.2814 21.7242 22.2919 21.87 22.146L22.1044 21.9117C22.245 21.7658 22.2346 21.6148 22.0732 21.4481L21.4482 20.8283L22.3388 19.9377L22.8857 20.4846C23.5159 21.1148 23.4534 21.8075 22.693 22.5679L22.5315 22.7294C21.7659 23.495 21.068 23.5679 20.4378 22.9377L16.8336 19.3439C16.2086 18.7137 16.2763 18.0158 17.0419 17.245ZM17.8596 17.6773L17.6253 17.9117C17.4846 18.0575 17.495 18.2085 17.6565 18.3752L19.5836 20.2971L20.2503 19.6304L18.3232 17.7085C18.1565 17.5419 18.0003 17.5314 17.8596 17.6773Z" fill="white"/>
<path d="M26.8076 17.7658L27.1774 17.4741L28.8024 19.5418L27.8128 20.3179L26.7347 18.9429L25.2607 20.1043L26.3389 21.4793L25.3493 22.2554L23.7243 20.1877L24.0212 19.9533C24.1253 19.8595 24.1149 19.7189 23.9847 19.5366L20.2607 14.3752L22.6618 12.4897L26.8076 17.7658ZM21.7712 14.3075L24.6149 18.271C24.9639 18.7658 25.1357 19.0418 25.1201 19.0887L25.8128 18.547L22.2139 13.9585L21.7712 14.3075Z" fill="white"/>
<path d="M25.8284 10.3284L26.0211 10.2086C26.9378 9.6513 27.6305 9.75547 28.0888 10.5211L29.8909 13.495L28.0107 14.6357L28.9013 16.1044C29.0211 16.3023 29.167 16.3492 29.3441 16.245L29.6305 16.0732C29.8024 15.969 29.8284 15.818 29.7086 15.6148L29.2503 14.8596L30.3284 14.2086L30.7295 14.87C31.193 15.6305 30.9638 16.2919 30.042 16.8492L29.8493 16.969C28.9222 17.5315 28.2295 17.4273 27.7659 16.6669L25.1305 12.3128C24.667 11.5471 24.9013 10.8857 25.8284 10.3284ZM26.5159 10.9378L26.2295 11.1096C26.0576 11.2138 26.0316 11.3648 26.1513 11.568L27.5576 13.8961L28.3649 13.4065L26.9586 11.0784C26.8388 10.8805 26.693 10.8336 26.5159 10.9378Z" fill="white"/>
<path d="M30.7865 7.69298L30.9948 7.59923C31.75 7.25027 32.3125 7.48464 32.6875 8.29194L34.8125 12.9117C35.1875 13.719 34.9948 14.2971 34.2396 14.6461L34.0313 14.7399C33.7448 14.8701 33.4896 14.8961 33.2604 14.8076L34.3698 17.2242L33.224 17.7503L29.0156 8.60444L29.7344 8.27631L30.1719 8.57839C30.1667 8.17735 30.3698 7.88569 30.7865 7.69298ZM31.0573 8.53673L30.7656 8.67214C30.5833 8.75548 30.5365 8.8961 30.625 9.08881L32.8646 13.9586C32.9531 14.1513 33.0885 14.2086 33.276 14.1201L33.5677 13.9846C33.75 13.9013 33.7969 13.7503 33.6979 13.5419L31.4792 8.72423C31.3802 8.51589 31.2396 8.45339 31.0573 8.53673Z" fill="white"/>
<path d="M35.2863 5.94791L35.5051 5.87499C36.5259 5.54166 37.1717 5.79687 37.453 6.64062L39.4321 12.6562L38.6821 12.901L38.2811 12.5521C38.2394 12.9479 38.0051 13.2187 37.5728 13.3594L37.3436 13.4375C36.5623 13.6927 36.0363 13.401 35.7551 12.5521L35.0728 10.4896C34.7915 9.64582 35.0415 9.09374 35.8228 8.83332L36.0519 8.7552C36.3488 8.65624 36.6092 8.66145 36.8228 8.77082L36.2134 6.92187C36.1405 6.70312 36.0103 6.61978 35.8176 6.68749L35.4998 6.79166C35.3071 6.85416 35.2498 6.99999 35.3228 7.21874L35.5884 8.02603L34.3905 8.42186L34.1561 7.71353C33.88 6.8802 34.255 6.28645 35.2863 5.94791ZM36.729 9.45311L36.4113 9.55728C36.2186 9.61978 36.1613 9.76561 36.2342 9.98436L36.9842 12.2656C37.0571 12.4844 37.1873 12.5677 37.3801 12.5L37.6978 12.3958C37.8905 12.3333 37.953 12.1979 37.8853 12L37.1196 9.67707C37.0519 9.46353 36.9217 9.39061 36.729 9.45311Z" fill="white"/>
<path d="M43.932 11.6616L42.682 11.9168L41.3278 5.34391L40.7913 5.45329L41.7445 11.3647C41.7861 11.6147 41.7497 11.8283 41.6351 12.0002C41.5205 12.172 41.3486 12.2814 41.1195 12.3283L40.2393 12.5106L40.0622 11.646L40.2705 11.6043C40.4268 11.5731 40.4893 11.4429 40.4528 11.2085L39.4111 4.8387L42.4007 4.22412L43.932 11.6616Z" fill="white"/>
<path d="M45.833 6.66675L46.9372 6.573C47.6611 6.5105 48.057 6.85425 48.1247 7.61466L48.3382 10.0834C48.3799 10.547 48.2966 10.8647 48.0934 11.0261C47.8903 11.1928 47.5101 11.297 46.9528 11.3438L44.9841 11.5157L44.333 3.948L45.5882 3.83862L45.833 6.66675ZM45.9111 7.54696L46.1716 10.5261L46.7914 10.474C46.9945 10.4584 47.083 10.3334 47.0622 10.099L46.8643 7.81258C46.8434 7.57821 46.7341 7.47404 46.5309 7.48966L45.9111 7.54696Z" fill="white"/>
<path d="M52.8385 11.2867L51.5625 11.2502L51.6615 7.65129L50.7344 7.62524L50.6354 11.2242L49.375 11.1877L49.5833 3.59399L50.8438 3.63045L50.7552 6.72941L51.6823 6.75545L51.7708 3.65649L53.0469 3.69295L52.8385 11.2867Z" fill="white"/>
<path d="M55.875 6.83854L56.9688 7.02083C57.6875 7.14062 57.9844 7.57812 57.8594 8.32292L57.4479 10.7656C57.3698 11.224 57.2135 11.5104 56.974 11.6198C56.7344 11.7292 56.3385 11.7344 55.7917 11.6458L53.8438 11.3177L55.1042 3.82812L56.349 4.03646L55.875 6.83854ZM55.7292 7.70833L55.2344 10.6615L55.849 10.7656C56.0469 10.7969 56.1667 10.7031 56.2083 10.474L56.5885 8.21354C56.625 7.98437 56.5469 7.85417 56.349 7.81771L55.7292 7.70833ZM59.1875 12.2187L57.9271 12.0052L59.1875 4.51562L60.4479 4.72917L59.1875 12.2187Z" fill="white"/>
<path d="M63.3125 13.5314L62.0938 13.146L62.7135 11.1929L63.5938 8.55745L63.5365 8.53662L61.3021 12.896L60.0156 12.4897L62.3021 5.25016L63.5052 5.63037L62.8958 7.55745L62.0104 10.2085L62.0677 10.2293L64.2969 5.88558L65.599 6.29704L63.3125 13.5314ZM65.9792 4.021L65.7136 4.85954C65.5677 5.32308 65.0677 5.42204 64.2188 5.1512L64 5.0835C63.1511 4.81266 62.7969 4.44808 62.9427 3.98454L63.2083 3.146L64.2083 3.4637L64.0417 3.98454C63.9948 4.13037 63.9844 4.24495 64.0052 4.3335C64.0261 4.42204 64.1042 4.48454 64.2396 4.5262L64.3542 4.56266C64.4792 4.60433 64.5781 4.59391 64.6458 4.54183C64.7135 4.48975 64.7761 4.38558 64.8229 4.22933L64.9896 3.7085L65.9792 4.021Z" fill="white"/>
<path d="M71.4893 16.6252L71.9059 16.87L70.5726 19.1356L69.484 18.495L70.3695 16.9897L68.0518 15.6252L71.9059 9.0835L72.9945 9.72412L69.5882 15.5106L70.4007 15.9897L73.807 10.2033L74.8955 10.8439L71.4893 16.6252Z" fill="white"/>
<path d="M78.0681 12.9793L78.2504 13.1148C79.1045 13.7606 79.266 14.4429 78.7243 15.1512L76.6254 17.922L74.8702 16.5939L73.8337 17.9637C73.6931 18.1512 73.7035 18.3023 73.865 18.4273L74.1306 18.6304C74.292 18.7502 74.4431 18.7189 74.5837 18.5366L75.115 17.8335L76.1202 18.5939L75.6514 19.2137C75.115 19.922 74.417 19.9533 73.5629 19.3075L73.3806 19.172C72.516 18.5158 72.3545 17.8335 72.891 17.1252L75.9639 13.0731C76.5004 12.3543 77.2035 12.3231 78.0681 12.9793ZM77.7504 13.8439L77.4847 13.6408C77.3233 13.5158 77.1722 13.5523 77.0316 13.7345L75.391 15.9012L76.141 16.4689L77.7816 14.3023C77.9222 14.12 77.9118 13.9689 77.7504 13.8439Z" fill="white"/>
<path d="M78.1038 23.193L77.182 22.3127L79.6663 19.7086L78.9945 19.068L76.5101 21.6721L75.5986 20.8023L80.8486 15.3127L81.7601 16.1825L79.6195 18.4221L80.2913 19.0627L82.432 16.8232L83.3538 17.7034L78.1038 23.193Z" fill="white"/>
<path d="M85.942 22.0209L85.2962 21.2553L80.1504 25.5678L79.3379 24.6042L84.4837 20.2917L83.8535 19.5313L84.5306 18.9636L86.6191 21.4532L85.942 22.0209Z" fill="white"/>
<path d="M88.8382 24.4429L88.9632 24.6304C89.4215 25.3231 89.2861 25.9116 88.5413 26.4064L84.3122 29.2293C83.5726 29.7241 82.9684 29.6252 82.5101 28.9377L82.3851 28.7502C82.2132 28.4897 82.1455 28.2397 82.1924 28.0002L79.984 29.4741L79.2861 28.4272L87.6611 22.8335L88.0986 23.4897L87.8694 23.9689C88.2653 23.9064 88.5882 24.0627 88.8382 24.4429ZM88.0465 24.8439L87.8694 24.5783C87.7549 24.4116 87.6142 24.3856 87.4372 24.5002L82.9788 27.4793C82.8017 27.5991 82.7705 27.7397 82.8799 27.9116L83.057 28.1772C83.1715 28.3439 83.3226 28.3647 83.5153 28.2345L87.9215 25.2918C88.1194 25.1616 88.1611 25.0106 88.0465 24.8439Z" fill="white"/>
<path d="M94.8849 37.9168L94.9422 38.1355C95.2182 39.172 94.9266 39.8074 94.0672 40.0366L89.1505 41.3543C88.2911 41.5834 87.7182 41.1824 87.4422 40.1459L87.3849 39.9272C87.1036 38.8803 87.3953 38.2397 88.2547 38.0105L93.1714 36.6928C94.0359 36.4637 94.6089 36.8699 94.8849 37.9168ZM94.1089 38.4116L94.0203 38.0886C93.9682 37.8907 93.8276 37.823 93.6036 37.8855L88.4838 39.2553C88.2599 39.3178 88.1713 39.4428 88.2234 39.6407L88.312 39.9636C88.364 40.1616 88.5047 40.2293 88.7286 40.1668L93.8484 38.797C94.0724 38.7345 94.1609 38.6043 94.1089 38.4116Z" fill="white"/>
<path d="M99.1769 44.474L98.2915 44.6094C97.4112 44.7396 96.9113 44.4011 96.7863 43.5938L96.6873 42.9323C96.656 42.7344 96.5206 42.6511 96.281 42.6875L95.6665 42.7813C95.8644 42.9375 95.9842 43.1667 96.031 43.4792L96.0623 43.7031C96.1821 44.5156 95.8019 44.9844 94.9217 45.1198L89.8904 45.875C89.0102 46.0052 88.4894 45.5417 88.3279 44.4792L88.2914 44.2552C88.13 43.1823 88.4894 42.5834 89.3696 42.4479L95.979 41.4532C96.8592 41.3229 97.3592 41.6615 97.4842 42.4688L97.5831 43.1302C97.6144 43.3281 97.7446 43.4115 97.9737 43.3802L98.979 43.2292L99.1769 44.474ZM95.1456 43.5L95.0935 43.1719C95.0623 42.974 94.9321 42.8906 94.7029 42.9219L89.4633 43.7084C89.2342 43.7448 89.1352 43.8594 89.1612 44.0625L89.2133 44.3906C89.2446 44.5886 89.3748 44.6719 89.604 44.6406L94.8435 43.8542C95.0779 43.8177 95.1769 43.6979 95.1456 43.5Z" fill="white"/>
<path d="M96.5003 48.7398L96.5107 48.969C96.542 49.7971 96.1097 50.2294 95.2191 50.2607L90.1357 50.4377C89.2451 50.469 88.7868 50.0679 88.7555 49.2398L88.7451 49.0107C88.7347 48.6982 88.8128 48.4534 88.9795 48.2711L86.3232 48.3648L86.2764 47.1044L96.3389 46.7502L96.3649 47.5419L95.917 47.8336C96.292 47.9794 96.4847 48.2867 96.5003 48.7398ZM95.6149 48.6617L95.6045 48.344C95.5993 48.1409 95.4899 48.0419 95.2764 48.0523L89.917 48.2398C89.7035 48.245 89.5993 48.3544 89.6097 48.5523L89.6201 48.87C89.6253 49.0732 89.7451 49.1669 89.9795 49.1617L95.2764 48.9742C95.5108 48.9742 95.6253 48.8648 95.6149 48.6617Z" fill="white"/>
<path d="M96.3743 53.5679L96.3587 53.7971C96.2754 54.8648 95.791 55.3648 94.9004 55.2971L88.5879 54.8023L88.6504 54.0158L89.1243 53.7814C88.7754 53.5939 88.6139 53.271 88.6504 52.8127L88.6712 52.5679C88.7337 51.7502 89.2129 51.3752 90.0983 51.4481L92.265 51.62C93.1556 51.6877 93.5671 52.1356 93.4993 52.9533L93.4785 53.1981C93.4525 53.5106 93.3483 53.745 93.166 53.9064L95.1035 54.0575C95.3379 54.0731 95.4577 53.9846 95.4733 53.7814L95.4993 53.4481C95.515 53.245 95.4056 53.1356 95.1764 53.12L94.3275 53.0523L94.4264 51.7971L95.166 51.8544C96.0566 51.9117 96.4577 52.4846 96.3743 53.5679ZM92.5827 53.5419L92.6087 53.2085C92.6243 53.0054 92.515 52.896 92.2858 52.8804L89.8952 52.6929C89.6608 52.6773 89.541 52.7658 89.5254 52.9689L89.4993 53.3023C89.4837 53.5054 89.5827 53.6148 89.7962 53.6304L92.2337 53.8231C92.4473 53.8387 92.5671 53.745 92.5827 53.5419Z" fill="white"/>
<path d="M95.6926 58.7346L95.6665 58.8856C95.4634 59.9377 94.9269 60.3804 94.0519 60.2138L92.8124 59.9742C92.1874 59.8544 91.9165 59.5002 92.0103 58.9065C91.8592 59.5367 91.4269 59.7867 90.7238 59.646L89.0363 59.3231C88.1613 59.1565 87.8228 58.5419 88.0259 57.4898L88.0676 57.2658C88.2707 56.2033 88.8124 55.7554 89.6874 55.9221L90.4165 56.0627L90.1769 57.3023L89.3436 57.1408C89.1145 57.0992 88.979 57.1721 88.9426 57.3752L88.8801 57.7033C88.8436 57.9013 88.9374 58.021 89.1665 58.0679L91.2394 58.469C91.4686 58.5106 91.604 58.4377 91.6405 58.2346L91.7655 57.5783L92.6301 57.745L92.5207 58.3283C92.4842 58.5263 92.578 58.646 92.8071 58.6929L94.3905 58.995C94.6196 59.0367 94.7551 58.9637 94.7915 58.7606L94.8384 58.5054C94.8748 58.3075 94.7811 58.1825 94.5519 58.1408L93.7186 57.9794L93.9582 56.7398L94.6873 56.8804C95.5623 57.0575 95.8957 57.6721 95.6926 58.7346Z" fill="white"/>
<path d="M94.4429 63.7657L94.3752 63.9844C94.0575 65.0105 93.4689 65.3907 92.62 65.1251L87.7606 63.6095C86.9117 63.3438 86.6461 62.698 86.9638 61.6772L87.0315 61.4584C87.3544 60.422 87.9429 60.0417 88.7919 60.3022L93.6512 61.8178C94.5002 62.0834 94.7658 62.7345 94.4429 63.7657ZM93.5158 63.7657L93.6148 63.448C93.6773 63.2553 93.5939 63.1251 93.37 63.0522L88.3075 61.474C88.0836 61.4063 87.9429 61.4688 87.8856 61.6615L87.7867 61.9792C87.7242 62.172 87.8075 62.3022 88.0315 62.3751L93.0939 63.9532C93.3179 64.0209 93.4585 63.9584 93.5158 63.7657Z" fill="white"/>
<path d="M93.1765 67.2085L92.4109 68.9481C92.187 69.4585 91.963 69.7814 91.739 69.922C91.5151 70.0627 91.1922 70.0366 90.7651 69.8491L89.4995 69.2918C88.9161 69.0366 88.7338 68.6304 88.9578 68.0731C88.6661 68.6512 88.1974 68.797 87.5359 68.5106L85.8693 67.7762C85.4422 67.5887 85.2078 67.3647 85.1557 67.1147C85.1088 66.8595 85.1974 66.4793 85.4213 65.9689L86.2234 64.146L93.1765 67.2085ZM89.0099 66.7502L86.5203 65.6512L86.2651 66.2345C86.1818 66.422 86.2495 66.5575 86.463 66.6512L88.312 67.4689C88.5255 67.5627 88.6713 67.5158 88.7547 67.3335L89.0099 66.7502ZM91.8588 68.0054L89.8172 67.1043L89.588 67.62C89.5047 67.8075 89.5724 67.9429 89.7859 68.0366L91.187 68.6564C91.4005 68.7502 91.5463 68.7033 91.6297 68.521L91.8588 68.0054Z" fill="white"/>
<path d="M90.2708 73.3022L90.1562 73.5001C89.6146 74.4272 88.9635 74.6668 88.1927 74.2188L82.7188 71.0314L83.1146 70.3491L83.6458 70.3438C83.4115 70.0209 83.4115 69.6616 83.6406 69.2657L83.7604 69.0574C84.1719 68.3491 84.7656 68.2189 85.5365 68.6668L87.4115 69.7605C88.1823 70.2084 88.3594 70.7866 87.9479 71.4949L87.8281 71.7032C87.6719 71.9741 87.474 72.1407 87.2396 72.2032L88.9219 73.1824C89.125 73.297 89.276 73.2709 89.375 73.0938L89.5417 72.8074C89.6458 72.6303 89.5937 72.4845 89.3906 72.3699L88.6562 71.9428L89.2917 70.8543L89.9323 71.2293C90.7031 71.672 90.8177 72.3647 90.2708 73.3022ZM86.8646 71.6355L87.0312 71.3491C87.1354 71.172 87.0833 71.0261 86.8802 70.9116L84.8073 69.7032C84.6042 69.5834 84.4531 69.6147 84.3542 69.7918L84.1875 70.0782C84.0833 70.2553 84.125 70.3959 84.3125 70.5001L86.4271 71.7293C86.6146 71.8386 86.7604 71.8074 86.8646 71.6355Z" fill="white"/>
<path d="M85.7288 78.344L86.3226 77.5367L80.9111 73.5627L81.6559 72.5471L87.0674 76.5211L87.6507 75.7242L88.3591 76.245L86.4372 78.8648L85.7288 78.344Z" fill="white"/>
<path d="M84.3589 81.3959L84.2027 81.5626C83.4787 82.3542 82.786 82.448 82.1297 81.849L79.562 79.5053L81.0464 77.8803L79.7808 76.724C79.6089 76.5677 79.4527 76.5625 79.3172 76.7136L79.0933 76.9584C78.9579 77.1094 78.9735 77.2605 79.1454 77.4167L79.7964 78.0105L78.9474 78.9428L78.3745 78.4219C77.7183 77.823 77.7495 77.125 78.4735 76.3334L78.6297 76.1667C79.3589 75.3646 80.0568 75.2657 80.7131 75.8698L84.4683 79.3021C85.1245 79.8959 85.0881 80.5938 84.3589 81.3959ZM83.5256 81.0001L83.7495 80.7553C83.885 80.6042 83.8693 80.4532 83.6975 80.2969L81.6922 78.4636L81.0568 79.1563L83.062 80.9896C83.2339 81.1459 83.3849 81.1511 83.5256 81.0001Z" fill="white"/>
<path d="M74.083 80.5782L75.0466 79.7449L79.4424 84.8178L79.8539 84.4584L76.1299 79.7657C75.9736 79.5678 75.9007 79.3647 75.9163 79.1563C75.932 78.948 76.0257 78.7709 76.2028 78.6147L76.8799 78.0261L77.458 78.6928L77.2966 78.8334C77.1768 78.9376 77.1872 79.0834 77.3278 79.2657L81.3591 84.3126L79.0518 86.3126L74.083 80.5782Z" fill="white"/>
<path d="M74.8591 85.8647L73.9424 86.4897C73.3382 86.9011 72.8226 86.7918 72.3955 86.1615L71.0049 84.1147C70.7445 83.7293 70.6612 83.4168 70.7601 83.172C70.8591 82.9272 71.1351 82.6511 71.5987 82.3386L73.2341 81.2292L77.4997 87.5105L76.458 88.2188L74.8591 85.8647ZM74.3643 85.1355L72.682 82.6615L72.1664 83.0105C71.9997 83.1251 71.9789 83.2761 72.1091 83.4688L73.3955 85.3647C73.5257 85.5574 73.6768 85.599 73.8434 85.4845L74.3643 85.1355Z" fill="white"/>
<path d="M66.4951 85.2501L67.6253 84.6615L69.292 87.8542L70.1149 87.4272L68.4482 84.2345L69.568 83.6511L73.0836 90.3803L71.9639 90.9636L70.5264 88.2188L69.7035 88.6459L71.1409 91.3907L70.0107 91.9792L66.4951 85.2501Z" fill="white"/>
<path d="M66.8386 93.3962L66.625 93.4795C65.625 93.865 64.9636 93.641 64.6407 92.8129L62.8126 88.0629C62.4948 87.2295 62.8334 86.6201 63.8334 86.2347L64.0469 86.1514C65.0573 85.7608 65.724 85.9847 66.0417 86.8129L67.8698 91.5629C68.1928 92.3962 67.849 93.0108 66.8386 93.3962ZM66.2657 92.6722L66.5782 92.5525C66.7657 92.4795 66.8178 92.3337 66.7344 92.1149L64.8282 87.167C64.7448 86.9483 64.6094 86.8754 64.4167 86.9483L64.1042 87.0681C63.9167 87.141 63.8646 87.2868 63.948 87.5056L65.8542 92.4535C65.9376 92.6774 66.0782 92.7452 66.2657 92.6722Z" fill="white"/>
<path d="M60.1299 94.4845L61.9372 94.0053L60.208 87.5158L61.4268 87.1929L63.3799 94.5314L60.3591 95.3387L60.1299 94.4845Z" fill="white"/>
<path d="M57.1773 95.995L56.9533 96.0314C55.8908 96.1929 55.2919 95.8387 55.1564 94.9533L54.3804 89.9272C54.245 89.047 54.7085 88.5262 55.7658 88.3595L55.9898 88.3231C57.0627 88.1564 57.6617 88.5158 57.7971 89.396L58.5731 94.422C58.7137 95.3075 58.245 95.8283 57.1773 95.995ZM56.771 95.1668L57.0992 95.1147C57.2971 95.0835 57.3804 94.9533 57.3439 94.7241L56.5367 89.4845C56.5002 89.2554 56.3856 89.1564 56.1825 89.1877L55.8544 89.2397C55.6564 89.271 55.5731 89.4012 55.6096 89.6304L56.4169 94.87C56.4533 95.0939 56.5731 95.1981 56.771 95.1668Z" fill="white"/>
<path d="M42.1144 95.8857L41.9633 95.8597C40.906 95.6774 40.4529 95.1461 40.6092 94.2659L40.8279 93.0263C40.9373 92.3961 41.2862 92.1253 41.88 92.2086C41.2446 92.068 40.9894 91.6409 41.1144 90.9326L41.4112 89.2399C41.5623 88.3597 42.1717 88.0159 43.229 88.1982L43.4529 88.2399C44.5206 88.4274 44.979 88.9586 44.8227 89.8336L44.6925 90.568L43.4529 90.3492L43.5988 89.5107C43.6404 89.2815 43.5571 89.1513 43.3592 89.1149L43.031 89.0576C42.8331 89.0211 42.7133 89.1201 42.6717 89.3492L42.3071 91.4274C42.2654 91.6565 42.3487 91.7868 42.5467 91.8232L43.2029 91.9378L43.0519 92.8076L42.4685 92.7034C42.2706 92.667 42.1508 92.7659 42.1092 92.9951L41.8331 94.5836C41.7915 94.8128 41.8748 94.943 42.0727 94.9795L42.3279 95.0263C42.5258 95.0628 42.6456 94.9638 42.6873 94.7347L42.8331 93.8961L44.0727 94.1149L43.9425 94.8493C43.7915 95.7295 43.1821 96.0732 42.1144 95.8857Z" fill="white"/>
<path d="M37.1093 94.7346L36.8906 94.6721C35.8593 94.37 35.4687 93.7919 35.7187 92.9377L37.4999 86.8596L38.2603 87.0836L38.3958 87.5992C38.6562 87.2971 38.9999 87.2086 39.4374 87.3336L39.6718 87.4013C40.4583 87.6305 40.7291 88.1721 40.4791 89.0315L39.8697 91.1148C39.6197 91.969 39.0989 92.2815 38.3124 92.0523L38.0781 91.9846C37.776 91.8961 37.5676 91.745 37.4531 91.5315L36.9062 93.3961C36.8385 93.62 36.9062 93.7607 37.0989 93.8179L37.4218 93.9117C37.6145 93.969 37.7447 93.8857 37.8124 93.6617L38.052 92.844L39.2603 93.1982L39.052 93.9117C38.7916 94.7659 38.1458 95.0419 37.1093 94.7346ZM37.9062 91.0315L38.2291 91.1252C38.4218 91.1825 38.552 91.0992 38.6197 90.8752L39.2916 88.5732C39.3593 88.3492 39.2916 88.2086 39.0989 88.1513L38.776 88.0575C38.5833 88.0002 38.4531 88.0732 38.3958 88.2763L37.7083 90.6252C37.6458 90.8388 37.7135 90.9742 37.9062 91.0315Z" fill="white"/>
<path d="M32.599 89.3594L33.4063 85.198L34.5365 85.672L33.7656 89.3855L33.9375 89.4584L35.375 86.0261L36.5365 86.5157L33.599 93.5209L32.4375 93.0313L33.5938 90.2709L33.4271 90.2032L31.6667 92.7084L30.5312 92.2344L32.599 89.3594Z" fill="white"/>
<path d="M27.4787 90.7294L27.2808 90.62C26.3433 90.0992 26.0933 89.4481 26.5256 88.6669L29.0047 84.2241C29.437 83.4481 30.1245 83.3179 31.062 83.8387L31.2599 83.9481C32.2079 84.4741 32.4631 85.1304 32.0308 85.9064L29.5516 90.3492C29.1141 91.1356 28.4266 91.2606 27.4787 90.7294ZM27.6714 89.8283L27.9631 89.9898C28.1402 90.0888 28.286 90.0367 28.4006 89.8335L30.9839 85.2033C31.0985 85.0002 31.0672 84.8491 30.8902 84.7502L30.5985 84.5887C30.4214 84.4898 30.2756 84.5418 30.161 84.745L27.5777 89.3752C27.4579 89.5783 27.4943 89.7294 27.6714 89.8283Z" fill="white"/>
<path d="M25.9736 80.6045L27.0101 81.3493L24.9163 84.2764L25.6716 84.818L27.7653 81.891L28.7913 82.6253L24.3695 88.8024L23.3434 88.068L25.1455 85.5472L24.3903 85.0055L22.5882 87.5264L21.5518 86.7816L25.9736 80.6045Z" fill="white"/>
<path d="M18.8539 84.5834L18.6873 84.4324C17.8904 83.7136 17.7914 83.0209 18.3904 82.3595L21.8019 78.5834C22.4008 77.922 23.0987 77.9532 23.8904 78.672L24.0571 78.823C24.8592 79.5522 24.9633 80.2449 24.3644 80.9063L20.9529 84.6824C20.3592 85.3438 19.656 85.3126 18.8539 84.5834ZM19.2446 83.7501L19.4946 83.974C19.6456 84.1094 19.7967 84.0938 19.9529 83.9167L23.5102 79.9844C23.6665 79.8126 23.6717 79.6563 23.5206 79.5209L23.2706 79.297C23.1196 79.1615 22.9685 79.1772 22.8123 79.3542L19.255 83.2865C19.0935 83.4584 19.0935 83.6094 19.2446 83.7501Z" fill="white"/>
<path d="M18.8646 74.7709L18.5573 74.4167L20.5417 72.698L21.3698 73.6511L20.0521 74.7969L21.276 76.2084L22.5937 75.0626L23.4219 76.0157L21.4375 77.7344L21.1875 77.448C21.0885 77.349 20.9479 77.3647 20.776 77.5053L15.7969 81.4792L13.7969 79.1719L18.8646 74.7709ZM15.651 79.9688L19.474 76.9376C19.9531 76.5626 20.2187 76.3803 20.2656 76.3907L19.6875 75.724L15.2812 79.5417L15.651 79.9688Z" fill="white"/>
<path d="M11.5054 76.1461L11.3804 75.9586C10.7815 75.0679 10.8544 74.3752 11.594 73.8752L16.8492 70.344L17.2919 71.0002L17.0679 71.4794C17.4585 71.4117 17.7867 71.5627 18.0367 71.9429L18.1721 72.1461C18.6304 72.8284 18.4898 73.4169 17.7502 73.9117L15.9481 75.1252C15.2085 75.62 14.6096 75.5315 14.1513 74.8492L14.0158 74.6461C13.8388 74.3856 13.7763 74.1356 13.8231 73.8961L12.2085 74.9794C12.0158 75.1096 11.9742 75.2606 12.0888 75.4273L12.2763 75.7033C12.3908 75.87 12.5419 75.8908 12.7346 75.7606L13.4429 75.2867L14.146 76.3336L13.5263 76.7502C12.7815 77.245 12.1096 77.0471 11.5054 76.1461ZM14.4898 73.8075L14.6773 74.0836C14.7919 74.2502 14.9429 74.2711 15.1356 74.1409L17.1252 72.8023C17.3179 72.6721 17.3596 72.5211 17.245 72.3544L17.0575 72.0784C16.9429 71.9117 16.8023 71.8857 16.6252 72.0054L14.594 73.37C14.4169 73.495 14.3804 73.6409 14.4898 73.8075Z" fill="white"/>
<path d="M8.95866 69.8594L9.42741 70.7449L15.3701 67.6199L15.9587 68.7344L10.016 71.8594L10.4743 72.7344L9.69303 73.1459L8.18262 70.2709L8.95866 69.8594Z" fill="white"/>
<path d="M6.81768 67.2918L6.73435 67.0782C6.33852 66.0782 6.55727 65.4168 7.38539 65.0886L10.6198 63.8074L11.4323 65.8543L13.026 65.2241C13.2448 65.1407 13.3125 65.0001 13.2396 64.8126L13.1146 64.5001C13.0416 64.3126 12.8958 64.2605 12.6771 64.3438L11.8594 64.6668L11.3958 63.4949L12.1146 63.2084C12.9427 62.8803 13.5573 63.2136 13.9479 64.2136L14.0312 64.4272C14.4323 65.4324 14.2135 66.1043 13.3854 66.4324L8.65623 68.3074C7.8281 68.6407 7.21873 68.3022 6.81768 67.2918ZM7.53643 66.7136L7.66143 67.0261C7.73435 67.2136 7.88018 67.2657 8.09893 67.1824L10.625 66.1824L10.276 65.3074L7.74998 66.3074C7.53123 66.3907 7.46352 66.5261 7.53643 66.7136Z" fill="white"/>
<path d="M12.0417 58.4065L12.375 59.6409L5.89062 61.3804L6.03125 61.9065L11.875 60.6044C12.1198 60.5471 12.3333 60.5732 12.5156 60.6773C12.6979 60.7815 12.8177 60.9429 12.875 61.1721L13.1094 62.0367L12.2604 62.2659L12.2031 62.0627C12.1615 61.9065 12.026 61.8544 11.7969 61.9065L5.49479 63.3336L4.70312 60.3857L12.0417 58.4065Z" fill="white"/>
<path d="M6.94792 56.8021L6.78646 55.7032C6.68229 54.9844 7.00521 54.5677 7.75521 54.4532L10.2031 54.0938C10.6615 54.0261 10.9844 54.0886 11.1615 54.2813C11.3385 54.474 11.4687 54.849 11.5469 55.4011L11.8333 57.3542L4.32292 58.4636L4.14062 57.2188L6.94792 56.8021ZM7.81771 56.6771L10.776 56.2396L10.6875 55.625C10.6562 55.4271 10.526 55.3438 10.2969 55.375L8.02604 55.7084C7.79687 55.7448 7.69271 55.8594 7.72396 56.0573L7.81771 56.6771Z" fill="white"/>
<path d="M3.53112 51.7085L3.52071 51.4794C3.48425 50.4064 3.91133 49.8544 4.80195 49.8231L5.578 49.7971L5.61966 51.0575L4.73946 51.0887C4.50508 51.0991 4.39571 51.2033 4.40091 51.4064L4.41133 51.7398C4.41654 51.9429 4.53633 52.0418 4.7707 52.0314L10.0676 51.8491C10.302 51.8387 10.4113 51.7346 10.4061 51.5314L10.3957 51.1981C10.3905 50.995 10.2707 50.896 10.0363 50.9064L9.15612 50.9377L9.11445 49.6773L9.8905 49.6512C10.7811 49.62 11.2447 50.1408 11.2811 51.2137L11.2915 51.4429C11.328 52.5262 10.9009 53.0835 10.0103 53.1148L4.92695 53.2918C4.03112 53.3179 3.56758 52.7918 3.53112 51.7085Z" fill="white"/>
<path d="M4.69271 45.1198L4.61979 46.1198L11.3177 46.6042L11.224 47.8594L4.53125 47.3802L4.45833 48.3646L3.57812 48.3021L3.8125 45.0625L4.69271 45.1198Z" fill="white"/>
<path d="M4.03125 43.3388L4.375 41.469C4.47396 40.9222 4.61979 40.5524 4.80208 40.3649C4.98437 40.1774 5.30729 40.1253 5.76562 40.2086L7.125 40.4586C7.75 40.5732 8.02083 40.9274 7.93229 41.5159C8.07813 40.8857 8.50521 40.6305 9.21354 40.7607L11.0052 41.0888C11.4635 41.1722 11.7448 41.3336 11.8542 41.568C11.9583 41.8024 11.9635 42.193 11.8646 42.7451L11.5052 44.7034L4.03125 43.3388ZM5.125 42.2607L7.32292 42.6617L7.42188 42.1097C7.45833 41.9118 7.36458 41.792 7.13542 41.7503L5.625 41.4743C5.39583 41.4326 5.26562 41.5107 5.22917 41.7086L5.125 42.2607ZM8.1875 42.818L10.8594 43.3076L10.974 42.6826C11.0104 42.4847 10.9167 42.3649 10.6875 42.3232L8.69792 41.9586C8.46875 41.917 8.33854 41.9951 8.30208 42.193L8.1875 42.818Z" fill="white"/>
<path d="M5.44777 36.7242L5.51548 36.5055C5.82798 35.4794 6.41131 35.094 7.26027 35.3544L13.3228 37.1878L13.0936 37.943L12.578 38.0732C12.8801 38.3336 12.9634 38.6825 12.8332 39.12L12.7603 39.3544C12.5207 40.1409 11.979 40.4013 11.1249 40.1461L9.04673 39.5159C8.19256 39.2555 7.88527 38.7346 8.12486 37.9482L8.19777 37.7138C8.28631 37.4117 8.44256 37.2086 8.6561 37.0888L6.79673 36.5263C6.57277 36.4586 6.43215 36.5211 6.37486 36.7138L6.2759 37.0315C6.21861 37.2242 6.29673 37.3544 6.52069 37.4221L7.33319 37.6669L6.96861 38.8753L6.25506 38.6617C5.4009 38.4065 5.13527 37.7607 5.44777 36.7242ZM9.14569 37.5575L9.04673 37.8753C8.98944 38.068 9.06756 38.1982 9.29152 38.2659L11.5884 38.9638C11.8124 39.0315 11.953 38.969 12.0103 38.7763L12.1092 38.4586C12.1665 38.2659 12.0936 38.1357 11.8905 38.0732L9.55194 37.3648C9.3436 37.3023 9.20298 37.3648 9.14569 37.5575Z" fill="white"/>
<path d="M133.492 27.2207H127.525V33.5H125.65V19.2812H134.459V20.8242H127.525V25.6875H133.492V27.2207ZM144.742 26.9277H138.58V31.9668H145.738V33.5H136.705V19.2812H145.641V20.8242H138.58V25.3945H144.742V26.9277ZM148.072 33.5V19.2812H152.086C153.323 19.2812 154.417 19.5547 155.367 20.1016C156.318 20.6484 157.05 21.4264 157.564 22.4355C158.085 23.4447 158.349 24.6035 158.355 25.9121V26.8203C158.355 28.1615 158.095 29.3366 157.574 30.3457C157.06 31.3548 156.321 32.1296 155.357 32.6699C154.4 33.2103 153.284 33.487 152.008 33.5H148.072ZM149.947 20.8242V31.9668H151.92C153.365 31.9668 154.488 31.5176 155.289 30.6191C156.096 29.7207 156.5 28.4414 156.5 26.7812V25.9512C156.5 24.3366 156.119 23.0833 155.357 22.1914C154.602 21.293 153.528 20.8372 152.135 20.8242H149.947ZM169.234 26.9277H163.072V31.9668H170.23V33.5H161.197V19.2812H170.133V20.8242H163.072V25.3945H169.234V26.9277ZM177.779 27.748H174.439V33.5H172.555V19.2812H177.262C178.863 19.2812 180.094 19.6458 180.953 20.375C181.819 21.1042 182.252 22.1654 182.252 23.5586C182.252 24.444 182.011 25.2155 181.529 25.873C181.054 26.5306 180.39 27.0221 179.537 27.3477L182.877 33.3828V33.5H180.865L177.779 27.748ZM174.439 26.2148H177.32C178.251 26.2148 178.99 25.974 179.537 25.4922C180.09 25.0104 180.367 24.3659 180.367 23.5586C180.367 22.6797 180.104 22.0059 179.576 21.5371C179.055 21.0684 178.3 20.8307 177.311 20.8242H174.439V26.2148ZM192.74 29.7891H186.783L185.445 33.5H183.512L188.941 19.2812H190.582L196.021 33.5H194.098L192.74 29.7891ZM187.35 28.2461H192.184L189.762 21.5957L187.35 28.2461ZM199.82 31.9668H206.559V33.5H197.936V19.2812H199.82V31.9668ZM224.117 28.9883C223.941 30.4922 223.385 31.6543 222.447 32.4746C221.516 33.2884 220.276 33.6953 218.727 33.6953C217.047 33.6953 215.699 33.0931 214.684 31.8887C213.674 30.6842 213.17 29.0729 213.17 27.0547V25.6875C213.17 24.3659 213.404 23.2038 213.873 22.2012C214.348 21.1986 215.019 20.4303 215.885 19.8965C216.751 19.3561 217.753 19.0859 218.893 19.0859C220.403 19.0859 221.614 19.5091 222.525 20.3555C223.437 21.1953 223.967 22.3607 224.117 23.8516H222.232C222.07 22.7188 221.715 21.8984 221.168 21.3906C220.628 20.8828 219.869 20.6289 218.893 20.6289C217.695 20.6289 216.754 21.0716 216.07 21.957C215.393 22.8424 215.055 24.1022 215.055 25.7363V27.1133C215.055 28.6562 215.377 29.8835 216.021 30.7949C216.666 31.7064 217.568 32.1621 218.727 32.1621C219.768 32.1621 220.566 31.9277 221.119 31.459C221.679 30.9837 222.05 30.1602 222.232 28.9883H224.117ZM234.723 26.9277H228.561V31.9668H235.719V33.5H226.686V19.2812H235.621V20.8242H228.561V25.3945H234.723V26.9277ZM248.98 33.5H247.096L239.938 22.543V33.5H238.053V19.2812H239.938L247.115 30.2871V19.2812H248.98V33.5ZM261.842 20.8242H257.271V33.5H255.406V20.8242H250.846V19.2812H261.842V20.8242ZM271.988 26.9277H265.826V31.9668H272.984V33.5H263.951V19.2812H272.887V20.8242H265.826V25.3945H271.988V26.9277ZM280.533 27.748H277.193V33.5H275.309V19.2812H280.016C281.617 19.2812 282.848 19.6458 283.707 20.375C284.573 21.1042 285.006 22.1654 285.006 23.5586C285.006 24.444 284.765 25.2155 284.283 25.873C283.808 26.5306 283.144 27.0221 282.291 27.3477L285.631 33.3828V33.5H283.619L280.533 27.748ZM277.193 26.2148H280.074C281.005 26.2148 281.744 25.974 282.291 25.4922C282.844 25.0104 283.121 24.3659 283.121 23.5586C283.121 22.6797 282.857 22.0059 282.33 21.5371C281.809 21.0684 281.054 20.8307 280.064 20.8242H277.193V26.2148ZM300.445 27.2207H294.479V33.5H292.604V19.2812H301.412V20.8242H294.479V25.6875H300.445V27.2207ZM314.596 26.8496C314.596 28.2428 314.361 29.4603 313.893 30.502C313.424 31.5371 312.76 32.3281 311.9 32.875C311.041 33.4219 310.038 33.6953 308.893 33.6953C307.773 33.6953 306.78 33.4219 305.914 32.875C305.048 32.3216 304.374 31.5371 303.893 30.5215C303.417 29.4993 303.173 28.3177 303.16 26.9766V25.9512C303.16 24.584 303.398 23.3763 303.873 22.3281C304.348 21.2799 305.019 20.4792 305.885 19.9258C306.757 19.3659 307.753 19.0859 308.873 19.0859C310.012 19.0859 311.015 19.3626 311.881 19.916C312.753 20.4629 313.424 21.2604 313.893 22.3086C314.361 23.3503 314.596 24.5645 314.596 25.9512V26.8496ZM312.73 25.9316C312.73 24.2454 312.392 22.9531 311.715 22.0547C311.038 21.1497 310.09 20.6973 308.873 20.6973C307.688 20.6973 306.754 21.1497 306.07 22.0547C305.393 22.9531 305.045 24.2031 305.025 25.8047V26.8496C305.025 28.4837 305.367 29.7695 306.051 30.707C306.741 31.638 307.688 32.1035 308.893 32.1035C310.104 32.1035 311.041 31.6641 311.705 30.7852C312.369 29.8997 312.711 28.6335 312.73 26.9863V25.9316ZM322.623 27.748H319.283V33.5H317.398V19.2812H322.105C323.707 19.2812 324.938 19.6458 325.797 20.375C326.663 21.1042 327.096 22.1654 327.096 23.5586C327.096 24.444 326.855 25.2155 326.373 25.873C325.898 26.5306 325.234 27.0221 324.381 27.3477L327.721 33.3828V33.5H325.709L322.623 27.748ZM319.283 26.2148H322.164C323.095 26.2148 323.834 25.974 324.381 25.4922C324.934 25.0104 325.211 24.3659 325.211 23.5586C325.211 22.6797 324.947 22.0059 324.42 21.5371C323.899 21.0684 323.144 20.8307 322.154 20.8242H319.283V26.2148ZM133.688 49.9277H127.525V54.9668H134.684V56.5H125.65V42.2812H134.586V43.8242H127.525V48.3945H133.688V49.9277ZM137.018 56.5V42.2812H141.031C142.268 42.2812 143.362 42.5547 144.312 43.1016C145.263 43.6484 145.995 44.4264 146.51 45.4355C147.031 46.4447 147.294 47.6035 147.301 48.9121V49.8203C147.301 51.1615 147.04 52.3366 146.52 53.3457C146.005 54.3548 145.266 55.1296 144.303 55.6699C143.346 56.2103 142.229 56.487 140.953 56.5H137.018ZM138.893 43.8242V54.9668H140.865C142.311 54.9668 143.434 54.5176 144.234 53.6191C145.042 52.7207 145.445 51.4414 145.445 49.7812V48.9512C145.445 47.3366 145.064 46.0833 144.303 45.1914C143.548 44.293 142.473 43.8372 141.08 43.8242H138.893ZM160.152 42.2812V51.9492C160.146 53.2904 159.723 54.3874 158.883 55.2402C158.049 56.0931 156.917 56.5716 155.484 56.6758L154.986 56.6953C153.43 56.6953 152.19 56.2754 151.266 55.4355C150.341 54.5957 149.872 53.4401 149.859 51.9688V42.2812H151.715V51.9102C151.715 52.9388 151.998 53.7396 152.564 54.3125C153.131 54.8789 153.938 55.1621 154.986 55.1621C156.048 55.1621 156.858 54.8789 157.418 54.3125C157.984 53.7461 158.268 52.9486 158.268 51.9199V42.2812H160.152ZM173.57 51.9883C173.395 53.4922 172.838 54.6543 171.9 55.4746C170.969 56.2884 169.729 56.6953 168.18 56.6953C166.5 56.6953 165.152 56.0931 164.137 54.8887C163.128 53.6842 162.623 52.0729 162.623 50.0547V48.6875C162.623 47.3659 162.857 46.2038 163.326 45.2012C163.801 44.1986 164.472 43.4303 165.338 42.8965C166.204 42.3561 167.206 42.0859 168.346 42.0859C169.856 42.0859 171.067 42.5091 171.979 43.3555C172.89 44.1953 173.421 45.3607 173.57 46.8516H171.686C171.523 45.7188 171.168 44.8984 170.621 44.3906C170.081 43.8828 169.322 43.6289 168.346 43.6289C167.148 43.6289 166.207 44.0716 165.523 44.957C164.846 45.8424 164.508 47.1022 164.508 48.7363V50.1133C164.508 51.6562 164.83 52.8835 165.475 53.7949C166.119 54.7064 167.021 55.1621 168.18 55.1621C169.221 55.1621 170.019 54.9277 170.572 54.459C171.132 53.9837 171.503 53.1602 171.686 51.9883H173.57ZM183.99 52.7891H178.033L176.695 56.5H174.762L180.191 42.2812H181.832L187.271 56.5H185.348L183.99 52.7891ZM178.6 51.2461H183.434L181.012 44.5957L178.6 51.2461ZM197.74 43.8242H193.17V56.5H191.305V43.8242H186.744V42.2812H197.74V43.8242ZM201.861 56.5H199.986V42.2812H201.861V56.5ZM216.236 49.8496C216.236 51.2428 216.002 52.4603 215.533 53.502C215.064 54.5371 214.4 55.3281 213.541 55.875C212.682 56.4219 211.679 56.6953 210.533 56.6953C209.413 56.6953 208.421 56.4219 207.555 55.875C206.689 55.3216 206.015 54.5371 205.533 53.5215C205.058 52.4993 204.814 51.3177 204.801 49.9766V48.9512C204.801 47.584 205.038 46.3763 205.514 45.3281C205.989 44.2799 206.66 43.4792 207.525 42.9258C208.398 42.3659 209.394 42.0859 210.514 42.0859C211.653 42.0859 212.656 42.3626 213.521 42.916C214.394 43.4629 215.064 44.2604 215.533 45.3086C216.002 46.3503 216.236 47.5645 216.236 48.9512V49.8496ZM214.371 48.9316C214.371 47.2454 214.033 45.9531 213.355 45.0547C212.678 44.1497 211.731 43.6973 210.514 43.6973C209.329 43.6973 208.395 44.1497 207.711 45.0547C207.034 45.9531 206.686 47.2031 206.666 48.8047V49.8496C206.666 51.4837 207.008 52.7695 207.691 53.707C208.382 54.638 209.329 55.1035 210.533 55.1035C211.744 55.1035 212.682 54.6641 213.346 53.7852C214.01 52.8997 214.352 51.6335 214.371 49.9863V48.9316ZM229.977 56.5H228.092L220.934 45.543V56.5H219.049V42.2812H220.934L228.111 53.2871V42.2812H229.977V56.5ZM241.334 52.7891H235.377L234.039 56.5H232.105L237.535 42.2812H239.176L244.615 56.5H242.691L241.334 52.7891ZM235.943 51.2461H240.777L238.355 44.5957L235.943 51.2461ZM248.414 54.9668H255.152V56.5H246.529V42.2812H248.414V54.9668ZM264.137 54.9668H270.875V56.5H262.252V42.2812H264.137V54.9668ZM281.051 49.9277H274.889V54.9668H282.047V56.5H273.014V42.2812H281.949V43.8242H274.889V48.3945H281.051V49.9277ZM294.879 54.6348C294.397 55.3249 293.723 55.8424 292.857 56.1875C291.998 56.526 290.995 56.6953 289.85 56.6953C288.691 56.6953 287.662 56.4251 286.764 55.8848C285.865 55.3379 285.169 54.5632 284.674 53.5605C284.186 52.5579 283.935 51.3958 283.922 50.0742V48.834C283.922 46.6921 284.42 45.0319 285.416 43.8535C286.419 42.6751 287.825 42.0859 289.635 42.0859C291.119 42.0859 292.314 42.4668 293.219 43.2285C294.124 43.9837 294.677 45.0579 294.879 46.4512H293.004C292.652 44.5697 291.533 43.6289 289.645 43.6289C288.388 43.6289 287.434 44.0716 286.783 44.957C286.139 45.8359 285.813 47.112 285.807 48.7852V49.9473C285.807 51.5423 286.171 52.8118 286.9 53.7559C287.63 54.6934 288.616 55.1621 289.859 55.1621C290.562 55.1621 291.178 55.084 291.705 54.9277C292.232 54.7715 292.669 54.5078 293.014 54.1367V50.9434H289.723V49.4199H294.879V54.6348ZM300.025 56.5H298.15V42.2812H300.025V56.5ZM307.652 50.1621C306.044 49.6999 304.872 49.1335 304.137 48.4629C303.408 47.7858 303.043 46.9525 303.043 45.9629C303.043 44.8431 303.489 43.9186 304.381 43.1895C305.279 42.4538 306.445 42.0859 307.877 42.0859C308.854 42.0859 309.723 42.2747 310.484 42.6523C311.253 43.0299 311.845 43.5508 312.262 44.2148C312.685 44.8789 312.896 45.6048 312.896 46.3926H311.012C311.012 45.5332 310.738 44.8594 310.191 44.3711C309.645 43.8763 308.873 43.6289 307.877 43.6289C306.952 43.6289 306.23 43.834 305.709 44.2441C305.195 44.6478 304.938 45.2109 304.938 45.9336C304.938 46.513 305.182 47.0046 305.67 47.4082C306.165 47.8053 307.001 48.1699 308.18 48.502C309.365 48.834 310.289 49.2018 310.953 49.6055C311.624 50.0026 312.118 50.4681 312.438 51.002C312.763 51.5358 312.926 52.1641 312.926 52.8867C312.926 54.0391 312.477 54.9635 311.578 55.6602C310.68 56.3503 309.479 56.6953 307.975 56.6953C306.998 56.6953 306.087 56.5098 305.24 56.1387C304.394 55.7611 303.74 55.2467 303.277 54.5957C302.822 53.9447 302.594 53.2057 302.594 52.3789H304.479C304.479 53.2383 304.794 53.9186 305.426 54.4199C306.064 54.9147 306.913 55.1621 307.975 55.1621C308.964 55.1621 309.723 54.9603 310.25 54.5566C310.777 54.153 311.041 53.6029 311.041 52.9062C311.041 52.2096 310.797 51.6725 310.309 51.2949C309.82 50.9108 308.935 50.5332 307.652 50.1621ZM317.223 54.9668H323.961V56.5H315.338V42.2812H317.223V54.9668ZM334.146 52.7891H328.189L326.852 56.5H324.918L330.348 42.2812H331.988L337.428 56.5H335.504L334.146 52.7891ZM328.756 51.2461H333.59L331.168 44.5957L328.756 51.2461ZM347.896 43.8242H343.326V56.5H341.461V43.8242H336.9V42.2812H347.896V43.8242ZM352.018 56.5H350.143V42.2812H352.018V56.5ZM366.393 49.8496C366.393 51.2428 366.158 52.4603 365.689 53.502C365.221 54.5371 364.557 55.3281 363.697 55.875C362.838 56.4219 361.835 56.6953 360.689 56.6953C359.57 56.6953 358.577 56.4219 357.711 55.875C356.845 55.3216 356.171 54.5371 355.689 53.5215C355.214 52.4993 354.97 51.3177 354.957 49.9766V48.9512C354.957 47.584 355.195 46.3763 355.67 45.3281C356.145 44.2799 356.816 43.4792 357.682 42.9258C358.554 42.3659 359.55 42.0859 360.67 42.0859C361.809 42.0859 362.812 42.3626 363.678 42.916C364.55 43.4629 365.221 44.2604 365.689 45.3086C366.158 46.3503 366.393 47.5645 366.393 48.9512V49.8496ZM364.527 48.9316C364.527 47.2454 364.189 45.9531 363.512 45.0547C362.835 44.1497 361.887 43.6973 360.67 43.6973C359.485 43.6973 358.551 44.1497 357.867 45.0547C357.19 45.9531 356.842 47.2031 356.822 48.8047V49.8496C356.822 51.4837 357.164 52.7695 357.848 53.707C358.538 54.638 359.485 55.1035 360.689 55.1035C361.9 55.1035 362.838 54.6641 363.502 53.7852C364.166 52.8997 364.508 51.6335 364.527 49.9863V48.9316ZM380.133 56.5H378.248L371.09 45.543V56.5H369.205V42.2812H371.09L378.268 53.2871V42.2812H380.133V56.5Z" fill="white"/>
<path d="M130.498 77.4185H126.62V81.5H125.401V72.2578H131.126V73.2607H126.62V76.4219H130.498V77.4185ZM137.811 77.228H133.805V80.5034H138.458V81.5H132.586V72.2578H138.395V73.2607H133.805V76.2314H137.811V77.228ZM139.975 81.5V72.2578H142.584C143.388 72.2578 144.099 72.4355 144.717 72.791C145.335 73.1465 145.811 73.6522 146.145 74.3081C146.484 74.964 146.655 75.7173 146.659 76.5679V77.1582C146.659 78.0299 146.49 78.7938 146.151 79.4497C145.817 80.1056 145.337 80.6092 144.71 80.9604C144.088 81.3117 143.363 81.4915 142.533 81.5H139.975ZM141.194 73.2607V80.5034H142.476C143.416 80.5034 144.146 80.2114 144.666 79.6274C145.191 79.0435 145.453 78.2119 145.453 77.1328V76.5933C145.453 75.5438 145.206 74.7292 144.71 74.1494C144.22 73.5654 143.521 73.2692 142.616 73.2607H141.194ZM153.73 77.228H149.725V80.5034H154.378V81.5H148.506V72.2578H154.314V73.2607H149.725V76.2314H153.73V77.228ZM159.285 77.7612H157.114V81.5H155.889V72.2578H158.948C159.989 72.2578 160.789 72.4948 161.348 72.9688C161.91 73.4427 162.192 74.1325 162.192 75.0381C162.192 75.6136 162.035 76.1151 161.722 76.5425C161.413 76.9699 160.982 77.2894 160.427 77.501L162.598 81.4238V81.5H161.291L159.285 77.7612ZM157.114 76.7646H158.986C159.591 76.7646 160.072 76.6081 160.427 76.2949C160.787 75.9818 160.967 75.5628 160.967 75.0381C160.967 74.4668 160.795 74.0288 160.453 73.7241C160.114 73.4194 159.623 73.265 158.98 73.2607H157.114V76.7646ZM169.009 79.0879H165.137L164.268 81.5H163.011L166.54 72.2578H167.606L171.142 81.5H169.892L169.009 79.0879ZM165.505 78.085H168.647L167.073 73.7622L165.505 78.085ZM173.611 80.5034H177.991V81.5H172.386V72.2578H173.611V80.5034ZM185.329 77.3804C184.284 77.0799 183.522 76.7118 183.044 76.2759C182.57 75.8358 182.333 75.2941 182.333 74.6509C182.333 73.923 182.623 73.3221 183.203 72.8481C183.787 72.37 184.544 72.1309 185.475 72.1309C186.11 72.1309 186.675 72.2536 187.17 72.499C187.669 72.7445 188.054 73.083 188.325 73.5146C188.6 73.9463 188.738 74.4181 188.738 74.9302H187.513C187.513 74.3716 187.335 73.9336 186.979 73.6162C186.624 73.2946 186.123 73.1338 185.475 73.1338C184.874 73.1338 184.404 73.2671 184.066 73.5337C183.732 73.7961 183.564 74.1621 183.564 74.6318C183.564 75.0085 183.723 75.328 184.041 75.5903C184.362 75.8485 184.906 76.0854 185.672 76.3013C186.442 76.5171 187.043 76.7562 187.475 77.0186C187.91 77.2767 188.232 77.5793 188.439 77.9263C188.651 78.2733 188.757 78.6816 188.757 79.1514C188.757 79.9004 188.465 80.5013 187.881 80.9541C187.297 81.4027 186.516 81.627 185.539 81.627C184.904 81.627 184.311 81.5063 183.761 81.2651C183.211 81.0197 182.786 80.6854 182.485 80.2622C182.189 79.839 182.041 79.3587 182.041 78.8213H183.266C183.266 79.3799 183.471 79.8221 183.882 80.1479C184.297 80.4696 184.849 80.6304 185.539 80.6304C186.182 80.6304 186.675 80.4992 187.018 80.2368C187.36 79.9744 187.532 79.6169 187.532 79.1641C187.532 78.7113 187.373 78.3621 187.056 78.1167C186.738 77.867 186.163 77.6216 185.329 77.3804ZM196.71 73.2607H193.74V81.5H192.527V73.2607H189.563V72.2578H196.71V73.2607ZM202.677 79.0879H198.805L197.936 81.5H196.679L200.208 72.2578H201.274L204.81 81.5H203.56L202.677 79.0879ZM199.173 78.085H202.315L200.741 73.7622L199.173 78.085ZM211.615 73.2607H208.644V81.5H207.432V73.2607H204.467V72.2578H211.615V73.2607ZM218.21 77.228H214.205V80.5034H218.857V81.5H212.986V72.2578H218.794V73.2607H214.205V76.2314H218.21V77.228ZM223.599 81.5V72.2578H226.621C227.624 72.2578 228.377 72.4652 228.88 72.8799C229.388 73.2946 229.642 73.9082 229.642 74.7207C229.642 75.1523 229.519 75.5353 229.274 75.8696C229.028 76.1997 228.694 76.4557 228.271 76.6377C228.77 76.7773 229.164 77.0439 229.452 77.4375C229.744 77.8268 229.89 78.2923 229.89 78.834C229.89 79.6634 229.621 80.3151 229.083 80.7891C228.546 81.263 227.786 81.5 226.805 81.5H223.599ZM224.818 77.1772V80.5034H226.83C227.397 80.5034 227.844 80.3574 228.169 80.0654C228.5 79.7692 228.665 79.363 228.665 78.8467C228.665 77.7337 228.059 77.1772 226.849 77.1772H224.818ZM224.818 76.1997H226.659C227.192 76.1997 227.617 76.0664 227.935 75.7998C228.256 75.5332 228.417 75.1714 228.417 74.7144C228.417 74.2065 228.269 73.8384 227.973 73.6099C227.676 73.3771 227.226 73.2607 226.621 73.2607H224.818V76.1997ZM238.205 72.2578V78.542C238.201 79.4137 237.926 80.1268 237.38 80.6812C236.838 81.2355 236.102 81.5465 235.171 81.6143L234.847 81.627C233.836 81.627 233.03 81.354 232.429 80.8081C231.828 80.2622 231.523 79.5111 231.515 78.5547V72.2578H232.721V78.5166C232.721 79.1852 232.905 79.7057 233.273 80.0781C233.641 80.4463 234.166 80.6304 234.847 80.6304C235.537 80.6304 236.064 80.4463 236.428 80.0781C236.796 79.71 236.98 79.1916 236.98 78.5229V72.2578H238.205ZM240.128 81.5V72.2578H242.737C243.541 72.2578 244.252 72.4355 244.87 72.791C245.488 73.1465 245.964 73.6522 246.298 74.3081C246.637 74.964 246.808 75.7173 246.812 76.5679V77.1582C246.812 78.0299 246.643 78.7938 246.305 79.4497C245.97 80.1056 245.49 80.6092 244.864 80.9604C244.242 81.3117 243.516 81.4915 242.687 81.5H240.128ZM241.347 73.2607V80.5034H242.629C243.569 80.5034 244.299 80.2114 244.819 79.6274C245.344 79.0435 245.606 78.2119 245.606 77.1328V76.5933C245.606 75.5438 245.359 74.7292 244.864 74.1494C244.373 73.5654 243.675 73.2692 242.769 73.2607H241.347ZM255.483 80.2876C255.17 80.7362 254.732 81.0726 254.169 81.2969C253.611 81.5169 252.959 81.627 252.214 81.627C251.461 81.627 250.792 81.4513 250.208 81.1001C249.625 80.7446 249.172 80.241 248.85 79.5894C248.533 78.9377 248.37 78.1823 248.361 77.3232V76.5171C248.361 75.1248 248.685 74.0457 249.333 73.2798C249.984 72.5138 250.898 72.1309 252.075 72.1309C253.04 72.1309 253.816 72.3784 254.404 72.8735C254.993 73.3644 255.352 74.0627 255.483 74.9683H254.265C254.036 73.7453 253.308 73.1338 252.081 73.1338C251.264 73.1338 250.644 73.4215 250.221 73.9971C249.802 74.5684 249.591 75.3978 249.586 76.4854V77.2407C249.586 78.2775 249.823 79.1027 250.297 79.7163C250.771 80.3257 251.412 80.6304 252.221 80.6304C252.678 80.6304 253.078 80.5796 253.42 80.478C253.763 80.3765 254.047 80.2051 254.271 79.9639V77.8882H252.132V76.8979H255.483V80.2876ZM262.745 77.228H258.74V80.5034H263.393V81.5H257.521V72.2578H263.329V73.2607H258.74V76.2314H262.745V77.228ZM271.422 73.2607H268.452V81.5H267.239V73.2607H264.275V72.2578H271.422V73.2607ZM277.389 79.0879H273.517L272.647 81.5H271.391L274.92 72.2578H275.986L279.522 81.5H278.271L277.389 79.0879ZM273.885 78.085H277.027L275.453 73.7622L273.885 78.085ZM284.156 77.7612H281.985V81.5H280.76V72.2578H283.819C284.86 72.2578 285.66 72.4948 286.219 72.9688C286.782 73.4427 287.063 74.1325 287.063 75.0381C287.063 75.6136 286.906 76.1151 286.593 76.5425C286.284 76.9699 285.853 77.2894 285.298 77.501L287.469 81.4238V81.5H286.162L284.156 77.7612ZM281.985 76.7646H283.857C284.463 76.7646 284.943 76.6081 285.298 76.2949C285.658 75.9818 285.838 75.5628 285.838 75.0381C285.838 74.4668 285.667 74.0288 285.324 73.7241C284.985 73.4194 284.494 73.265 283.851 73.2607H281.985V76.7646ZM291.291 76.8979L293.703 72.2578H295.086L291.9 78.0532V81.5H290.681V78.0532L287.495 72.2578H288.891L291.291 76.8979ZM302.228 77.3804C301.182 77.0799 300.421 76.7118 299.942 76.2759C299.468 75.8358 299.231 75.2941 299.231 74.6509C299.231 73.923 299.521 73.3221 300.101 72.8481C300.685 72.37 301.443 72.1309 302.374 72.1309C303.008 72.1309 303.573 72.2536 304.068 72.499C304.568 72.7445 304.953 73.083 305.224 73.5146C305.499 73.9463 305.636 74.4181 305.636 74.9302H304.411C304.411 74.3716 304.233 73.9336 303.878 73.6162C303.522 73.2946 303.021 73.1338 302.374 73.1338C301.773 73.1338 301.303 73.2671 300.964 73.5337C300.63 73.7961 300.463 74.1621 300.463 74.6318C300.463 75.0085 300.622 75.328 300.939 75.5903C301.261 75.8485 301.804 76.0854 302.57 76.3013C303.34 76.5171 303.941 76.7562 304.373 77.0186C304.809 77.2767 305.131 77.5793 305.338 77.9263C305.549 78.2733 305.655 78.6816 305.655 79.1514C305.655 79.9004 305.363 80.5013 304.779 80.9541C304.195 81.4027 303.415 81.627 302.437 81.627C301.802 81.627 301.21 81.5063 300.66 81.2651C300.11 81.0197 299.684 80.6854 299.384 80.2622C299.088 79.839 298.939 79.3587 298.939 78.8213H300.165C300.165 79.3799 300.37 79.8221 300.78 80.1479C301.195 80.4696 301.747 80.6304 302.437 80.6304C303.08 80.6304 303.573 80.4992 303.916 80.2368C304.259 79.9744 304.43 79.6169 304.43 79.1641C304.43 78.7113 304.271 78.3621 303.954 78.1167C303.637 77.867 303.061 77.6216 302.228 77.3804ZM314.021 78.5674C313.907 79.5449 313.545 80.3003 312.936 80.8335C312.331 81.3625 311.525 81.627 310.518 81.627C309.426 81.627 308.55 81.2355 307.89 80.4526C307.234 79.6698 306.906 78.6224 306.906 77.3105V76.4219C306.906 75.5628 307.058 74.8075 307.363 74.1558C307.672 73.5041 308.108 73.0047 308.67 72.6577C309.233 72.3065 309.885 72.1309 310.625 72.1309C311.607 72.1309 312.394 72.4059 312.987 72.9561C313.579 73.502 313.924 74.2594 314.021 75.2285H312.796C312.691 74.4922 312.46 73.959 312.104 73.6289C311.753 73.2988 311.26 73.1338 310.625 73.1338C309.847 73.1338 309.235 73.4215 308.791 73.9971C308.351 74.5726 308.131 75.3914 308.131 76.4536V77.3486C308.131 78.3516 308.34 79.1493 308.759 79.7417C309.178 80.3341 309.764 80.6304 310.518 80.6304C311.195 80.6304 311.713 80.478 312.073 80.1733C312.437 79.8644 312.678 79.3291 312.796 78.5674H314.021ZM316.999 81.5H315.78V72.2578H316.999V81.5ZM324.457 77.228H320.452V80.5034H325.104V81.5H319.233V72.2578H325.041V73.2607H320.452V76.2314H324.457V77.228ZM333.725 81.5H332.5L327.847 74.3779V81.5H326.622V72.2578H327.847L332.512 79.4116V72.2578H333.725V81.5ZM342.084 73.2607H339.114V81.5H337.901V73.2607H334.937V72.2578H342.084V73.2607ZM344.763 81.5H343.544V72.2578H344.763V81.5ZM352.095 77.4185H348.216V81.5H346.998V72.2578H352.723V73.2607H348.216V76.4219H352.095V77.4185ZM355.491 81.5H354.272V72.2578H355.491V81.5ZM364.523 78.5674C364.409 79.5449 364.047 80.3003 363.438 80.8335C362.833 81.3625 362.027 81.627 361.02 81.627C359.928 81.627 359.052 81.2355 358.392 80.4526C357.736 79.6698 357.408 78.6224 357.408 77.3105V76.4219C357.408 75.5628 357.56 74.8075 357.865 74.1558C358.174 73.5041 358.61 73.0047 359.172 72.6577C359.735 72.3065 360.387 72.1309 361.127 72.1309C362.109 72.1309 362.896 72.4059 363.489 72.9561C364.081 73.502 364.426 74.2594 364.523 75.2285H363.298C363.193 74.4922 362.962 73.959 362.606 73.6289C362.255 73.2988 361.762 73.1338 361.127 73.1338C360.349 73.1338 359.737 73.4215 359.293 73.9971C358.853 74.5726 358.633 75.3914 358.633 76.4536V77.3486C358.633 78.3516 358.842 79.1493 359.261 79.7417C359.68 80.3341 360.266 80.6304 361.02 80.6304C361.697 80.6304 362.215 80.478 362.575 80.1733C362.939 79.8644 363.18 79.3291 363.298 78.5674H364.523ZM370.725 81.5H369.506V72.2578H370.725V81.5ZM380.062 81.5H378.837L374.185 74.3779V81.5H372.959V72.2578H374.185L378.85 79.4116V72.2578H380.062V81.5ZM384.95 77.3804C383.905 77.0799 383.143 76.7118 382.665 76.2759C382.191 75.8358 381.954 75.2941 381.954 74.6509C381.954 73.923 382.244 73.3221 382.824 72.8481C383.408 72.37 384.165 72.1309 385.096 72.1309C385.731 72.1309 386.296 72.2536 386.791 72.499C387.29 72.7445 387.675 73.083 387.946 73.5146C388.221 73.9463 388.359 74.4181 388.359 74.9302H387.134C387.134 74.3716 386.956 73.9336 386.601 73.6162C386.245 73.2946 385.744 73.1338 385.096 73.1338C384.495 73.1338 384.026 73.2671 383.687 73.5337C383.353 73.7961 383.186 74.1621 383.186 74.6318C383.186 75.0085 383.344 75.328 383.662 75.5903C383.983 75.8485 384.527 76.0854 385.293 76.3013C386.063 76.5171 386.664 76.7562 387.096 77.0186C387.532 77.2767 387.853 77.5793 388.061 77.9263C388.272 78.2733 388.378 78.6816 388.378 79.1514C388.378 79.9004 388.086 80.5013 387.502 80.9541C386.918 81.4027 386.137 81.627 385.16 81.627C384.525 81.627 383.932 81.5063 383.382 81.2651C382.832 81.0197 382.407 80.6854 382.106 80.2622C381.81 79.839 381.662 79.3587 381.662 78.8213H382.887C382.887 79.3799 383.092 79.8221 383.503 80.1479C383.918 80.4696 384.47 80.6304 385.16 80.6304C385.803 80.6304 386.296 80.4992 386.639 80.2368C386.981 79.9744 387.153 79.6169 387.153 79.1641C387.153 78.7113 386.994 78.3621 386.677 78.1167C386.359 77.867 385.784 77.6216 384.95 77.3804ZM396.332 73.2607H393.361V81.5H392.148V73.2607H389.184V72.2578H396.332V73.2607ZM399.01 81.5H397.792V72.2578H399.01V81.5ZM407.44 73.2607H404.469V81.5H403.257V73.2607H400.292V72.2578H407.44V73.2607ZM415.317 72.2578V78.542C415.313 79.4137 415.038 80.1268 414.492 80.6812C413.951 81.2355 413.214 81.5465 412.283 81.6143L411.959 81.627C410.948 81.627 410.142 81.354 409.541 80.8081C408.94 80.2622 408.635 79.5111 408.627 78.5547V72.2578H409.833V78.5166C409.833 79.1852 410.017 79.7057 410.385 80.0781C410.753 80.4463 411.278 80.6304 411.959 80.6304C412.649 80.6304 413.176 80.4463 413.54 80.0781C413.908 79.71 414.092 79.1916 414.092 78.5229V72.2578H415.317ZM423.626 73.2607H420.656V81.5H419.443V73.2607H416.479V72.2578H423.626V73.2607ZM426.305 81.5H425.086V72.2578H426.305V81.5ZM435.649 77.1772C435.649 78.0828 435.497 78.8742 435.192 79.5513C434.887 80.2241 434.456 80.7383 433.897 81.0938C433.338 81.4492 432.687 81.627 431.942 81.627C431.214 81.627 430.569 81.4492 430.006 81.0938C429.443 80.734 429.005 80.2241 428.692 79.564C428.383 78.8996 428.224 78.1315 428.216 77.2598V76.5933C428.216 75.7046 428.37 74.9196 428.679 74.2383C428.988 73.557 429.424 73.0365 429.987 72.6768C430.554 72.3128 431.201 72.1309 431.929 72.1309C432.67 72.1309 433.321 72.3107 433.884 72.6704C434.451 73.0259 434.887 73.5443 435.192 74.2256C435.497 74.9027 435.649 75.6919 435.649 76.5933V77.1772ZM434.437 76.5806C434.437 75.4845 434.216 74.6445 433.776 74.0605C433.336 73.4723 432.721 73.1782 431.929 73.1782C431.159 73.1782 430.552 73.4723 430.107 74.0605C429.667 74.6445 429.441 75.457 429.428 76.498V77.1772C429.428 78.2394 429.65 79.0752 430.095 79.6846C430.543 80.2897 431.159 80.5923 431.942 80.5923C432.729 80.5923 433.338 80.3066 433.77 79.7354C434.202 79.1598 434.424 78.3368 434.437 77.2661V76.5806ZM444.58 81.5H443.355L438.702 74.3779V81.5H437.477V72.2578H438.702L443.368 79.4116V72.2578H444.58V81.5Z" fill="white"/>
</svg>
