<svg width="448" height="400" viewBox="0 0 448 400" fill="none" xmlns="http://www.w3.org/2000/svg">
<g clip-path="url(#clip0_2626:60529)">
<rect width="448" height="400" rx="2" fill="#E5EEF5"/>
<path d="M40.3123 234.765C40.3123 177.124 124.578 130.397 228.525 130.397C332.473 130.397 416.739 177.124 416.739 234.765" stroke="#3E4A5B" stroke-width="2" stroke-miterlimit="10"/>
<path d="M287.706 170.582H134.584C104.299 119.388 104.299 68.194 134.584 17H287.706C245.36 68.194 245.36 119.388 287.706 170.582Z" fill="#C8DBEA"/>
<path d="M242.741 35.2832H156.458V46.2533H242.741V35.2832Z" fill="#FF636D"/>
<path d="M242.742 71.2412H128.508V74.8979H242.742V71.2412Z" fill="white"/>
<path d="M242.742 90.1338H128.508V93.7905H242.742V90.1338Z" fill="white"/>
<path d="M242.742 109.027H128.508V112.684H242.742V109.027Z" fill="white"/>
<path d="M193.445 136.976C194.332 137.383 195.399 136.776 195.922 135.949C197.912 132.804 194.247 128.747 195.041 125.108C195.677 122.191 198.98 120.461 199.656 117.554C200.312 114.729 198.29 111.545 199.657 108.989C200.728 106.987 203.403 106.46 205.641 106.811C207.879 107.161 210.004 108.148 212.265 108.287C215.278 108.471 218.151 107.14 221.097 106.481C224.043 105.822 227.637 106.08 229.371 108.559C231.596 111.742 229.339 116.175 230.114 119.984C230.729 123.009 233.254 125.514 233.308 128.6C233.327 129.697 230.452 128.814 230.604 129.9C230.757 130.987 229.398 130.03 230.485 129.901C230.928 129.792 231.326 129.544 231.62 129.193C231.914 128.843 232.089 128.407 232.12 127.95C232.249 127.045 233.944 126.744 233.925 125.83C233.879 123.688 237.74 125.132 238.376 123.087C239.838 118.318 239.538 113.181 237.531 108.617C236.665 106.668 235.486 104.824 235.068 102.732C234.501 99.8921 235.393 96.8432 234.457 94.1028C233.197 90.4098 229.025 88.5271 225.152 88.1448C221.279 87.7624 217.343 88.4469 213.492 87.883C210.042 87.378 206.702 85.8783 203.222 86.0956C199.047 86.3563 195.414 89.0546 192.519 92.0843C189.625 95.114 187.17 98.5986 183.883 101.194C182.877 101.889 181.948 102.69 181.114 103.585C179.439 105.632 179.27 108.547 179.735 111.152C180.201 113.758 181.214 116.243 181.642 118.855C182.045 121.31 181.92 123.818 182.094 126.3C182.267 128.781 182.78 131.338 184.271 133.327C184.867 134.139 185.641 134.804 186.532 135.272C187.424 135.739 188.41 135.996 189.416 136.023C190.112 136.039 190.701 135.411 191.404 135.575C192.283 135.78 192.665 136.617 193.445 136.976Z" fill="#3E4A5B"/>
<path d="M163.645 317.321L166.228 333.232L171.393 326.201L168.441 315.471L163.645 317.321Z" fill="#EAC7C7"/>
<path d="M166.965 197.061L162.899 207.809C162.899 207.809 158.849 262.556 158.849 266.626C158.849 270.697 161.8 322.871 162.907 325.091C162.907 325.091 167.703 318.061 173.975 319.171C180.247 320.281 177.664 300.669 177.664 300.669L183.567 252.195L182.46 227.773L166.965 197.061Z" fill="#FCFCFE"/>
<path opacity="0.1" d="M166.965 197.061L162.899 207.809C162.899 207.809 158.849 262.556 158.849 266.626C158.849 270.697 161.8 322.871 162.907 325.091C162.907 325.091 167.703 318.061 173.975 319.171C180.247 320.281 177.664 300.669 177.664 300.669L183.567 252.195L182.46 227.773L166.965 197.061Z" fill="black"/>
<path d="M192.052 137.856C192.052 137.856 204.226 168.939 197.217 174.859C190.207 180.78 236.323 164.868 236.323 164.868L235.216 160.798C235.216 160.798 220.09 154.878 227.468 137.856C234.847 120.835 192.052 137.856 192.052 137.856Z" fill="#EAC7C7"/>
<path opacity="0.1" d="M192.052 137.856C192.052 137.856 204.226 168.939 197.217 174.859C190.207 180.78 236.323 164.868 236.323 164.868L235.216 160.798C235.216 160.798 220.09 154.878 227.468 137.856C234.847 120.835 192.052 137.856 192.052 137.856Z" fill="black"/>
<path d="M178.093 311.906C178.093 311.906 162.538 325.461 162.907 327.311C163.276 329.161 170.655 447.941 170.655 447.941L174.713 524.907C174.713 524.907 169.548 543.039 172.13 547.109C174.713 551.18 168.441 552.29 168.441 552.29C168.441 552.29 195.003 576.342 206.071 565.981L216.401 431.66L244.808 529.348C244.808 529.348 249.604 581.152 255.138 581.152C260.671 581.152 283.176 582.262 282.807 579.302C282.438 576.342 283.914 553.77 281.331 540.449C278.749 527.128 261.409 421.669 261.409 421.669C261.409 421.669 259.919 331.261 263.8 322.81C267.681 314.36 261.778 305.479 261.778 305.479L235.954 295.488L204.964 299.189L178.093 311.906Z" fill="#3E4A5B"/>
<path d="M209.391 150.437C223.654 150.437 235.216 138.84 235.216 124.535C235.216 110.23 223.654 98.6328 209.391 98.6328C195.129 98.6328 183.567 110.23 183.567 124.535C183.567 138.84 195.129 150.437 209.391 150.437Z" fill="#EAC7C7"/>
<path d="M272.108 180.409C270.832 176.788 268.682 173.542 265.849 170.959C263.017 168.376 259.59 166.537 255.876 165.608C248.434 163.73 241.155 161.255 234.109 158.207C234.109 158.207 207.916 170.788 202.751 170.788C197.586 170.788 197.586 167.458 197.586 167.458C197.586 167.458 184.305 181.519 177.295 182.999C170.286 184.479 159.956 201.871 163.645 211.491C166.151 217.659 169.779 223.306 174.344 228.143C174.344 228.143 172.868 279.947 177.664 289.568C177.664 289.568 165.859 312.14 176.926 313.62C187.994 315.1 230.42 309.92 237.798 315.1C245.177 320.28 258.827 313.99 260.671 321.02C262.516 328.051 266.574 329.531 266.574 329.531C266.574 329.531 272.846 319.54 269.157 313.62C265.467 307.699 272.108 180.409 272.108 180.409Z" fill="#FCFCFE"/>
<path d="M244.808 319.541L238.905 323.241C238.905 323.241 245.177 345.073 247.759 345.813C250.342 346.553 256.421 327.146 256.421 327.146L244.808 319.541Z" fill="#EAC7C7"/>
<path d="M189.018 134.385C189.905 134.793 190.972 134.185 191.494 133.359C193.485 130.213 189.82 126.157 190.614 122.517C191.249 119.601 194.553 117.87 195.229 114.963C195.885 112.138 193.862 108.954 195.229 106.398C196.3 104.396 198.975 103.869 201.214 104.22C203.452 104.571 205.577 105.557 207.838 105.696C210.851 105.88 213.723 104.55 216.67 103.89C219.616 103.231 223.21 103.489 224.943 105.968C227.169 109.151 224.911 113.584 225.686 117.393C226.302 120.418 233.313 122.541 233.949 120.496C235.411 115.728 235.111 110.59 233.103 106.026C232.238 104.077 231.058 102.233 230.641 100.141C230.073 97.3013 230.966 94.2524 230.03 91.512C228.77 87.8189 224.598 85.9363 220.725 85.554C216.851 85.1716 212.916 85.856 209.065 85.2922C205.615 84.7871 202.275 83.2875 198.795 83.5048C194.62 83.7655 190.986 86.4638 188.092 89.4935C185.198 92.5231 182.743 96.0077 179.456 98.6032C178.449 99.2978 177.521 100.099 176.686 100.994C175.012 103.041 174.842 105.956 175.308 108.561C175.774 111.167 176.787 113.653 177.215 116.265C177.617 118.719 177.493 121.227 177.666 123.709C177.84 126.191 178.353 128.748 179.843 130.736C180.44 131.548 181.214 132.214 182.105 132.681C182.997 133.148 183.983 133.405 184.989 133.432C185.685 133.448 186.274 132.82 186.977 132.984C187.856 133.189 188.238 134.026 189.018 134.385Z" fill="#3E4A5B"/>
<path opacity="0.1" d="M257.536 186.884L269.525 180.408C269.525 180.408 298.67 249.974 291.661 269.216C284.651 288.457 257.72 328.051 257.72 328.051C257.72 328.051 236.323 323.61 238.536 319.17C240.75 314.729 255.138 286.237 256.244 282.537C257.351 278.836 264.729 254.784 261.409 252.194C258.089 249.604 251.633 189.474 251.633 189.474L257.536 186.884Z" fill="black"/>
<path d="M257.351 176.338L272.108 180.408C272.108 180.408 301.253 249.974 294.243 269.216C287.234 288.457 260.303 328.051 260.303 328.051C260.303 328.051 238.905 323.61 241.119 319.17C243.332 314.729 257.72 286.237 258.827 282.537C259.934 278.836 267.312 254.784 263.992 252.194C260.671 249.604 244.808 185.589 244.808 185.589L257.351 176.338Z" fill="#FCFCFE"/>
<path d="M416.739 234.765C416.739 295.197 332.473 344.187 228.526 344.187C124.578 344.187 40.3123 295.197 40.3123 234.765" stroke="#3E4A5B" stroke-width="2" stroke-miterlimit="10"/>
<path d="M382.504 345.739C340.433 368.497 285.539 382.269 225.49 382.269C167.916 382.269 115.08 369.609 73.7419 348.507" stroke="#3E4A5B" stroke-width="2" stroke-miterlimit="10"/>
<path d="M322.518 102.146C402.582 123.253 459.604 169.682 464.906 224.364" stroke="#3E4A5B" stroke-width="2" stroke-miterlimit="10"/>
<path d="M-2.77612 188.822C10.7143 163.952 35.3589 142.066 67.6485 125.252" stroke="#3E4A5B" stroke-width="2" stroke-miterlimit="10"/>
<path d="M162.744 455.038H315.865C346.15 403.844 346.15 352.65 315.865 301.456H162.744C205.089 352.65 205.089 403.844 162.744 455.038Z" fill="#C8DBEA"/>
<path d="M299.691 330.71H213.408V341.68H299.691V330.71Z" fill="#FF636D"/>
<path d="M320.958 363.62H206.725V367.277H320.958V363.62Z" fill="white"/>
<path d="M320.958 382.513H206.725V386.169H320.958V382.513Z" fill="white"/>
<path d="M97.8354 350.793H-55.2861C-85.5713 299.599 -85.5713 248.405 -55.2861 197.211H97.8354C55.4896 248.405 55.4896 299.599 97.8354 350.793Z" fill="#C8DBEA"/>
<path d="M48.0103 215.495H-38.2725V226.465H48.0103V215.495Z" fill="#FF636D"/>
<path d="M57.1246 245.967H-57.1089V249.623H57.1246V245.967Z" fill="white"/>
<path d="M57.1246 264.86H-57.1089V268.517H57.1246V264.86Z" fill="white"/>
<path d="M57.1246 283.753H-57.1089V287.41H57.1246V283.753Z" fill="white"/>
<path d="M57.1246 302.646H-57.1089V306.303H57.1246V302.646Z" fill="white"/>
<path d="M348.165 280.048H501.286C531.571 228.854 531.571 177.66 501.286 126.466H348.165C390.51 177.66 390.51 228.854 348.165 280.048Z" fill="#C8DBEA"/>
<path d="M483.289 141.702H397.006V152.672H483.289V141.702Z" fill="#FF636D"/>
<path d="M502.126 172.175H387.892V175.831H502.126V172.175Z" fill="white"/>
</g>
<defs>
<clipPath id="clip0_2626:60529">
<rect width="448" height="400" rx="2" fill="white"/>
</clipPath>
</defs>
</svg>
