<svg width="448" height="400" viewBox="0 0 448 400" fill="none" xmlns="http://www.w3.org/2000/svg">
<g clip-path="url(#clip0_2626:54655)">
<rect width="448" height="400" rx="2" fill="#E5EEF5"/>
<g clip-path="url(#clip1_2626:54655)">
<path d="M302.642 411.16C283.047 411.212 263.471 409.931 244.05 407.326C243.416 407.245 242.773 407.155 242.135 407.059C237.368 406.382 232.598 405.609 227.962 404.759C207.096 400.949 187.419 395.383 169.478 388.217C109.775 364.369 72.2372 369.444 51.2603 377.901C28.5588 387.054 19.8322 402.028 19.7467 402.179L19 401.755C19.0866 401.603 27.9257 386.405 50.8752 377.132C64.3309 371.695 79.9407 369.319 97.2746 370.067C118.912 371.003 143.312 376.841 169.797 387.421C187.685 394.566 207.307 400.116 228.116 403.916C232.742 404.763 237.5 405.535 242.259 406.211C242.894 406.305 243.531 406.395 244.163 406.476C296.807 413.707 347.593 409.346 380.928 404.415C408.405 400.351 426.087 395.598 426.263 395.551L426.488 396.378C426.312 396.426 408.585 401.191 381.054 405.263C355.094 409.124 328.888 411.095 302.642 411.16Z" fill="#3E4A5B"/>
<path d="M302.701 165.084C287.565 165.085 272.83 164.377 258.614 162.963C225.946 159.715 195.956 152.705 169.478 142.128C109.775 118.28 72.2372 123.355 51.2603 131.813C28.5588 140.965 19.8322 155.94 19.7467 156.09L19 155.667C19.0866 155.514 27.9257 140.317 50.8752 131.043C64.3311 125.606 79.9407 123.229 97.2746 123.979C118.912 124.914 143.312 130.753 169.797 141.332C229.594 165.218 296.134 166.156 341.425 162.74C390.514 159.036 425.911 149.558 426.263 149.462L426.488 150.29C426.135 150.385 390.675 159.883 341.508 163.594C328.344 164.588 315.381 165.084 302.701 165.084Z" fill="#3E4A5B"/>
<path d="M300.477 102.146C300.477 102.146 283.598 96.1256 272.746 120.206C261.895 144.285 245.016 170.773 245.016 170.773L254.661 173.181C254.661 173.181 257.072 156.325 263.101 153.917L260.69 175.589C260.69 175.589 333.031 200.873 365.584 173.181L364.378 164.753C364.378 164.753 369.201 165.957 369.201 173.181L372.818 169.569C372.818 169.569 369.201 162.345 358.35 152.713C351.228 146.391 348.78 134.364 347.939 126.844C347.309 120.565 344.793 114.623 340.722 109.796C333.511 101.451 320.371 92.5805 300.477 102.146Z" fill="#343E4C"/>
<path d="M402.925 238.405C402.925 238.405 434.689 265.46 439.36 281.32C444.031 297.179 421.61 299.045 421.61 299.045L373.03 303.71C373.03 303.71 372.096 326.1 363.687 328.899C355.279 331.697 361.981 291.873 361.981 291.873L409.465 278.521L387.977 256.131L402.925 238.405Z" fill="#EAC7C7"/>
<path d="M254.382 266.393L250.645 315.837L230.092 399.8C230.092 399.8 211.407 438.05 227.289 438.983C243.171 439.916 242.237 402.599 242.237 402.599L272.132 323.301L274.935 269.191L254.382 266.393Z" fill="#EAC7C7"/>
<path d="M306.699 179.63C323.725 179.63 337.528 165.847 337.528 148.844C337.528 131.841 323.725 118.058 306.699 118.058C289.672 118.058 275.869 131.841 275.869 148.844C275.869 165.847 289.672 179.63 306.699 179.63Z" fill="#EAC7C7"/>
<path d="M292.686 163.771C292.686 163.771 303.896 203.887 286.146 214.149C268.396 224.411 330.989 231.875 347.805 201.088C347.805 201.088 317.91 190.826 326.318 163.771H292.686Z" fill="#EAC7C7"/>
<path d="M271.198 218.813L265.593 216.947C265.593 216.947 254.382 221.612 254.382 230.008C254.382 238.404 252.514 271.99 252.514 271.99L277.738 274.788L271.198 218.813Z" fill="#FF636D"/>
<path d="M380.991 404.839C346.503 409.941 296.238 414.061 244.109 406.901C244.104 406.386 244.104 405.885 244.104 405.396C244.104 402.485 244.216 399.607 244.439 396.761C247.11 361.726 265.184 332.517 272.178 322.395C272.53 321.88 272.856 321.417 273.148 321.006C274.278 319.424 274.934 318.588 274.934 318.588C274.934 318.588 329.12 317.705 357.146 328.899C358.498 329.465 359.734 330.273 360.796 331.282C371.245 340.911 377.385 372.174 380.991 404.839Z" fill="#343E4C"/>
<path d="M360.885 205.752C360.885 205.752 373.03 199.222 385.175 213.216L409.465 241.203L390.78 261.728L355.279 240.271L360.885 205.752Z" fill="#FF636D"/>
<path d="M273.385 149.039C284.299 141.152 293.134 132.067 298.978 121.26C298.978 121.26 319.007 143.484 331.247 144.595C343.487 145.706 332.359 117.927 332.359 117.927L310.105 112.371L288.963 114.593L272.272 125.705L273.385 149.039Z" fill="#343E4C"/>
<path d="M343.134 199.222C343.134 199.222 330.06 219.864 290.82 210.009L268.552 216.133L265.593 216.947C265.593 216.947 268.395 272.922 275.869 283.185C283.343 293.447 281.475 299.044 279.606 299.977C277.738 300.91 273.067 299.044 275.869 303.709C278.672 308.373 282.409 305.575 278.672 308.373C274.935 311.172 273.067 321.434 273.067 321.434L360.884 332.629C360.884 332.629 358.082 296.246 365.555 277.587C373.029 258.929 374.898 251.465 374.898 251.465L369.292 204.819L343.134 199.222Z" fill="#FF636D"/>
<path d="M186.933 169.626H64.4102V322.565H186.933V169.626Z" fill="#C8DBEA"/>
<path d="M99.1982 182.517H72.9434V199.995H99.1982V182.517Z" fill="white"/>
<path d="M174.681 216.6H73.1621V222.717H174.681V216.6Z" fill="white"/>
<path d="M174.681 232.768H73.1621V238.885H174.681V232.768Z" fill="white"/>
<path d="M174.681 248.936H73.1621V255.053H174.681V248.936Z" fill="white"/>
<path d="M174.681 265.104H73.1621V271.221H174.681V265.104Z" fill="white"/>
<path d="M174.681 281.271H73.1621V287.388H174.681V281.271Z" fill="white"/>
<path d="M211 322.346C210.994 328.117 208.903 333.693 205.111 338.048C201.319 342.404 196.08 345.246 190.357 346.053C184.635 346.861 178.812 345.579 173.96 342.443C169.108 339.307 165.553 334.528 163.946 328.984C162.34 323.44 162.791 317.503 165.217 312.264C167.643 307.026 171.88 302.838 177.151 300.469C182.421 298.1 188.37 297.71 193.905 299.371C199.441 301.031 204.19 304.631 207.28 309.508C209.711 313.35 211 317.801 211 322.346Z" fill="#FF636D"/>
<path d="M207.281 309.508L183.59 333.162C182.101 330.86 173.806 320.162 173.806 320.162C174.869 319.089 176.003 318.089 177.201 317.168L184.08 326.327L204.506 305.93C205.542 307.032 206.471 308.231 207.281 309.508Z" fill="white"/>
</g>
</g>
<defs>
<clipPath id="clip0_2626:54655">
<rect width="448" height="400" rx="2" fill="white"/>
</clipPath>
<clipPath id="clip1_2626:54655">
<rect width="421" height="341" fill="white" transform="translate(19 98)"/>
</clipPath>
</defs>
</svg>
