<svg width="448" height="400" viewBox="0 0 448 400" fill="none" xmlns="http://www.w3.org/2000/svg">
<g clip-path="url(#clip0_2626:53995)">
<rect width="448" height="400" rx="2" fill="#E5EEF5"/>
<g clip-path="url(#clip1_2626:53995)">
<path d="M202.201 446.941L170.315 430.326L144.449 416.844L123.818 406.094L97.9508 392.616L13.4428 348.578L194.138 131.884L207.422 115.957L224.236 95.7952L237.521 79.8607L253.504 60.6967L268.243 77.9383L280.499 92.2757L296.006 110.414L308.253 124.746L446.137 286.041L304.118 379.715L278.829 396.396L258.663 409.697L233.373 426.381L202.201 446.941Z" fill="#C8DBEA"/>
<path d="M182.555 312.789L175.669 435.141L182.555 435.231L188.149 311.07L182.555 312.789Z" fill="#343E4C"/>
<path d="M157.163 374.779H71.9512V393.253H157.163V374.779Z" fill="#FF636D"/>
<path d="M162.758 391.101V402.7H74.7356C71.6198 400.461 68.5412 398.155 65.5 395.783V391.101H162.758Z" fill="#343E4C"/>
<path d="M180.334 364.701C180.093 365.813 179.779 366.913 179.447 368.009C178.471 371.175 177.296 374.298 177.068 377.589C176.762 381.937 177.928 386.994 174.916 390.152C174.141 390.968 173.13 391.578 172.437 392.45C172.33 392.587 172.232 392.73 172.144 392.88C171.524 393.902 171.451 395.148 171.443 396.317C171.45 398.809 171.612 401.298 171.929 403.771C172.949 412.277 174.963 420.801 172.316 428.831C171.837 430.223 171.278 431.587 170.642 432.916C169.351 435.752 167.944 438.549 167.522 441.62C167.212 443.897 167.307 446.243 167.29 448.559C165.93 448.126 164.571 447.685 163.214 447.236C155.017 444.529 146.912 441.522 138.899 438.213C138.92 438.097 138.942 437.977 138.959 437.861C139.574 434.038 138.731 430.128 137.707 426.399C135.555 418.498 132.508 410.675 130.705 402.718C129.978 399.61 129.502 396.45 129.28 393.266C129.228 392.553 129.198 391.836 129.194 391.118C129.172 390.182 129.194 389.245 129.233 388.3C129.323 386.414 129.405 384.176 127.894 383.028C127.064 382.405 125.966 382.298 124.998 381.92C123.13 381.194 121.852 379.51 120.371 378.161C119.665 377.477 118.803 376.975 117.859 376.698C116.915 376.421 115.918 376.377 114.953 376.571C105.279 378.784 98.169 386.977 89.1658 391.118C88.8172 391.281 88.4686 391.436 88.1157 391.582C86.9511 392.008 85.8427 392.573 84.8149 393.266C84.0926 393.767 83.5688 394.504 83.3344 395.35C83.1063 396.261 83.3043 397.215 83.4162 398.151C83.5973 399.674 83.5319 401.216 83.2225 402.718C83.1058 403.3 82.952 403.874 82.762 404.437C82.4177 405.455 81.9572 406.451 81.5183 407.444C79.223 405.903 76.9607 404.328 74.7314 402.718C71.6156 400.478 68.5371 398.173 65.4958 395.801L63.6496 394.319C55.6907 388.097 48.2339 381.261 41.3481 373.873C42.2648 371.295 43.5903 368.898 44.2273 366.256C44.5888 364.739 44.7222 363.163 45.2214 361.689C45.7971 360.161 46.5978 358.728 47.597 357.436C51.2566 352.341 55.7252 347.877 60.8264 344.221C66.1586 340.406 72.3171 337.347 77.1157 333.016C79.063 331.314 80.7417 329.328 82.095 327.126C82.1767 326.993 82.2542 326.851 82.3231 326.696C82.6976 325.919 82.9571 325.091 83.0934 324.239C83.4377 322.314 83.3861 320.2 83.5582 318.353C89.4038 319.363 95.3631 319.543 101.259 318.886C108.123 318.117 114.837 316.214 121.701 315.475C122.218 315.414 122.738 315.367 123.259 315.324C125.458 315.148 127.662 315.109 129.87 315.135C131.716 315.135 133.562 315.217 135.408 315.277L155.734 315.964C157.985 316.042 160.283 316.128 162.379 316.948C164.867 317.923 166.859 319.865 168.456 322.001C168.658 322.275 168.861 322.55 169.05 322.834C170.364 324.747 171.417 326.826 172.183 329.016C172.265 329.24 172.342 329.446 172.415 329.691C172.609 330.288 172.777 330.889 172.927 331.5C173.044 331.976 173.147 332.453 173.242 332.934C173.715 335.315 173.995 337.746 174.744 340.045C174.795 340.212 174.851 340.38 174.911 340.543C175.811 343.061 177.304 345.316 178.432 347.735C179.245 349.486 179.865 351.32 180.282 353.204C181.125 356.988 181.143 360.909 180.334 364.701Z" fill="#35323E"/>
<path d="M118.551 210.952C116.735 209.508 114.101 210.565 111.975 211.497C110.192 212.283 108.357 212.945 106.483 213.478C106.1 213.625 105.684 213.668 105.278 213.602C104.418 213.396 104.056 212.378 103.415 211.759C102.3 210.69 100.476 210.943 99.0381 211.523C97.6007 212.103 96.1805 212.941 94.6398 212.812C92.9958 212.683 91.567 211.471 89.9058 211.433C86.9793 211.364 84.522 214.964 81.7547 214.011C80.0677 213.431 78.7422 211.239 77.081 211.862C75.7899 212.352 75.6737 214.135 74.8947 215.299C73.978 216.657 72.192 217.039 70.6642 217.641C65.8485 219.54 62.6595 224.897 63.2878 230.027C63.6364 232.858 65.0093 235.453 65.9173 238.155C68.6114 246.013 67.6861 254.876 71.0817 262.455C71.5121 262.051 71.7531 261.901 72.1705 261.501C71.0969 263.724 70.8898 266.266 71.5895 268.633C71.9467 269.823 72.5277 270.931 72.9667 272.096C73.4227 273.401 73.7908 274.736 74.0684 276.091L77.8126 292.58C79.2758 299.024 80.7434 305.469 80.9973 312.068C81.1554 316.359 80.8262 320.653 80.016 324.87C86.7986 323.749 93.0044 320.746 99.8773 320.785C102.399 320.785 104.9 321.214 107.4 321.558C114.69 322.576 122.044 323.075 129.405 323.049C130.549 323.114 131.696 322.953 132.779 322.576C133.725 322.172 134.5 321.455 135.395 320.935C137.147 319.904 139.269 319.646 141.287 319.646C150.492 319.479 159.362 322.843 168.507 324.028C172.118 316.463 172.333 307.398 169.562 299.488C168.74 297.138 167.634 294.848 167.307 292.378C167.175 290.859 167.141 289.334 167.203 287.811C167.189 283.912 166.485 280.046 165.125 276.392C164.591 274.961 163.95 273.505 164.006 271.98C164.062 270.454 164.815 269.032 165.555 267.683C167.057 264.934 168.568 262.158 170.689 259.838C172.863 257.441 175.583 255.615 178.272 253.824L184.913 249.373C184.005 243.646 182.834 237.614 180.403 232.347C177.971 227.08 174.335 222.238 169.415 219.157C167.757 218.161 166.021 217.299 164.225 216.58C161.712 215.523 159.095 214.591 156.371 214.432C153.273 214.255 150.221 215.085 147.161 215.6C137.53 217.22 126.194 217.022 118.551 210.952Z" fill="#FF636D"/>
<path d="M191.162 310.332L188.003 314.315L182.047 321.82L175.161 330.494L173.237 332.917H169.506L77.1114 333.025L19.249 333.089H16.6669C16.3226 332.015 16.0041 330.941 15.7114 329.824C15.2811 328.226 14.9038 326.607 14.5796 324.969C14.5107 324.656 14.4505 324.342 14.3945 324.024L35.3877 310.323L43.2805 310.28L67.4239 310.143L80.9072 310.066H83.3689H84.9139L93.8999 310.018L162.388 309.627L165.891 309.606H167.41L171.434 309.584L186.407 309.498L189.281 308.407L189.492 308.631L191.162 310.332Z" fill="#343E4C"/>
<path d="M189.871 308.184L189.513 308.613L187.164 311.376L182.326 317.077L172.183 329.016L82.3228 326.726L14.5621 325.008C14.4932 324.694 14.433 324.38 14.377 324.062C13.3484 318.549 12.8941 312.944 13.0214 307.337L20.5355 303.496L22.257 302.611L35.6542 295.737L47.4117 289.723L78.0794 293.701L84.8706 294.582L87.9434 294.977L92.4407 295.561L92.8194 295.613L163.343 304.742L171.137 305.752L175.712 306.345L189.81 308.175L189.871 308.184Z" fill="#3E4A5B"/>
<path d="M175.239 328.806L175.165 330.494L174.735 340.027L172.42 392.441L171.929 403.771L170.638 432.916L169.911 449.379L167.286 448.559C165.926 448.126 164.567 447.685 163.21 447.235L169.506 332.956L169.64 330.559L172.411 329.699L175.239 328.806Z" fill="#343E4C"/>
<path d="M19.4471 328.681L19.2534 333.093L18.9694 339.537C18.1488 337.501 17.3971 335.426 16.7143 333.312L16.6497 333.102C16.3055 332.027 15.987 330.953 15.6943 329.836L19.4471 328.681Z" fill="#343E4C"/>
<path d="M131.987 263.722C142.921 263.722 151.784 251.797 151.784 237.086C151.784 222.375 142.921 210.449 131.987 210.449C121.054 210.449 112.19 222.375 112.19 237.086C112.19 251.797 121.054 263.722 131.987 263.722Z" fill="#E8BFBF"/>
<path opacity="0.1" d="M131.987 263.722C142.921 263.722 151.784 251.797 151.784 237.086C151.784 222.375 142.921 210.449 131.987 210.449C121.054 210.449 112.19 222.375 112.19 237.086C112.19 251.797 121.054 263.722 131.987 263.722Z" fill="#3E4A5B"/>
<path d="M134.784 248.47C149.996 248.47 162.328 236.16 162.328 220.974C162.328 205.789 149.996 193.479 134.784 193.479C119.573 193.479 107.241 205.789 107.241 220.974C107.241 236.16 119.573 248.47 134.784 248.47Z" fill="#E8BFBF"/>
<path d="M135.331 178.596C133.65 178.73 131.98 178.984 130.335 179.357C125.979 180.414 122.214 182.759 118.547 185.062C116.903 186.097 115.212 187.176 114.192 188.697C112.358 191.425 113.068 194.896 112.04 197.925C111.506 199.48 110.525 200.877 109.694 202.324C107.409 206.294 106.213 210.655 105.038 214.972C104.797 215.866 104.728 217.078 105.705 217.421C106.267 217.538 106.853 217.472 107.375 217.232C110.46 216.214 114.381 215.922 116.671 217.988C118.96 220.055 118.766 223.72 121.491 225.292C124.611 227.109 129.483 224.914 132.314 227.058C133.528 227.977 133.967 229.451 134.961 230.559C137.276 233.137 141.731 233.012 145.436 232.492C147.562 232.192 150.17 231.99 151.461 233.481C152.081 234.185 152.257 235.152 152.976 235.788C154.267 236.939 156.63 236.355 157.891 235.173C159.152 233.992 159.754 232.394 160.804 231.066C162.849 228.488 166.442 227.084 168.551 224.536C170.315 222.388 170.849 219.698 171.331 217.103L173.126 207.484C173.853 203.583 174.516 199.321 172.317 195.884C171.533 194.647 170.41 193.582 169.734 192.301C169.283 191.442 169.029 190.535 168.504 189.724C167.881 188.878 167.137 188.128 166.296 187.498L162.048 183.988C160.596 182.719 159.043 181.57 157.404 180.551C151.341 177.024 142.26 177.952 135.331 178.596Z" fill="#343E4C"/>
<path d="M44.6105 249.424C43.5905 250.506 42.648 251.675 41.5549 252.689C40.5933 253.543 39.5877 254.346 38.5423 255.095C36.8553 256.355 35.2056 257.66 33.5931 259.009C31.9109 260.336 30.3887 261.854 29.0571 263.533C26.759 266.613 25.6702 270.445 23.5183 273.629C21.6161 276.451 18.935 278.681 17.0026 281.482C16.1549 282.66 15.5253 283.98 15.1435 285.379C14.8585 286.733 14.73 288.115 14.7604 289.499C14.7217 291.767 14.6873 294.062 15.1521 296.283C15.6169 298.504 16.6368 300.686 18.3841 302.143C20.0066 303.496 22.1024 304.119 24.1553 304.635C25.214 304.897 26.3587 305.142 27.3658 304.725C28.1027 304.353 28.7423 303.815 29.2336 303.152L34.4711 297.138C37.9742 293.099 41.6151 288.975 46.4223 286.612C47.9286 285.877 49.5166 285.323 51.0272 284.61C57.431 281.529 61.9584 275.223 63.7143 268.349C64.1447 266.669 64.4201 264.955 64.6998 263.24L65.4573 258.54C65.5154 258.305 65.5154 258.058 65.4573 257.823C65.3386 257.558 65.1478 257.332 64.9064 257.17C61.2583 254.229 57.8425 251.011 54.6896 247.546C53.9407 246.721 53.2392 245.591 52.3742 244.9C51.2897 244.041 51.3715 244.105 50.0675 244.9C48.0615 246.168 46.2274 247.688 44.6105 249.424Z" fill="#E8BFBF"/>
<path d="M80.4382 280.701C80.3947 280.601 80.3314 280.511 80.2521 280.436C80.1729 280.362 80.0793 280.304 79.977 280.266C79.8747 280.228 79.7659 280.211 79.657 280.217C79.5481 280.222 79.4414 280.249 79.3433 280.297C79.2452 280.344 79.1577 280.411 79.0861 280.493C79.0146 280.575 78.9604 280.671 78.9268 280.775C78.8932 280.878 78.8809 280.987 78.8906 281.096C78.9004 281.204 78.932 281.31 78.9836 281.405L78.5532 281.616L91.3867 307.875L93.7063 306.745L80.8729 280.469L80.4382 280.701Z" fill="#343E4C"/>
<path opacity="0.04" d="M44.6105 249.424C43.5905 250.506 42.648 251.675 41.5549 252.689C40.5933 253.543 39.5877 254.346 38.5423 255.095C36.8553 256.355 35.2056 257.66 33.5931 259.009C31.9109 260.336 30.3887 261.854 29.0571 263.533C26.759 266.613 25.6702 270.445 23.5183 273.629C21.6161 276.451 18.935 278.681 17.0026 281.482C16.1549 282.66 15.5253 283.98 15.1435 285.379C14.8585 286.733 14.73 288.115 14.7604 289.499C14.7217 291.767 14.6873 294.062 15.1521 296.283C15.6169 298.504 16.6368 300.686 18.3841 302.143C20.0066 303.496 22.1024 304.119 24.1553 304.635C25.214 304.897 26.3587 305.142 27.3658 304.725C28.1027 304.353 28.7423 303.815 29.2336 303.152L34.4711 297.138C37.9742 293.099 41.6151 288.975 46.4223 286.612C47.9286 285.877 49.5166 285.323 51.0272 284.61C57.431 281.529 61.9584 275.223 63.7143 268.349C64.1447 266.669 64.4201 264.955 64.6998 263.24L65.4573 258.54C65.5154 258.305 65.5154 258.058 65.4573 257.823C65.3386 257.558 65.1478 257.332 64.9064 257.17C61.2583 254.229 57.8425 251.011 54.6896 247.546C53.9407 246.721 53.2392 245.591 52.3742 244.9C51.2897 244.041 51.3715 244.105 50.0675 244.9C48.0615 246.168 46.2274 247.688 44.6105 249.424Z" fill="#3E4A5B"/>
<path d="M192.974 297.817C192.931 300.558 192.823 303.381 191.683 305.881C191.192 306.964 190.43 308.029 189.29 308.386C188.6 308.545 187.885 308.571 187.185 308.463C178.742 307.722 170.234 308.396 162.013 310.457C164.208 306.074 162.947 300.82 163.554 295.957C163.722 294.629 164.027 293.323 164.144 291.991C164.574 287.266 162.547 282.677 161.617 278.011C160.81 273.973 160.81 269.815 161.617 265.776C161.776 264.736 162.134 263.737 162.672 262.833C163.302 261.953 164.131 261.234 165.09 260.732C168.576 258.752 172.686 258.524 176.603 258.786C179.241 258.962 184.53 258.713 186.729 260.333C189.135 262.107 189.897 268.066 190.546 270.82C191.519 275.043 192.181 279.332 192.526 283.652C192.948 288.361 193.038 293.091 192.974 297.817Z" fill="#E8BFBF"/>
<path d="M38.8135 307.329L54.3066 317.64L124.025 315.062L77.9765 307.329H38.8135Z" fill="white"/>
<path d="M59.2428 225.404C56.6993 227.643 54.5432 230.281 52.1332 232.665C48.828 235.939 45.0709 238.723 41.3311 241.494C42.672 241.868 43.8926 242.583 44.8733 243.57C45.854 244.556 46.5613 245.78 46.9258 247.122C47.0893 247.753 47.1711 248.411 47.3561 249.029C47.7865 250.494 48.7333 251.757 49.749 252.896C54.1129 257.807 60.2197 261.441 62.7933 267.503C62.8773 267.798 63.0594 268.056 63.3097 268.233C63.5191 268.326 63.7517 268.353 63.9768 268.311C66.305 268.066 68.0868 266.193 69.5715 264.371C72.6701 260.505 75.3599 256.234 76.8877 251.517C78.4155 246.8 78.6608 241.584 76.9953 236.91C76.1647 234.581 74.8822 232.442 73.6083 230.324C72.4922 228.47 71.379 226.62 70.2687 224.773C69.6877 223.798 68.9475 221.817 67.807 221.336C65.3453 220.279 60.8222 223.828 59.2428 225.404Z" fill="#FF636D"/>
<path d="M186.002 253.17L189.664 261.763C185.677 260.372 181.416 259.949 177.233 260.528C173.05 261.107 169.065 262.671 165.607 265.092C163.52 266.583 161.605 268.456 160.662 270.836C160.197 270.925 159.716 270.88 159.275 270.707C158.835 270.535 158.452 270.242 158.17 269.861C157.62 269.09 157.3 268.178 157.249 267.232C156.909 263.932 158.162 260.697 159.401 257.613C159.978 256.169 160.572 254.695 161.596 253.523C162.62 252.35 163.98 251.576 165.34 250.846C169.679 248.451 174.223 246.446 178.918 244.857C180.898 244.217 182.972 244.23 184.083 246.077C185.369 248.281 184.995 250.825 186.002 253.17Z" fill="#FF636D"/>
<path d="M38.9037 278.952C39.8204 279.682 40.6252 280.546 41.5677 281.242C42.5644 281.932 43.6251 282.527 44.7352 283.016L48.9785 285.052C50.2935 285.735 51.6695 286.293 53.0885 286.719C54.9047 287.205 56.8112 287.252 58.6359 287.703C60.9383 288.27 63.0428 289.452 65.3108 290.135C67.5789 290.818 70.2342 290.93 72.1278 289.508C73.3113 288.618 74.2065 287.149 75.674 286.93C76.6208 286.805 77.5332 287.261 78.3767 287.703L89.4198 293.499C90.9089 294.281 92.484 295.148 93.2629 296.639C94.0419 298.13 93.5169 300.394 91.8772 300.781C91.3057 300.846 90.731 300.879 90.1557 300.88C89.5876 300.948 88.9679 301.283 88.8905 301.855C88.8876 302.21 88.9813 302.559 89.1616 302.865C89.6565 303.999 89.8028 305.356 89.2262 306.456C88.6495 307.556 87.2336 308.239 86.1017 307.745C86.2954 309.408 84.4835 310.572 82.8697 311.014C78.7984 312.127 74.4819 311.444 70.3203 310.739C68.6849 310.465 67.0237 310.181 65.5346 309.451C64.8202 309.103 64.1575 308.656 63.4345 308.334C61.4505 307.453 59.1954 307.569 57.0263 307.608C46.9946 307.784 37.0489 305.928 27.1849 304.08C25.3559 303.737 23.4752 303.371 21.913 302.362C18.9004 300.403 17.7815 296.381 18.2764 292.824C18.7713 289.267 20.5789 286.045 22.3563 282.917L24.6587 278.866C24.9597 278.245 25.381 277.69 25.8982 277.233C29.2851 274.651 36.0031 276.623 38.9037 278.952Z" fill="#E8BFBF"/>
<path opacity="0.04" d="M38.9037 278.952C39.8204 279.682 40.6252 280.546 41.5677 281.242C42.5644 281.932 43.6251 282.527 44.7352 283.016L48.9785 285.052C50.2935 285.735 51.6695 286.293 53.0885 286.719C54.9047 287.205 56.8112 287.252 58.6359 287.703C60.9383 288.27 63.0428 289.452 65.3108 290.135C67.5789 290.818 70.2342 290.93 72.1278 289.508C73.3113 288.618 74.2065 287.149 75.674 286.93C76.6208 286.805 77.5332 287.261 78.3767 287.703L89.4198 293.499C90.9089 294.281 92.484 295.148 93.2629 296.639C94.0419 298.13 93.5169 300.394 91.8772 300.781C91.3057 300.846 90.731 300.879 90.1557 300.88C89.5876 300.948 88.9679 301.283 88.8905 301.855C88.8876 302.21 88.9813 302.559 89.1616 302.865C89.6565 303.999 89.8028 305.356 89.2262 306.456C88.6495 307.556 87.2336 308.239 86.1017 307.745C86.2954 309.408 84.4835 310.572 82.8697 311.014C78.7984 312.127 74.4819 311.444 70.3203 310.739C68.6849 310.465 67.0237 310.181 65.5346 309.451C64.8202 309.103 64.1575 308.656 63.4345 308.334C61.4505 307.453 59.1954 307.569 57.0263 307.608C46.9946 307.784 37.0489 305.928 27.1849 304.08C25.3559 303.737 23.4752 303.371 21.913 302.362C18.9004 300.403 17.7815 296.381 18.2764 292.824C18.7713 289.267 20.5789 286.045 22.3563 282.917L24.6587 278.866C24.9597 278.245 25.381 277.69 25.8982 277.233C29.2851 274.651 36.0031 276.623 38.9037 278.952Z" fill="#3E4A5B"/>
<path d="M170.276 286.376C168.034 287.433 165.461 287.536 163.119 288.348C160.778 289.16 158.79 290.62 156.642 291.81C151.048 294.93 144.592 296.107 138.253 297.228C134.41 297.915 130.506 298.603 126.633 298.44C121.391 298.216 116.356 296.472 111.278 295.157C106.2 293.843 100.781 292.958 95.7503 294.435C93.1231 295.234 90.7215 296.639 88.74 298.538C86.7586 300.436 85.2531 302.773 84.3456 305.361C83.2913 308.45 83.1449 311.779 83.3472 315.036C84.4059 315.813 85.8863 314.735 86.463 313.554C87.0397 312.372 87.3539 310.924 88.4728 310.237C90.4138 310.894 90.8872 313.476 92.4881 314.752C93.4866 315.551 94.8207 315.762 96.0903 315.942L102.632 316.87C104.207 317.094 106.036 317.244 107.176 316.136C107.732 315.599 108.037 314.847 108.545 314.271C109.586 313.12 111.325 312.922 112.874 313.077C117.712 313.558 122.248 316.69 127.051 315.947C128.703 315.693 130.24 314.989 131.815 314.434C141.149 311.143 151.521 313.146 161.234 311.259C164.94 310.542 168.508 309.27 172.032 307.93C173.947 307.204 175.884 306.443 177.519 305.215C179.069 304.025 180.29 302.463 181.07 300.674C181.85 298.885 182.162 296.928 181.978 294.985C181.618 292.025 180.138 289.314 177.842 287.407C177.085 286.762 176.091 285.529 175.182 285.126C173.448 284.365 171.748 285.684 170.276 286.376Z" fill="#E8BFBF"/>
<g opacity="0.1">
<path opacity="0.1" d="M157.701 231.492C156.982 230.856 156.806 229.889 156.186 229.185C154.895 227.694 152.287 227.896 150.161 228.196C146.456 228.716 141.984 228.837 139.686 226.263C138.692 225.155 138.253 223.685 137.039 222.762C134.208 220.614 129.336 222.813 126.216 220.996C123.491 219.411 123.668 215.733 121.396 213.692C119.123 211.652 115.185 211.918 112.1 212.936C111.578 213.176 110.992 213.242 110.43 213.125C109.453 212.782 109.522 211.57 109.763 210.676C110.938 206.359 112.134 201.998 114.419 198.028C115.25 196.581 116.231 195.184 116.765 193.629C117.699 190.905 117.221 187.825 118.448 185.247C117.131 186.106 115.865 187.043 115.052 188.254C113.219 190.983 113.929 194.454 112.9 197.483C112.367 199.038 111.385 200.434 110.555 201.882C108.27 205.852 107.073 210.212 105.898 214.53C105.657 215.424 105.588 216.635 106.565 216.979C107.128 217.096 107.713 217.029 108.235 216.79C111.321 215.772 115.241 215.48 117.531 217.546C119.82 219.613 119.627 223.277 122.351 224.85C125.471 226.667 130.343 224.472 133.175 226.615C134.388 227.535 134.827 229.008 135.821 230.117C138.137 232.695 142.591 232.57 146.296 232.05C148.422 231.749 151.03 231.548 152.322 233.038C152.941 233.743 153.118 234.71 153.836 235.345C155.128 236.497 157.49 235.913 158.751 234.731C159.56 233.891 160.252 232.946 160.808 231.921C159.689 232.261 158.497 232.209 157.701 231.492Z" fill="#3E4A5B"/>
<path opacity="0.1" d="M165.542 226.766C165.265 227.123 165.008 227.494 164.772 227.879C166.425 226.702 168.176 225.602 169.411 224.103C169.732 223.715 170.02 223.301 170.272 222.865C168.555 224.094 166.765 225.224 165.542 226.766Z" fill="#3E4A5B"/>
</g>
<path d="M252.489 311.84L253.78 435.142L259.805 434.282L258.514 311.84H252.489Z" fill="#343E4C"/>
<path d="M288.639 334.181L289.93 457.482L295.955 456.623L294.664 334.181H288.639Z" fill="#343E4C"/>
<path d="M401.192 396.467L401.166 394.1V392.691L400.938 371.003L400.581 337.098L400.521 334.172H394.496L394.526 336.99L394.715 355.15L394.797 363.012L394.866 369.379L394.978 380.386L395.046 386.878V387.565L395.137 396.098L395.214 403.62L395.705 403.079C396.494 402.2 397.266 401.306 398.02 400.398L401.192 396.467Z" fill="#343E4C"/>
<path d="M281.969 354.157L278.526 359.295L281.969 382.706L311.234 390.701H358.573L386.977 392.415L400.508 383.17L398.167 367.291L387.838 354.157H281.969Z" fill="#FF636D"/>
<path d="M278.526 359.296L276.804 373.568C276.804 373.568 267.767 401.549 340.498 399.835C413.23 398.121 400.749 392.411 400.749 392.411L400.319 375.854C400.319 375.854 402.854 383.69 365.89 382.629C328.926 381.568 294.449 378.139 294.449 378.139C294.449 378.139 281.538 380.42 278.526 359.296Z" fill="#343E4C"/>
<path d="M339.121 231.371C334.972 233.257 331.83 236.913 329.726 240.956C327.621 244.999 326.438 249.437 325.272 253.845C324.041 258.493 322.806 263.155 322.169 267.919C321.033 276.391 321.885 285.298 325.784 292.906C329.683 300.515 336.887 306.654 345.322 308.119C348.58 308.691 351.928 308.575 355.221 308.235C361.171 307.606 367.033 306.316 372.698 304.39C378.615 302.392 384.774 299.316 387.408 293.649C388.935 290.363 389.064 286.617 388.991 282.999C388.788 273.14 387.297 263.349 384.554 253.875C383.758 251.125 382.833 248.354 381.146 246.039C379.459 243.723 377.152 242.026 374.798 240.454C364.732 233.687 351.502 225.752 339.121 231.371Z" fill="#EAC7C7"/>
<path opacity="0.05" d="M339.121 231.371C334.972 233.257 331.83 236.913 329.726 240.956C327.621 244.999 326.438 249.437 325.272 253.845C324.041 258.493 322.806 263.155 322.169 267.919C321.033 276.391 321.885 285.298 325.784 292.906C329.683 300.515 336.887 306.654 345.322 308.119C348.58 308.691 351.928 308.575 355.221 308.235C361.171 307.606 367.033 306.316 372.698 304.39C378.615 302.392 384.774 299.316 387.408 293.649C388.935 290.363 389.064 286.617 388.991 282.999C388.788 273.14 387.297 263.349 384.554 253.875C383.758 251.125 382.833 248.354 381.146 246.039C379.459 243.723 377.152 242.026 374.798 240.454C364.732 233.687 351.502 225.752 339.121 231.371Z" fill="#3E4A5B"/>
<path d="M334.46 285.448C335.661 287.096 337.113 288.545 338.764 289.744C342.861 292.571 348.12 292.953 353.095 293.108C357.089 293.228 361.668 293.001 364.172 289.89C365.3 288.49 365.808 286.702 366.264 284.962C369.079 274.278 371.079 263.396 372.246 252.41L383.642 252.449C388.574 273.53 388.169 295.445 387.739 317.094L387.115 348.663L379.773 347.885C362.339 346.042 344.879 344.199 327.35 343.881C317.08 343.692 306.807 344.031 296.571 344.895L312.559 297.439C314.633 291.269 316.729 285.018 317.215 278.535C317.917 269.131 315.274 259.202 318.937 250.502C319.229 249.802 319.6 249.076 320.267 248.711C320.934 248.346 321.777 248.436 322.543 248.535C323.989 248.728 328.409 248.535 329.459 249.458C331.008 250.799 329.984 251.001 329.438 253.162C328.461 257.028 327.535 260.607 327.548 264.637C327.561 271.953 329.834 279.678 334.46 285.448Z" fill="#FF636D"/>
<path d="M401.192 396.467C403.112 393.923 404.921 391.29 406.619 388.566C405.758 386.727 404.811 384.931 404.058 383.054C402.905 380.175 402.242 377.125 401.588 374.096C401.364 373.065 401.142 372.034 400.921 371.003C398.511 359.785 396.247 348.409 395.778 337.037C395.735 336.092 395.708 335.147 395.696 334.201C395.696 334.064 395.696 333.931 395.696 333.772C395.696 332.736 395.696 331.701 395.696 330.67C395.748 328.092 395.912 325.493 396.209 322.907C396.264 322.4 396.329 321.893 396.398 321.386C396.398 321.274 396.424 321.167 396.441 321.055L425.706 319.99L428.167 319.899C429.859 319.839 431.649 319.745 433.043 318.787C435.389 317.18 435.664 313.885 435.626 311.053C435.483 303.897 434.67 296.77 433.198 289.766C432.088 284.498 430.504 279.115 426.949 275.068C424.032 271.743 419.805 269.324 418.286 265.187C417.722 263.649 417.58 261.96 416.849 260.491C416.117 259.022 414.908 257.943 413.767 256.809C409.754 252.839 406.424 248.234 403.912 243.182C402.169 239.676 400.28 235.809 398.003 233.386C397.891 233.262 397.779 233.146 397.663 233.034C395.727 231.122 393.51 230.284 390.885 231.586C390.413 231.823 389.963 232.102 389.542 232.42C388.607 233.133 387.751 233.946 386.99 234.843C384.338 237.886 382.012 241.198 380.048 244.724C378.668 247.206 377.482 249.792 376.502 252.457C375.729 254.563 375.089 256.715 374.587 258.901C374.217 260.521 373.924 262.158 373.692 263.799C372.831 269.969 372.831 276.258 372.952 282.505C373.081 288.245 373.335 293.997 373.855 299.716C373.985 301.099 374.128 302.481 374.286 303.862C374.601 306.591 374.992 309.312 375.456 312.024C375.641 313.06 375.831 314.095 376.042 315.126C376.093 315.401 376.149 315.676 376.205 315.947L376.231 316.063C376.8 318.459 377.241 320.884 377.552 323.328C377.587 323.634 377.613 323.939 377.63 324.243C377.702 325.647 377.691 327.054 377.595 328.457C377.496 330.116 377.341 331.77 377.264 333.428C377.264 333.72 377.264 334.008 377.234 334.287C377.212 335.125 377.234 335.963 377.234 336.801C377.321 338.805 377.56 340.8 377.948 342.768C378.674 346.429 379.928 349.966 381.671 353.268C381.834 353.577 382.002 353.882 382.17 354.183C384.352 358.076 387.106 361.646 389.125 365.628C390.866 369.212 392.166 372.993 392.998 376.889C393.285 378.175 393.557 379.464 393.816 380.755C394.216 382.818 394.573 384.897 394.939 386.976C394.973 387.183 395.012 387.406 395.051 387.595C395.537 390.353 396.049 393.098 396.708 395.792C397.091 397.36 397.521 398.907 398.025 400.428L401.192 396.467Z" fill="#343E4C"/>
<path d="M395.443 362.604C395.443 362.991 395.417 363.377 395.4 363.768C395.323 365.653 395.149 367.533 394.879 369.401C394.522 371.949 393.898 374.454 393.015 376.872C392.43 378.462 391.687 379.989 390.795 381.43C390.004 382.71 389.077 383.901 388.032 384.983C385.45 387.664 381.731 388.519 378.133 389.649C376.478 390.127 374.878 390.779 373.361 391.595C373.089 391.745 372.823 391.909 372.564 392.08L368.063 395.058C366.66 395.981 365.227 396.939 364.263 398.31C364.105 398.543 363.961 398.786 363.832 399.036C363.223 400.298 362.778 401.632 362.507 403.006C360.166 412.741 357.82 422.485 356.215 432.366C356.107 433.019 356.004 433.676 355.892 434.334L355.853 434.54C355.834 434.491 355.811 434.444 355.785 434.398C344.268 441.35 332.325 447.622 320.021 452.644L317.349 430.304C317.07 428.488 316.978 426.648 317.073 424.813C317.327 421.922 318.506 419.181 318.825 416.298C319.127 413.476 318.592 410.627 317.289 408.105C316.781 407.126 316.144 406.163 316.028 405.068C315.911 403.972 316.544 402.971 317.646 402.86C318.506 401.906 318.575 400.604 318.321 399.315C318.187 398.642 317.985 397.985 317.719 397.352C316.987 395.556 316.062 393.601 316.69 391.767C316.857 391.434 316.931 391.063 316.906 390.693C316.91 390.67 316.91 390.647 316.906 390.624C316.759 390.143 316.187 389.932 315.89 389.524C315.33 388.764 315.89 387.728 316.234 386.852C316.569 385.91 316.763 384.924 316.811 383.926C316.858 383.372 316.893 382.813 316.953 382.263C317.037 381.519 317.17 380.782 317.353 380.055C318.399 375.94 320.913 372.347 324.424 369.951C326.098 368.825 327.962 368.004 329.67 366.943C331.42 365.765 333.091 364.474 334.671 363.077C338.461 359.926 342.402 356.956 346.493 354.166C350.892 351.167 355.449 348.405 360.144 345.892C361.148 345.35 362.153 344.823 363.157 344.311C364.25 343.738 365.35 343.195 366.458 342.682C370.004 340.994 374.028 341.625 377.948 342.751C379.592 343.219 381.215 343.778 382.781 344.285C384.311 344.781 385.783 345.441 387.171 346.252C390.644 348.289 393.515 351.296 394.707 355.094C394.709 355.118 394.709 355.143 394.707 355.167C395.464 357.547 395.511 360.099 395.443 362.604Z" fill="#F86D70"/>
<path opacity="0.1" d="M395.443 362.604C395.443 362.991 395.417 363.377 395.4 363.768C395.323 365.653 395.149 367.533 394.879 369.401C394.522 371.949 393.898 374.454 393.015 376.872C392.43 378.462 391.687 379.989 390.795 381.43C390.004 382.71 389.077 383.901 388.032 384.983C385.45 387.664 381.731 388.519 378.133 389.649C376.478 390.127 374.878 390.779 373.361 391.595C373.089 391.745 372.823 391.909 372.564 392.08L368.063 395.058C366.66 395.981 365.227 396.939 364.263 398.31C364.105 398.543 363.961 398.786 363.832 399.036C363.223 400.298 362.778 401.632 362.507 403.006C360.166 412.741 357.82 422.485 356.215 432.366C356.107 433.019 356.004 433.676 355.892 434.334L355.853 434.54C355.834 434.491 355.811 434.444 355.785 434.398C344.268 441.35 332.325 447.622 320.021 452.644L317.349 430.304C317.07 428.488 316.978 426.648 317.073 424.813C317.327 421.922 318.506 419.181 318.825 416.298C319.127 413.476 318.592 410.627 317.289 408.105C316.781 407.126 316.144 406.163 316.028 405.068C315.911 403.972 316.544 402.971 317.646 402.86C318.506 401.906 318.575 400.604 318.321 399.315C318.187 398.642 317.985 397.985 317.719 397.352C316.987 395.556 316.062 393.601 316.69 391.767C316.857 391.434 316.931 391.063 316.906 390.693C316.91 390.67 316.91 390.647 316.906 390.624C316.759 390.143 316.187 389.932 315.89 389.524C315.33 388.764 315.89 387.728 316.234 386.852C316.569 385.91 316.763 384.924 316.811 383.926C316.858 383.372 316.893 382.813 316.953 382.263C317.037 381.519 317.17 380.782 317.353 380.055C318.399 375.94 320.913 372.347 324.424 369.951C326.098 368.825 327.962 368.004 329.67 366.943C331.42 365.765 333.091 364.474 334.671 363.077C338.461 359.926 342.402 356.956 346.493 354.166C350.892 351.167 355.449 348.405 360.144 345.892C361.148 345.35 362.153 344.823 363.157 344.311C364.25 343.738 365.35 343.195 366.458 342.682C370.004 340.994 374.028 341.625 377.948 342.751C379.592 343.219 381.215 343.778 382.781 344.285C384.311 344.781 385.783 345.441 387.171 346.252C390.644 348.289 393.515 351.296 394.707 355.094C394.709 355.118 394.709 355.143 394.707 355.167C395.464 357.547 395.511 360.099 395.443 362.604Z" fill="#3E4A5B"/>
<path d="M354.58 291.441C354.536 291.341 354.473 291.251 354.394 291.177C354.314 291.102 354.221 291.044 354.119 291.006C354.016 290.968 353.907 290.952 353.799 290.957C353.69 290.962 353.583 290.99 353.485 291.037C353.387 291.085 353.299 291.151 353.228 291.234C353.156 291.316 353.102 291.411 353.068 291.515C353.035 291.618 353.022 291.728 353.032 291.836C353.042 291.944 353.074 292.05 353.125 292.146L352.695 292.356L365.528 318.615L367.848 317.485L355.014 291.209L354.58 291.441Z" fill="#343E4C"/>
<path d="M370.623 263.937C385.835 263.937 398.167 251.627 398.167 236.441C398.167 221.256 385.835 208.945 370.623 208.945C355.412 208.945 343.08 221.256 343.08 236.441C343.08 251.627 355.412 263.937 370.623 263.937Z" fill="#EAC7C7"/>
<path d="M406.977 219.419C406.848 217.234 406.522 215.064 406.004 212.936C404.386 205.989 401.429 199.15 396.338 194.162C396.024 192.942 395.649 191.739 395.215 190.557C395.207 190.528 395.196 190.499 395.185 190.471C393.666 186.308 391.47 182.422 388.686 178.97C387.072 176.968 384.981 174.992 382.407 174.915C381.684 174.889 380.918 175.014 380.255 174.683C379.768 174.368 379.357 173.948 379.055 173.454C377.78 171.846 376.09 170.617 374.166 169.898C372.243 169.18 370.159 168.999 368.141 169.377L367.874 169.433C367.723 169.463 367.572 169.497 367.443 169.536C367.314 169.575 367.082 169.639 366.901 169.695C367.099 170.021 367.293 170.352 367.482 170.687C367.993 171.595 368.466 172.523 368.902 173.471C369.264 174.262 369.598 175.065 369.905 175.881C365.498 176.384 361.909 179.507 358.629 182.48L350.909 189.475C350.895 189.487 350.882 189.499 350.87 189.513L350.646 189.728C350.59 189.784 350.534 189.84 350.483 189.9C350.462 189.918 350.443 189.938 350.427 189.96C350.362 190.029 350.302 190.102 350.242 190.175C350.134 190.31 350.038 190.454 349.953 190.605C349.911 190.669 349.874 190.737 349.841 190.807C349.83 190.827 349.82 190.849 349.811 190.871C349.783 190.93 349.759 190.99 349.738 191.051C349.736 191.06 349.736 191.069 349.738 191.077C349.726 191.112 349.716 191.148 349.708 191.185C349.62 191.487 349.646 191.811 349.781 192.095L354.872 192.151H355.471C355.496 192.83 355.518 193.513 355.544 194.192C354.736 194.796 353.96 195.441 353.22 196.125C352.412 196.871 351.655 197.669 350.952 198.514C346.36 204.052 343.963 211.205 343.722 218.406C343.722 218.629 343.722 218.835 343.722 219.067C343.722 219.724 343.722 220.382 343.722 221.035C343.722 221.464 343.76 221.894 343.795 222.324C343.797 222.883 343.945 223.433 344.225 223.918C344.262 223.972 344.302 224.023 344.346 224.072C344.604 224.352 344.914 224.58 345.258 224.742L345.628 224.923C345.813 225.013 345.99 225.099 346.162 225.198C347.784 226.113 348.744 227.879 350.22 229.013C350.306 229.077 350.392 229.142 350.478 229.198L350.672 229.327L350.793 229.404L350.956 229.498C351.063 229.563 351.174 229.622 351.287 229.675L351.494 229.778H351.528C351.701 229.855 351.873 229.928 352.049 229.992L352.295 230.078L352.368 230.104C352.437 230.126 352.51 230.151 352.583 230.169C352.729 230.212 352.873 230.25 353.013 230.285L353.444 230.379C353.611 230.409 353.784 230.439 353.956 230.461L354.21 230.495L354.468 230.521C354.878 230.558 355.291 230.58 355.707 230.585C357.013 230.577 358.317 230.487 359.611 230.315L370.594 229.026C373.085 228.738 375.629 228.45 378.086 228.957C380.169 229.387 382.089 230.375 384.111 231.075C384.567 231.234 385.024 231.38 385.484 231.505C385.652 231.552 385.824 231.604 385.996 231.647L386.233 231.707L386.784 231.84C386.982 231.887 387.18 231.934 387.378 231.973C387.658 232.033 387.933 232.085 388.213 232.136C388.402 232.175 388.596 232.205 388.789 232.239H388.828L389.379 232.325H389.512L389.921 232.381C390.119 232.411 390.317 232.437 390.519 232.459C390.958 232.513 391.397 232.56 391.836 232.6C392.546 232.669 393.261 232.721 393.988 232.764L394.703 232.807L395.417 232.841L397.569 232.935H397.663H397.965C398.859 232.998 399.758 232.951 400.642 232.798C400.797 232.768 400.947 232.733 401.098 232.691C401.248 232.648 401.373 232.605 401.528 232.553C403.142 231.934 404.321 230.512 405.139 228.991C405.311 228.669 405.47 228.347 405.617 228.016C405.763 227.685 405.896 227.35 406.017 227.015C406.167 226.586 406.297 226.177 406.408 225.748C406.443 225.632 406.473 225.516 406.499 225.396C406.525 225.275 406.585 225.039 406.619 224.858C406.727 224.364 406.809 223.866 406.869 223.363C406.869 223.204 406.908 223.041 406.925 222.882C406.964 222.453 406.994 222.053 407.011 221.632C407.011 221.314 407.011 220.992 407.011 220.67C407.007 220.322 406.977 219.862 406.977 219.419ZM395.942 193.771C395.593 193.444 395.236 193.131 394.875 192.834C395.277 193.088 395.636 193.404 395.938 193.771H395.942Z" fill="#343E4C"/>
<path d="M317.762 234.929C314.521 234.53 311.306 233.112 308.109 233.808C306.108 234.237 304.386 235.479 302.785 236.755C296.827 241.522 291.761 247.304 287.822 253.833C287.153 254.809 286.684 255.906 286.44 257.063C286.233 258.404 286.599 259.766 287.034 261.05C289.978 269.733 296.274 276.985 299.14 285.693C302.153 294.853 301.107 304.863 298.886 314.246C296.133 325.83 291.66 336.937 285.614 347.198C284.793 348.724 283.765 350.129 282.558 351.374C280.992 352.878 278.887 353.952 277.958 355.919C277.527 356.779 277.402 357.758 277.097 358.678C276.236 361.255 274.153 363.464 273.951 366.183C273.8 368.258 274.786 370.222 275.384 372.198C276.393 375.593 276.286 379.222 275.078 382.552C272.897 388.524 267.19 393.954 268.847 400.093C272.544 399.032 276.641 397.653 278.384 394.229C278.999 393.017 279.305 391.574 280.342 390.689C282.412 388.932 285.937 390.521 288.136 388.906C289.797 387.677 289.857 385.16 289.117 383.226C288.377 381.293 287.103 379.592 286.535 377.603C285.545 374.015 287.129 370.222 286.836 366.514C286.698 364.795 286.169 363.15 286.13 361.44C286.057 358.119 287.899 354.996 290.348 352.74C292.797 350.485 295.822 348.99 298.8 347.516L310.058 341.931C314.143 339.912 318.618 337.45 319.957 333.102C320.465 331.474 320.469 329.738 320.495 328.037C320.878 302.04 327.402 276.568 333.888 251.388C334.895 247.487 335.919 243.569 337.417 239.823C338.914 236.076 341.845 233.069 343.338 229.589C334.675 228.575 326.761 236.055 317.762 234.929Z" fill="#343E4C"/>
<path d="M379.825 398.018C380.819 404.033 381.426 410.176 381.899 416.29C374.153 422.7 365.812 428.276 357.339 433.449C356.857 433.745 356.37 434.038 355.884 434.308L355.845 434.514C355.826 434.466 355.803 434.418 355.776 434.373C355.119 432.955 353.969 431.822 352.54 431.185C349.364 424.526 346.191 417.867 343.02 411.207C341.299 407.611 339.577 403.981 338.717 400.102C338.717 400.02 338.678 399.934 338.665 399.852C338.011 396.845 337.86 393.722 337.426 390.676C337.205 388.931 336.812 387.213 336.251 385.546C335.734 384.064 335.024 382.625 334.396 381.177C333.621 379.39 332.971 377.581 332.941 375.652C332.941 375.037 332.98 374.363 332.679 373.847C332.357 373.404 331.959 373.02 331.504 372.713C330.936 372.21 330.505 371.572 330.252 370.857C329.999 370.142 329.932 369.375 330.058 368.627C327.476 368.761 326.021 371.532 324.984 373.882C324.041 376.18 322.803 378.347 321.3 380.326C320.205 381.74 318.812 382.897 317.22 383.716C317.078 383.785 316.936 383.853 316.79 383.913C313.196 385.494 309 384.936 305.105 384.223C301.701 383.6 298.181 382.827 295.444 380.713L295.151 380.481C294.341 379.809 293.618 379.038 292.999 378.187C290.705 375.059 289.69 370.939 289.126 367.016C289.074 366.647 289.023 366.277 288.975 365.908C288.584 363.136 288.476 360.332 288.653 357.539C288.704 356.852 288.777 356.164 288.868 355.481C288.928 355.051 288.993 354.587 289.066 354.141C289.064 354.128 289.064 354.115 289.066 354.102C289.178 353.393 289.298 352.68 289.419 351.954C289.849 349.518 290.279 347.017 291.57 344.921C292.42 343.616 293.492 342.471 294.738 341.535C295.203 341.17 295.68 340.822 296.162 340.487C296.946 339.946 297.75 339.43 298.568 338.945C300.625 337.716 302.785 336.666 305.024 335.809C305.557 335.602 306.099 335.409 306.642 335.224C308.75 334.476 311.018 334.297 313.218 334.704C315.167 334.986 317.136 335.101 319.105 335.048C324.153 334.949 329.223 333.987 334.262 333.364C341.26 332.505 348.779 332.402 354.881 335.942C355.174 336.109 355.458 336.285 355.742 336.47C358.754 338.438 361.182 341.196 363.14 344.276C363.57 344.925 363.945 345.591 364.315 346.266C365.168 347.814 365.939 349.406 366.626 351.034C367.032 351.834 367.251 352.716 367.267 353.612C367.257 353.783 367.234 353.952 367.198 354.119C367.082 354.729 366.85 355.322 366.768 355.941C366.497 358.282 368.489 360.237 369.234 362.467C369.716 363.919 369.664 365.474 369.935 367.004C370.327 369.152 371.381 371.085 372.328 373.018C373.824 376.13 375.104 379.341 376.158 382.629C376.907 384.919 377.548 387.243 378.112 389.589C378.296 390.342 378.469 391.097 378.633 391.853C379.102 393.932 379.485 395.969 379.825 398.018Z" fill="#F86D70"/>
<path d="M425.71 334.395V337.402L425.155 337.394L424.535 337.385L417.615 337.299L400.564 337.076L395.779 337.016L394.539 336.998L387.356 336.908L377.234 336.775L355.759 336.496L318.494 336.015L305.045 335.843L299.648 335.774L294.682 335.71L291.588 335.667L288.657 335.628L266.928 335.349L260.903 335.271L259.59 335.254L258.738 333.059L252.545 317.115L251.413 314.203L252.274 310.766L256.147 313.343L258.531 313.64L297.785 318.512L305.153 319.427L320.775 321.369L336.079 323.268L342.078 324.011L377.578 328.419L387.498 329.652L395.71 330.67L424.906 334.296L425.71 334.395Z" fill="#343E4C"/>
<path d="M252.273 310.766L260.02 330.958L425.71 334.395V312.484L252.273 310.766Z" fill="#3E4A5B"/>
<path d="M260.881 333.106L262.172 456.408L268.197 455.549L266.906 333.106H260.881Z" fill="#343E4C"/>
<path d="M425.155 337.389H424.535C423.532 345.076 421.872 352.664 419.573 360.069L417.615 337.299L417.533 336.328L424.772 335.495L425.013 335.469L425.155 337.389Z" fill="#343E4C"/>
<path d="M401.61 322.796L338.562 324.085L318.98 317.64L371.484 314.633L401.61 322.796Z" fill="white"/>
<path d="M322.522 297.74C321.853 297.996 321.261 298.417 320.8 298.964C320.44 299.557 320.221 300.224 320.159 300.915L319.1 307.218C318.939 307.794 318.967 308.407 319.182 308.966C319.457 309.495 320.258 309.77 320.658 309.331C320.607 310.564 320.714 311.879 321.433 312.884C322.152 313.89 323.658 314.418 324.673 313.718C324.833 313.977 325.047 314.198 325.3 314.367C325.554 314.535 325.841 314.646 326.142 314.693C326.442 314.74 326.75 314.72 327.043 314.636C327.335 314.553 327.606 314.406 327.837 314.208C327.226 314.414 327.182 315.346 327.617 315.819C328.104 316.247 328.724 316.495 329.373 316.519C336.936 317.583 344.646 316.615 351.709 313.713C352.376 313.438 350.62 305.228 350.444 304.386C350.013 302.406 349.798 299.987 348.124 298.655C344.122 295.467 337.012 294.84 332.136 295.218C328.804 295.47 325.547 296.324 322.522 297.74Z" fill="#EAC7C7"/>
<path opacity="0.1" d="M386.672 298.694C371.105 298.99 355.216 299.244 340.36 294.591C341.779 300.08 341.681 305.852 340.076 311.29L412.859 317.305C415.945 317.558 428.74 319.002 431.748 318.276C434.756 317.55 406.507 308.261 407.648 305.387C410.785 297.469 421.294 292.829 413.724 292.533C404.17 292.155 396.299 298.513 386.672 298.694Z" fill="#3E4A5B"/>
<path d="M387.102 299.553C371.536 299.849 355.647 300.103 340.791 295.45C342.21 300.94 342.112 306.711 340.507 312.15L413.29 318.164C416.376 318.418 429.17 319.883 432.179 319.135C435.187 318.388 434.481 314.706 435.622 311.832C438.759 303.914 421.725 293.689 414.155 293.392C404.601 293.014 396.73 299.373 387.102 299.553Z" fill="#343E4C"/>
<path d="M362.352 300.747C363.021 301.002 363.613 301.424 364.073 301.971C364.433 302.565 364.654 303.231 364.719 303.922L365.777 310.224C365.937 310.801 365.908 311.414 365.696 311.973C365.42 312.501 364.616 312.776 364.22 312.338C364.267 313.571 364.164 314.886 363.445 315.891C362.726 316.896 361.22 317.425 360.2 316.725C360.041 316.984 359.827 317.205 359.573 317.373C359.32 317.542 359.033 317.653 358.732 317.7C358.431 317.746 358.124 317.727 357.831 317.643C357.538 317.559 357.267 317.413 357.037 317.214C357.648 317.421 357.695 318.353 357.261 318.825C356.772 319.254 356.15 319.502 355.5 319.526C347.939 320.59 340.23 319.621 333.169 316.72C332.502 316.445 334.253 308.235 334.434 307.393C334.864 305.413 335.08 302.994 336.754 301.662C340.752 298.474 347.866 297.847 352.742 298.225C356.072 298.477 359.328 299.332 362.352 300.747Z" fill="#EAC7C7"/>
<path d="M259.495 287.064C258.067 288.902 256.633 290.78 255.713 292.924C253.952 297.014 254.211 301.645 254.503 306.087C254.585 307.376 254.688 308.691 255.364 309.761C255.948 310.569 256.719 311.225 257.61 311.672C261.337 313.786 265.701 314.418 269.962 314.89C276.486 315.612 283.033 316.052 289.604 316.209C305.88 316.604 322.406 315.277 338.261 318.959C336.298 315.982 336.302 312.042 337.4 308.648C338.497 305.254 340.61 302.298 342.68 299.389C335.424 297.095 327.643 300.678 320.043 300.322C312.241 299.957 305.019 295.454 297.208 295.458C295.53 295.458 293.821 295.669 292.19 295.265C290.559 294.861 288.98 293.633 288.829 291.961C290.912 292.43 292.887 290.651 293.748 288.7C294.609 286.75 294.764 284.546 295.599 282.583C297.677 277.698 303.294 275.434 306.788 271.412C307.339 270.777 307.86 270.025 307.842 269.183C307.76 268.469 307.46 267.799 306.982 267.262C304.077 263.396 299.7 261.248 296.063 258.24C294.798 257.192 292.246 253.239 290.826 252.874C288.192 252.2 285.958 255.998 284.246 257.849C275.598 267.229 267.348 276.967 259.495 287.064Z" fill="#343E4C"/>
<path opacity="0.07" d="M346.033 285.973C347.124 286.78 348.093 287.739 348.912 288.821C349.32 289.364 349.61 289.986 349.765 290.647C349.92 291.308 349.936 291.994 349.811 292.662C349.678 291.417 349.956 290.162 350.603 289.089C351.25 288.017 352.231 287.185 353.396 286.72L346.033 285.973Z" fill="#3E4A5B"/>
<g opacity="0.1">
<path opacity="0.1" d="M369.9 173.308C369.394 171.965 368.811 170.653 368.153 169.377C367.728 169.459 367.308 169.566 366.896 169.699C367.635 170.923 368.3 172.19 368.889 173.493C369.22 173.407 369.556 173.347 369.9 173.308Z" fill="#3E4A5B"/>
<path opacity="0.1" d="M394.87 190.248C394.986 190.343 395.098 190.45 395.21 190.549C395.202 190.521 395.192 190.494 395.18 190.467C395.082 190.396 394.979 190.323 394.87 190.248Z" fill="#3E4A5B"/>
<path opacity="0.1" d="M354.864 192.138C355.087 191.962 355.294 191.777 355.535 191.606L355.466 189.565L350.87 189.518C350.125 190.201 349.333 191.18 349.772 192.095L354.864 192.138Z" fill="#3E4A5B"/>
<path opacity="0.1" d="M405.113 226.491C404.295 228.012 403.116 229.438 401.502 230.052C400.258 230.525 398.89 230.482 397.56 230.422C393.024 230.237 388.41 230.035 384.124 228.536C382.118 227.831 380.199 226.847 378.099 226.413C375.641 225.906 373.098 226.194 370.606 226.486L359.623 227.775C356.383 228.153 352.772 228.437 350.185 226.452C348.705 225.318 347.75 223.552 346.127 222.641C345.443 222.255 344.629 222.006 344.186 221.352C343.906 220.868 343.758 220.318 343.756 219.759C343.721 219.307 343.7 218.856 343.683 218.405C343.636 219.716 343.66 221.028 343.756 222.336C343.758 222.896 343.906 223.445 344.186 223.93C344.617 224.579 345.443 224.828 346.127 225.219C347.75 226.13 348.709 227.896 350.185 229.03C352.768 231.015 356.383 230.748 359.623 230.353L370.606 229.064C373.098 228.772 375.641 228.484 378.099 228.991C380.182 229.421 382.101 230.409 384.124 231.113C388.428 232.613 393.024 232.832 397.56 233C398.89 233.055 400.258 233.103 401.502 232.63C403.116 232.016 404.295 230.589 405.113 229.068C406.697 226.126 407.14 222.787 406.972 219.423C406.88 221.887 406.245 224.3 405.113 226.491Z" fill="#3E4A5B"/>
</g>
<path opacity="0.1" d="M369.776 176.07L375.801 181.655C375.801 181.655 370.637 179.507 369.776 176.07Z" fill="#3E4A5B"/>
</g>
</g>
<defs>
<clipPath id="clip0_2626:53995">
<rect width="448" height="400" rx="2" fill="white"/>
</clipPath>
<clipPath id="clip1_2626:53995">
<rect width="488.072" height="477.18" fill="white" transform="translate(1.49658 19.9658)"/>
</clipPath>
</defs>
</svg>
