<svg width="20" height="20" viewBox="0 0 20 20" fill="none" xmlns="http://www.w3.org/2000/svg">
<path d="M8.75 17.5031V14.5852C8.75 13.8946 9.30988 13.3347 10.0005 13.3347V13.3347C10.6912 13.3347 11.251 13.8946 11.251 14.5852V17.5031" stroke="#758AA8" stroke-linecap="round" stroke-linejoin="round"/>
<path d="M5.83203 17.5032V9.58319C5.83203 9.01433 6.12219 8.48477 6.60152 8.17844L9.10256 6.58027C9.65002 6.2304 10.3508 6.2304 10.8983 6.58027L13.3993 8.17844C13.8787 8.48477 14.1688 9.01433 14.1688 9.58319V17.5032" stroke="#758AA8" stroke-linecap="round" stroke-linejoin="round"/>
<path d="M10 2.49683H13.3347V4.58103H10" stroke="#758AA8" stroke-linecap="round" stroke-linejoin="round"/>
<path d="M9.99985 6.31758V2.49683" stroke="#758AA8" stroke-linecap="round" stroke-linejoin="round"/>
<path d="M9.99999 9.44388C9.92321 9.44434 9.86129 9.50688 9.8616 9.58366C9.86191 9.66044 9.92432 9.72248 10.0011 9.72233C10.0779 9.72218 10.14 9.65989 10.14 9.5831C10.1403 9.54597 10.1256 9.5103 10.0992 9.48411C10.0729 9.45793 10.0371 9.44343 9.99999 9.44388" stroke="#758AA8" stroke-linecap="round" stroke-linejoin="round"/>
<path d="M14.1689 12.0467H15.8363" stroke="#758AA8" stroke-linecap="round" stroke-linejoin="round"/>
<path d="M14.1689 14.5477H15.8363" stroke="#758AA8" stroke-linecap="round" stroke-linejoin="round"/>
<path d="M4.16406 12.0467H5.83142" stroke="#758AA8" stroke-linecap="round" stroke-linejoin="round"/>
<path d="M4.16406 14.5477H5.83142" stroke="#758AA8" stroke-linecap="round" stroke-linejoin="round"/>
<path d="M1.66309 17.5033H18.3367" stroke="#758AA8" stroke-linecap="round" stroke-linejoin="round"/>
<path d="M2.49707 17.5031V9.99994C2.49707 9.53951 2.87032 9.16626 3.33075 9.16626H5.83179" stroke="#758AA8" stroke-linecap="round" stroke-linejoin="round"/>
<path d="M17.5037 17.5031V9.99994C17.5037 9.53951 17.1304 9.16626 16.67 9.16626H14.1689" stroke="#758AA8" stroke-linecap="round" stroke-linejoin="round"/>
</svg>
