<svg width="24" height="24" viewBox="0 0 24 24" fill="none" xmlns="http://www.w3.org/2000/svg">
<path d="M7.74214 1.21299C7.66956 1.21466 7.59881 1.23604 7.53746 1.27485C7.47611 1.31367 7.42648 1.36844 7.39388 1.43331C7.36129 1.49818 7.34696 1.57069 7.35243 1.64308C7.3579 1.71547 7.38297 1.78501 7.42495 1.84424L8.60776 3.55361C7.47209 4.42392 6.67665 5.71682 6.46401 7.20049H17.5359C17.3232 5.71682 16.5278 4.42392 15.3921 3.55361L16.575 1.84424C16.6175 1.78414 16.6427 1.71346 16.6476 1.63999C16.6526 1.56651 16.6372 1.49309 16.6031 1.42782C16.569 1.36254 16.5176 1.30794 16.4544 1.27004C16.3913 1.23213 16.3189 1.21239 16.2453 1.21299C16.1803 1.21358 16.1166 1.22997 16.0594 1.26073C16.0022 1.29149 15.9534 1.3357 15.9171 1.38955L14.725 3.11455C13.9186 2.66267 12.991 2.40049 12 2.40049C11.0089 2.40049 10.0813 2.66267 9.27495 3.11455L8.08276 1.38955C8.04533 1.33393 7.99452 1.28862 7.935 1.25777C7.87548 1.22692 7.80916 1.21152 7.74214 1.21299ZM9.59995 4.00049C10.0416 4.00049 10.4 4.35889 10.4 4.80049C10.4 5.24209 10.0416 5.60049 9.59995 5.60049C9.15835 5.60049 8.79995 5.24209 8.79995 4.80049C8.79995 4.35889 9.15835 4.00049 9.59995 4.00049ZM14.4 4.00049C14.8416 4.00049 15.2 4.35889 15.2 4.80049C15.2 5.24209 14.8416 5.60049 14.4 5.60049C13.9584 5.60049 13.6 5.24209 13.6 4.80049C13.6 4.35889 13.9584 4.00049 14.4 4.00049ZM3.99995 8.80049C3.55835 8.80049 3.19995 9.15889 3.19995 9.60049V16.0005C3.19995 16.4421 3.55835 16.8005 3.99995 16.8005C4.44155 16.8005 4.79995 16.4421 4.79995 16.0005V9.60049C4.79995 9.15889 4.44155 8.80049 3.99995 8.80049ZM6.39995 8.80049V16.8005C6.39995 17.6845 7.11595 18.4005 7.99995 18.4005V21.2005C7.99995 21.8629 8.53755 22.4005 9.19995 22.4005C9.86235 22.4005 10.4 21.8629 10.4 21.2005V18.4005H13.6V21.2005C13.6 21.8629 14.1376 22.4005 14.8 22.4005C15.4624 22.4005 16 21.8629 16 21.2005V18.4005C16.884 18.4005 17.6 17.6845 17.6 16.8005V8.80049H6.39995ZM20 8.80049C19.5584 8.80049 19.2 9.15889 19.2 9.60049V16.0005C19.2 16.4421 19.5584 16.8005 20 16.8005C20.4416 16.8005 20.8 16.4421 20.8 16.0005V9.60049C20.8 9.15889 20.4416 8.80049 20 8.80049Z" fill="#8C9CB3"/>
</svg>
