<svg width="24" height="24" viewBox="0 0 24 24" fill="none" xmlns="http://www.w3.org/2000/svg">
<rect x="2.99658" y="2.99609" width="18.0076" height="18.0075" rx="3" stroke="#414D5D" stroke-width="1.5" stroke-linecap="round" stroke-linejoin="round"/>
<path d="M21.0042 7.99826H2.99658" stroke="#414D5D" stroke-width="1.5" stroke-linecap="round" stroke-linejoin="round"/>
<path d="M13.75 11.4492C13.7229 11.4492 13.7009 11.4712 13.7009 11.4983C13.7009 11.5253 13.7229 11.5473 13.75 11.5473C13.777 11.5473 13.799 11.5253 13.799 11.4983C13.799 11.4712 13.777 11.4492 13.75 11.4492" stroke="#414D5D" stroke-width="1.5" stroke-linecap="round" stroke-linejoin="round"/>
<path d="M10.2482 14.4492C10.2353 14.4492 10.223 14.4544 10.2139 14.4637C10.2049 14.4729 10.1999 14.4854 10.2002 14.4983C10.2002 14.5182 10.2123 14.5361 10.2307 14.5436C10.2492 14.5512 10.2703 14.5468 10.2843 14.5326C10.2982 14.5183 10.3021 14.4971 10.2942 14.4788C10.2863 14.4605 10.2681 14.4488 10.2482 14.4492" stroke="#414D5D" stroke-width="1.5" stroke-linecap="round" stroke-linejoin="round"/>
<path d="M6.74681 14.4507C6.73355 14.4504 6.72075 14.4556 6.71147 14.4651C6.70218 14.4746 6.69723 14.4875 6.69779 14.5007C6.69779 14.5206 6.70985 14.5386 6.72829 14.5461C6.74673 14.5536 6.76789 14.5492 6.78183 14.535C6.79576 14.5208 6.79971 14.4995 6.7918 14.4813C6.7839 14.463 6.76572 14.4513 6.74581 14.4517" stroke="#414D5D" stroke-width="1.5" stroke-linecap="round" stroke-linejoin="round"/>
<path d="M10.2482 17.4532C10.2353 17.4531 10.223 17.4583 10.2139 17.4676C10.2049 17.4768 10.1999 17.4893 10.2002 17.5022C10.2002 17.5221 10.2123 17.54 10.2307 17.5475C10.2492 17.5551 10.2703 17.5507 10.2843 17.5365C10.2982 17.5222 10.3021 17.501 10.2942 17.4827C10.2863 17.4644 10.2681 17.4527 10.2482 17.4532" stroke="#414D5D" stroke-width="1.5" stroke-linecap="round" stroke-linejoin="round"/>
<path d="M6.74703 17.4532C6.73395 17.4529 6.72132 17.458 6.71207 17.4672C6.70282 17.4765 6.69774 17.4891 6.69802 17.5022C6.69802 17.5221 6.71007 17.54 6.72852 17.5475C6.74696 17.5551 6.76812 17.5507 6.78205 17.5365C6.79599 17.5222 6.79994 17.501 6.79203 17.4827C6.78413 17.4644 6.76595 17.4527 6.74604 17.4532" stroke="#414D5D" stroke-width="1.5" stroke-linecap="round" stroke-linejoin="round"/>
<path d="M17.2514 11.4492C17.2385 11.4492 17.2261 11.4544 17.2171 11.4637C17.2081 11.4729 17.2031 11.4854 17.2034 11.4983C17.2034 11.5182 17.2154 11.5361 17.2339 11.5436C17.2523 11.5512 17.2735 11.5468 17.2874 11.5326C17.3014 11.5183 17.3053 11.4971 17.2974 11.4788C17.2895 11.4605 17.2713 11.4488 17.2514 11.4492" stroke="#414D5D" stroke-width="1.5" stroke-linecap="round" stroke-linejoin="round"/>
<path d="M13.7509 11.4492C13.7311 11.4492 13.7132 11.4612 13.7056 11.4795C13.6981 11.4978 13.7023 11.5189 13.7163 11.5329C13.7303 11.5469 13.7514 11.5511 13.7697 11.5435C13.788 11.536 13.8 11.5181 13.8 11.4983C13.8 11.4712 13.778 11.4492 13.7509 11.4492" stroke="#414D5D" stroke-width="1.5" stroke-linecap="round" stroke-linejoin="round"/>
<path d="M13.75 14.4492C13.7229 14.4492 13.7009 14.4712 13.7009 14.4983C13.7009 14.5253 13.7229 14.5473 13.75 14.5473C13.777 14.5473 13.799 14.5253 13.799 14.4983C13.799 14.4712 13.777 14.4492 13.75 14.4492" stroke="#414D5D" stroke-width="1.5" stroke-linecap="round" stroke-linejoin="round"/>
<path d="M17.2514 14.4512C17.2385 14.4512 17.2261 14.4564 17.2171 14.4656C17.2081 14.4748 17.2031 14.4873 17.2034 14.5002C17.2034 14.5201 17.2154 14.5381 17.2339 14.5456C17.2523 14.5531 17.2735 14.5487 17.2874 14.5345C17.3014 14.5203 17.3053 14.499 17.2974 14.4808C17.2895 14.4625 17.2713 14.4508 17.2514 14.4512" stroke="#414D5D" stroke-width="1.5" stroke-linecap="round" stroke-linejoin="round"/>
<path d="M13.7509 14.4512C13.7311 14.4512 13.7132 14.4631 13.7056 14.4814C13.6981 14.4998 13.7023 14.5209 13.7163 14.5349C13.7303 14.5489 13.7514 14.5531 13.7697 14.5455C13.788 14.5379 13.8 14.52 13.8 14.5002C13.8 14.4731 13.778 14.4512 13.7509 14.4512" stroke="#414D5D" stroke-width="1.5" stroke-linecap="round" stroke-linejoin="round"/>
</svg>
