<svg width="20" height="20" viewBox="0 0 20 20" fill="none" xmlns="http://www.w3.org/2000/svg">
<path d="M4 16.272V15.8374L3.68221 15.5409C1.96484 13.9385 1 11.7569 1 9.50003C1 4.86201 4.98935 1.00003 10 1.00003C15.0106 1.00003 19 4.86201 19 9.50003C19 14.138 15.0106 18 10 18C9.11695 18 8.22984 17.8721 7.35808 17.6188L6.98213 17.5095L6.63192 17.6845L4.00292 18.9985L4.00279 18.9986C4.0026 18.9987 4.00241 18.9988 4.00223 18.9989C4.00195 18.9987 4.00166 18.9985 4.00134 18.9984C4.00084 18.998 4.0004 18.9977 4.00002 18.9975C4.00001 18.997 4 18.9965 4 18.996V16.272Z" stroke="#48566A" stroke-width="2"/>
</svg>
