<svg width="16" height="16" viewBox="0 0 16 16" fill="none" xmlns="http://www.w3.org/2000/svg">
<path fill-rule="evenodd" clip-rule="evenodd" d="M6.4691 2.73L2.3531 5.01666C1.48777 5.49733 1.48777 6.74133 2.3531 7.222L6.4691 9.50866C7.4211 10.0373 8.5791 10.0373 9.53177 9.50866L13.6478 7.222C14.5131 6.74133 14.5131 5.49733 13.6478 5.01666L9.53177 2.73C8.5791 2.20133 7.42177 2.20133 6.4691 2.73Z" stroke="#639CC9" stroke-width="1.3" stroke-linecap="round" stroke-linejoin="round"/>
<path d="M3.99414 8.1333V10.7493C3.99414 11.382 4.31081 11.972 4.83681 12.322L5.90814 13.0346C7.17547 13.8773 8.82481 13.8773 10.0915 13.0346L11.1628 12.322C11.6895 11.972 12.0055 11.3813 12.0055 10.7493V8.1333" stroke="#639CC9" stroke-width="1.3" stroke-linecap="round" stroke-linejoin="round"/>
</svg>
