<svg width="16" height="16" viewBox="0 0 16 16" fill="none" xmlns="http://www.w3.org/2000/svg">
<path fill-rule="evenodd" clip-rule="evenodd" d="M13.3306 8H2.67086C2.47735 7.99983 2.29317 8.08319 2.16559 8.22869C2.038 8.37419 1.97941 8.56767 2.00485 8.75951C2.24177 10.3966 3.22468 11.8312 4.6658 12.6433V13.3356C4.6658 13.7039 4.9644 14.0025 5.33274 14.0025H10.6687C11.0371 14.0025 11.3357 13.7039 11.3357 13.3356V12.6433C12.7768 11.8312 13.7597 10.3966 13.9966 8.75949C14.022 8.56766 13.9634 8.37418 13.8359 8.22868C13.7083 8.08319 13.5241 7.99983 13.3306 8Z" stroke="#9DC647" stroke-width="1.3" stroke-linecap="round" stroke-linejoin="round"/>
<path d="M12.4557 8.00001C13.0269 7.33073 13.3393 6.47888 13.3361 5.59901V5.33223C13.3361 4.96388 13.0375 4.66528 12.6692 4.66528H12.4024C10.4944 4.66561 8.89301 6.10312 8.6875 8.00001" stroke="#9DC647" stroke-width="1.3" stroke-linecap="round" stroke-linejoin="round"/>
<path d="M8.68775 7.99984H4.34294C3.98918 7.99984 3.6499 7.8593 3.39975 7.60915L3.12301 7.33243C2.5135 6.72224 2.51371 5.73358 3.12348 5.12365C3.73325 4.51371 4.72191 4.51324 5.33226 5.12258V4.99895H5.33302C5.3329 4.04584 5.84125 3.16507 6.6666 2.68841C7.49195 2.21174 8.5089 2.2116 9.33438 2.68804C10.1599 3.16449 10.6685 4.04512 10.6686 4.99823V5.09136" stroke="#9DC647" stroke-width="1.3" stroke-linecap="round" stroke-linejoin="round"/>
</svg>
