<svg width="16" height="16" viewBox="0 0 16 16" fill="none" xmlns="http://www.w3.org/2000/svg">
<path d="M7 14.0024V11.6681C7 11.1156 7.4479 10.6677 8.00042 10.6677V10.6677C8.55293 10.6677 9.00083 11.1156 9.00083 11.6681V14.0024" stroke="#E96C53" stroke-width="1.3" stroke-linecap="round" stroke-linejoin="round"/>
<path d="M4.66602 14.0024V7.66645C4.66602 7.21137 4.89814 6.78771 5.28161 6.54265L7.28244 5.26412C7.72041 4.98423 8.28107 4.98423 8.71904 5.26412L10.7199 6.54265C11.1033 6.78771 11.3355 7.21137 11.3355 7.66645V14.0024" stroke="#E96C53" stroke-width="1.3" stroke-linecap="round" stroke-linejoin="round"/>
<path d="M8 1.99731H10.6678V3.66468H8" stroke="#E96C53" stroke-width="1.3" stroke-linecap="round" stroke-linejoin="round"/>
<path d="M8.00046 5.05392V1.99731" stroke="#E96C53" stroke-width="1.3" stroke-linecap="round" stroke-linejoin="round"/>
<path d="M8.00077 7.55511C7.93935 7.55547 7.88982 7.6055 7.89006 7.66693C7.89031 7.72835 7.94024 7.77798 8.00166 7.77786C8.06309 7.77774 8.11282 7.72791 8.11282 7.66648C8.113 7.63677 8.10123 7.60824 8.08016 7.58729C8.05909 7.56634 8.03048 7.55475 8.00077 7.55511" stroke="#E96C53" stroke-width="1.3" stroke-linecap="round" stroke-linejoin="round"/>
<path d="M11.335 9.63718H12.6688" stroke="#E96C53" stroke-width="1.3" stroke-linecap="round" stroke-linejoin="round"/>
<path d="M11.335 11.6382H12.6688" stroke="#E96C53" stroke-width="1.3" stroke-linecap="round" stroke-linejoin="round"/>
<path d="M3.33203 9.63718H4.66592" stroke="#E96C53" stroke-width="1.3" stroke-linecap="round" stroke-linejoin="round"/>
<path d="M3.33203 11.6382H4.66592" stroke="#E96C53" stroke-width="1.3" stroke-linecap="round" stroke-linejoin="round"/>
<path d="M1.33105 14.0024H14.6699" stroke="#E96C53" stroke-width="1.3" stroke-linecap="round" stroke-linejoin="round"/>
<path d="M1.99805 14.0025V7.99995C1.99805 7.63161 2.29665 7.33301 2.66499 7.33301H4.66582" stroke="#E96C53" stroke-width="1.3" stroke-linecap="round" stroke-linejoin="round"/>
<path d="M14.0027 14.0025V7.99995C14.0027 7.63161 13.7041 7.33301 13.3358 7.33301H11.335" stroke="#E96C53" stroke-width="1.3" stroke-linecap="round" stroke-linejoin="round"/>
</svg>
