<svg width="16" height="16" viewBox="0 0 16 16" fill="none" xmlns="http://www.w3.org/2000/svg">
<path d="M3.16699 6.66796H5.09833C5.82166 6.66796 6.40766 6.08196 6.40766 5.35863V5.35863C6.40766 5.0113 6.26966 4.67796 6.02433 4.43263L4.88833 3.29663" stroke="#6DD68A" stroke-width="1.3" stroke-linecap="round" stroke-linejoin="round"/>
<path d="M10.2466 9.64863L9.42393 8.41463C9.27527 8.1913 9.0246 8.0573 8.75593 8.0573V8.0573C8.45193 8.0573 8.17393 7.8853 8.03793 7.6133L7.9766 7.48996C7.86327 7.26396 7.86327 6.99796 7.9766 6.77196L8.50127 5.7233C8.63727 5.4513 8.91527 5.2793 9.21927 5.2793H11.2599" stroke="#6DD68A" stroke-width="1.3" stroke-linecap="round" stroke-linejoin="round"/>
<path d="M9.33398 14.6666H5.33398" stroke="#6DD68A" stroke-width="1.3" stroke-linecap="round" stroke-linejoin="round"/>
<path d="M2.66699 11.3333L3.09099 10.9093C5.43366 13.2519 9.23366 13.2526 11.5763 10.9093C13.919 8.56659 13.919 4.76659 11.5763 2.42392C11.349 2.19659 11.1043 1.99792 10.8523 1.81459L11.3337 1.33325" stroke="#6DD68A" stroke-width="1.3" stroke-linecap="round" stroke-linejoin="round"/>
<path d="M7.33333 12.6665V14.6665" stroke="#6DD68A" stroke-width="1.3" stroke-linecap="round" stroke-linejoin="round"/>
<path d="M10.2799 3.72161C11.9071 5.3488 11.9071 7.98698 10.2799 9.61416C8.65275 11.2414 6.01456 11.2414 4.38738 9.61416C2.7602 7.98698 2.7602 5.34879 4.38738 3.72161C6.01457 2.09442 8.65276 2.09442 10.2799 3.72161" stroke="#6DD68A" stroke-width="1.3" stroke-linecap="round" stroke-linejoin="round"/>
</svg>
