<svg width="16" height="16" viewBox="0 0 16 16" fill="none" xmlns="http://www.w3.org/2000/svg">
<path d="M4 12.6226H3.33333C2.59667 12.6226 2 12.026 2 11.2893V9.65396C2 8.8853 2.62333 8.26196 3.392 8.26196H4" stroke="#E99947" stroke-width="1.3" stroke-linecap="round" stroke-linejoin="round"/>
<path d="M12 12.6226H12.6667C13.4033 12.6226 14 12.026 14 11.2893V9.62264C14 8.88597 13.4033 8.28931 12.6667 8.28931H12" stroke="#E99947" stroke-width="1.3" stroke-linecap="round" stroke-linejoin="round"/>
<path fill-rule="evenodd" clip-rule="evenodd" d="M9.33333 11.9294H6.66667C6.29867 11.9294 6 11.6307 6 11.2627V9.92936C6 9.56136 6.29867 9.2627 6.66667 9.2627H9.33333C9.70133 9.2627 10 9.56136 10 9.92936V11.2627C10 11.6314 9.70133 11.9294 9.33333 11.9294Z" stroke="#E99947" stroke-width="1.3" stroke-linecap="round" stroke-linejoin="round"/>
<path d="M10 4V3.33333C10 2.59667 9.40333 2 8.66667 2H7.33333C6.59667 2 6 2.59667 6 3.33333V4" stroke="#E99947" stroke-width="1.3" stroke-linecap="round" stroke-linejoin="round"/>
<path d="M8.66634 6.66659H7.33301" stroke="#E99947" stroke-width="1.3" stroke-linecap="round" stroke-linejoin="round"/>
<path fill-rule="evenodd" clip-rule="evenodd" d="M9.33333 4H6.66667C5.194 4 4 5.194 4 6.66667V12.6667C4 13.4033 4.59667 14 5.33333 14H10.6667C11.4033 14 12 13.4033 12 12.6667V6.66667C12 5.194 10.806 4 9.33333 4Z" stroke="#E99947" stroke-width="1.3" stroke-linecap="round" stroke-linejoin="round"/>
</svg>
