<svg width="16" height="16" viewBox="0 0 16 16" fill="none" xmlns="http://www.w3.org/2000/svg">
<path d="M6.66699 8.00862C7.40366 7.11996 8.59699 7.11996 9.33366 8.00862" stroke="#5C6ECC" stroke-width="1.3" stroke-linecap="round" stroke-linejoin="round"/>
<path d="M5.88627 6.1143C6.92767 7.1557 6.92767 8.84414 5.88627 9.88554C4.84487 10.9269 3.15643 10.9269 2.11503 9.88554C1.07363 8.84414 1.07363 7.1557 2.11503 6.1143C3.15643 5.0729 4.84487 5.0729 5.88627 6.1143" stroke="#5C6ECC" stroke-width="1.3" stroke-linecap="round" stroke-linejoin="round"/>
<path d="M13.8863 6.1143C14.9277 7.1557 14.9277 8.84414 13.8863 9.88554C12.8449 10.9269 11.1564 10.9269 10.115 9.88554C9.07363 8.84414 9.07363 7.1557 10.115 6.1143C11.1564 5.0729 12.8449 5.0729 13.8863 6.1143" stroke="#5C6ECC" stroke-width="1.3" stroke-linecap="round" stroke-linejoin="round"/>
<path d="M1.33366 7.99984H0.666992" stroke="#5C6ECC" stroke-width="1.3" stroke-linecap="round" stroke-linejoin="round"/>
<path d="M15.3337 7.99984H14.667" stroke="#5C6ECC" stroke-width="1.3" stroke-linecap="round" stroke-linejoin="round"/>
</svg>