<svg width="32" height="32" viewBox="0 0 32 32" fill="none" xmlns="http://www.w3.org/2000/svg">
<path fill-rule="evenodd" clip-rule="evenodd" d="M24.5523 8.552L20.7817 4.78133C20.2817 4.28133 19.603 4 18.8963 4H9.33366C7.86033 4 6.66699 5.19333 6.66699 6.66667V25.3333C6.66699 26.8067 7.86033 28 9.33366 28H22.667C24.1403 28 25.3337 26.8067 25.3337 25.3333V10.4373C25.3337 9.73067 25.0523 9.052 24.5523 8.552V8.552Z" stroke="white" stroke-width="1.5" stroke-linecap="round" stroke-linejoin="round"/>
<path d="M25.3337 10.6667H20.0003C19.2643 10.6667 18.667 10.0693 18.667 9.33333V4" stroke="white" stroke-width="1.5" stroke-linecap="round" stroke-linejoin="round"/>
<path d="M10.667 14.6667H18.667" stroke="white" stroke-width="1.5" stroke-linecap="round" stroke-linejoin="round"/>
<path d="M10.667 18.6667H18.667" stroke="white" stroke-width="1.5" stroke-linecap="round" stroke-linejoin="round"/>
<path d="M10.667 22.6667H16.4403" stroke="white" stroke-width="1.5" stroke-linecap="round" stroke-linejoin="round"/>
</svg>
