<svg width="138" height="138" viewBox="0 0 138 138" fill="none" xmlns="http://www.w3.org/2000/svg">
<path fill-rule="evenodd" clip-rule="evenodd" d="M105.997 36.7469L89.7945 20.5448C87.646 18.3964 84.7299 17.1875 81.6934 17.1875H40.6038C34.2731 17.1875 29.1455 22.3151 29.1455 28.6458V108.854C29.1455 115.185 34.2731 120.312 40.6038 120.312H97.8955C104.226 120.312 109.354 115.185 109.354 108.854V44.8479C109.354 41.8115 108.145 38.8953 105.997 36.7469V36.7469Z" stroke="#758AA8" stroke-width="1.5" stroke-linecap="round" stroke-linejoin="round"/>
<path d="M109.354 45.8333H86.4372C83.2747 45.8333 80.708 43.2667 80.708 40.1042V17.1875" stroke="#758AA8" stroke-width="1.5" stroke-linecap="round" stroke-linejoin="round"/>
<path d="M46.333 63.0208H80.708" stroke="#758AA8" stroke-width="1.5" stroke-linecap="round" stroke-linejoin="round"/>
<path d="M46.333 80.2083H80.708" stroke="#758AA8" stroke-width="1.5" stroke-linecap="round" stroke-linejoin="round"/>
<path d="M46.333 97.3958H71.1403" stroke="#758AA8" stroke-width="1.5" stroke-linecap="round" stroke-linejoin="round"/>
</svg>
