<svg width="24" height="24" viewBox="0 0 24 24" fill="none" xmlns="http://www.w3.org/2000/svg">
<g clip-path="url(#clip0_1_2)">
<path d="M10.6125 6.44626C10.54 6.44501 8.65502 6.43126 7.37752 6.73126L6.86002 6.85251V17.3013L7.67002 17.1288C8.69627 16.9113 9.44127 17.09 10.305 17.2988C10.6588 17.3838 11.025 17.4725 11.4288 17.5388C11.5988 17.5663 11.7663 17.58 11.93 17.58C12.3675 17.58 12.7763 17.48 13.1325 17.285C13.5938 17.0313 13.945 16.6238 14.125 16.1375C14.3 15.6625 14.3 15.1375 14.1275 14.6588C13.9438 14.1513 13.5788 13.7213 13.0725 13.4163C12.815 13.2613 12.4725 13.1425 12.11 13.0175C11.765 12.8988 11.4088 12.775 11.12 12.6225C11.1138 12.62 11.1088 12.6163 11.1025 12.6138C10.7038 12.3988 10.52 11.925 10.6788 11.5013C10.68 11.4988 10.6813 11.4963 10.6813 11.4938C10.785 11.2213 11.1 10.8763 11.2425 10.7438L10.2813 9.80626C10.035 10.0363 9.62252 10.5025 9.42752 11.0175C9.21127 11.5875 9.21627 12.195 9.44252 12.775L9.45252 12.8C9.82502 13.6475 10.8488 14.0013 11.6713 14.2863C11.9525 14.3838 12.2438 14.4838 12.38 14.5663C12.62 14.7113 12.7875 14.9013 12.8663 15.1163C12.9325 15.2975 12.9325 15.4963 12.8663 15.675C12.6775 16.19 12.1125 16.2913 11.6475 16.215C11.2925 16.1563 10.9513 16.075 10.6213 15.995C9.88627 15.8175 9.13252 15.6363 8.20252 15.7013V7.93876C8.20252 7.93876 8.71252 7.82376 9.52002 7.83501C9.52002 7.83501 9.61502 7.09876 10.6125 6.44626Z" fill="#2E3238"/>
<path d="M13.3888 17.58C13.4613 17.5813 15.3463 17.595 16.6238 17.295L17.1413 17.1738V6.72501L16.3313 6.89751C15.305 7.11501 14.56 6.93626 13.6963 6.72751C13.3425 6.64251 12.9763 6.55376 12.5725 6.48751C12.4025 6.46001 12.235 6.44626 12.0713 6.44626C11.6338 6.44626 11.225 6.54626 10.8688 6.74126C10.4075 6.99501 10.0563 7.40251 9.87627 7.88876C9.70127 8.36376 9.70127 8.88876 9.87377 9.36751C10.0575 9.87501 10.4225 10.305 10.9288 10.61C11.1863 10.765 11.5288 10.8838 11.8913 11.0088C12.2363 11.1275 12.5925 11.2513 12.8813 11.4038C12.8875 11.4063 12.8925 11.41 12.8988 11.4125C13.2975 11.6275 13.4813 12.1013 13.3225 12.525C13.3213 12.5275 13.32 12.53 13.32 12.5325C13.2163 12.805 12.9013 13.15 12.7588 13.2825L13.72 14.22C13.9663 13.99 14.3788 13.5238 14.5738 13.0088C14.79 12.4388 14.785 11.8313 14.5588 11.2513L14.5488 11.2263C14.1763 10.3788 13.1525 10.025 12.33 9.74001C12.0488 9.64251 11.7575 9.54251 11.6213 9.46001C11.3813 9.31501 11.2138 9.12501 11.135 8.91001C11.0688 8.72876 11.0688 8.53001 11.135 8.35126C11.3238 7.83626 11.8888 7.73501 12.3538 7.81126C12.7088 7.87001 13.05 7.95126 13.38 8.03126C14.115 8.20876 14.8688 8.39001 15.7988 8.32501V16.0875C15.7988 16.0875 15.2888 16.2025 14.4813 16.1913C14.4813 16.1913 14.3863 16.9263 13.3888 17.58Z" fill="#2E3238"/>
<path d="M2.84624 4.91002L2.93999 4.78502C3.02124 4.67627 3.09124 4.61127 3.14999 4.59127C3.20749 4.57127 3.28249 4.59502 3.37374 4.66377L4.52124 5.52752C4.55874 5.55502 4.58749 5.58252 4.60874 5.60877C4.62999 5.63502 4.64374 5.66127 4.64999 5.68752C4.65624 5.71377 4.65499 5.74252 4.64499 5.77252C4.63499 5.80377 4.62124 5.83377 4.60374 5.86377C4.58499 5.89377 4.55999 5.93127 4.52624 5.97627L4.43249 6.10127L4.65999 6.27252L4.46874 6.52627L4.24124 6.35502L4.14749 6.48002C4.06499 6.58877 3.99499 6.65252 3.93624 6.67252C3.87749 6.69252 3.80374 6.66877 3.71374 6.60127L2.56374 5.73752C2.47249 5.66877 2.42874 5.60377 2.43249 5.54252C2.43624 5.48127 2.47874 5.39627 2.55999 5.28752L2.65374 5.16252L2.42624 4.99127L2.61749 4.73752L2.84624 4.91002ZM2.83499 5.29877L2.75999 5.39752C2.72874 5.43877 2.73624 5.47502 2.78124 5.50877L3.86999 6.32877C3.91499 6.36252 3.95249 6.35877 3.98249 6.31752L4.05749 6.21877L2.83499 5.29877ZM3.02624 5.04502L4.24874 5.96627L4.32374 5.86752C4.35499 5.82627 4.34749 5.79002 4.30249 5.75627L3.21374 4.93627C3.16874 4.90252 3.13124 4.90627 3.10124 4.94752L3.02624 5.04502Z" fill="#2E3238"/>
<path d="M4.09001 4.13876L4.12876 4.10001C4.31126 3.91751 4.47751 3.90251 4.62876 4.05251L5.22001 4.64251L4.84626 5.01626L5.13751 5.30751C5.17751 5.34751 5.21376 5.35001 5.24876 5.31501L5.30501 5.25876C5.33876 5.22376 5.33626 5.18751 5.29751 5.14751L5.14751 4.99876L5.36126 4.78501L5.49251 4.91626C5.64376 5.06751 5.62876 5.23376 5.44626 5.41626L5.40751 5.45501C5.22376 5.63876 5.05626 5.65626 4.90501 5.50501L4.04001 4.64251C3.89001 4.49126 3.90626 4.32376 4.09001 4.13876ZM4.28626 4.24251L4.23001 4.29876C4.19626 4.33376 4.19876 4.37001 4.23751 4.41001L4.70001 4.87126L4.86001 4.71126L4.39751 4.25001C4.35751 4.21001 4.32001 4.20751 4.28626 4.24251Z" fill="#2E3238"/>
<path d="M6.43376 4.26377L6.52251 4.19377L6.91251 4.69002L6.67501 4.87627L6.41626 4.54627L6.06251 4.82502L6.32126 5.15502L6.08376 5.34127L5.69376 4.84502L5.76501 4.78877C5.79001 4.76627 5.78751 4.73252 5.75626 4.68877L4.86251 3.45002L5.43876 2.99752L6.43376 4.26377ZM5.22501 3.43377L5.90751 4.38502C5.99126 4.50377 6.03251 4.57002 6.02876 4.58127L6.19501 4.45127L5.33126 3.35002L5.22501 3.43377Z" fill="#2E3238"/>
<path d="M6.19876 2.47878L6.24501 2.45003C6.46501 2.31628 6.63126 2.34128 6.74126 2.52503L7.17376 3.23878L6.72251 3.51253L6.93626 3.86503C6.96501 3.91253 7.00001 3.92378 7.04251 3.89878L7.11126 3.85753C7.15251 3.83253 7.15876 3.79628 7.13001 3.74753L7.02001 3.56628L7.27876 3.41003L7.37501 3.56878C7.48626 3.75128 7.43126 3.91003 7.21001 4.04378L7.16376 4.07253C6.94126 4.20753 6.77501 4.18253 6.66376 4.00003L6.03126 2.95503C5.92001 2.77128 5.97626 2.61253 6.19876 2.47878ZM6.36376 2.62503L6.29501 2.66628C6.25376 2.69128 6.24751 2.72753 6.27626 2.77628L6.61376 3.33503L6.80751 3.21753L6.47001 2.65878C6.44126 2.61128 6.40626 2.60003 6.36376 2.62503Z" fill="#2E3238"/>
<path d="M7.38874 1.84626L7.43874 1.82376C7.61999 1.74001 7.75499 1.79626 7.84499 1.99001L8.35499 3.09876C8.44499 3.29251 8.39874 3.43126 8.21749 3.51501L8.16749 3.53751C8.09874 3.56876 8.03749 3.57501 7.98249 3.55376L8.24874 4.13376L7.97374 4.26001L6.96374 2.06501L7.13624 1.98626L7.24124 2.05876C7.23999 1.96251 7.28874 1.89251 7.38874 1.84626ZM7.45374 2.04876L7.38374 2.08126C7.33999 2.10126 7.32874 2.13501 7.34999 2.18126L7.88749 3.35001C7.90874 3.39626 7.94124 3.41001 7.98624 3.38876L8.05624 3.35626C8.09999 3.33626 8.11124 3.30001 8.08749 3.25001L7.55499 2.09376C7.53124 2.04376 7.49749 2.02876 7.45374 2.04876Z" fill="#2E3238"/>
<path d="M8.46875 1.4275L8.52125 1.41C8.76625 1.33 8.92125 1.39125 8.98875 1.59375L9.46375 3.0375L9.28375 3.09625L9.1875 3.0125C9.1775 3.1075 9.12125 3.1725 9.0175 3.20625L8.9625 3.225C8.775 3.28625 8.64875 3.21625 8.58125 3.0125L8.4175 2.5175C8.35 2.315 8.41 2.1825 8.5975 2.12L8.6525 2.10125C8.72375 2.0775 8.78625 2.07875 8.8375 2.105L8.69125 1.66125C8.67375 1.60875 8.6425 1.58875 8.59625 1.605L8.52 1.63C8.47375 1.645 8.46 1.68 8.4775 1.7325L8.54125 1.92625L8.25375 2.02125L8.1975 1.85125C8.13125 1.65125 8.22125 1.50875 8.46875 1.4275ZM8.815 2.26875L8.73875 2.29375C8.6925 2.30875 8.67875 2.34375 8.69625 2.39625L8.87625 2.94375C8.89375 2.99625 8.925 3.01625 8.97125 3L9.0475 2.975C9.09375 2.96 9.10875 2.9275 9.0925 2.88L8.90875 2.3225C8.8925 2.27125 8.86125 2.25375 8.815 2.26875Z" fill="#2E3238"/>
<path d="M10.5438 2.79878L10.2438 2.86003L9.91876 1.28253L9.79001 1.30878L10.0188 2.72753C10.0288 2.78753 10.02 2.83878 9.99251 2.88003C9.96501 2.92128 9.92376 2.94753 9.86876 2.95878L9.65751 3.00253L9.61501 2.79503L9.66501 2.78503C9.70251 2.77753 9.71751 2.74628 9.70876 2.69003L9.45876 1.16128L10.1763 1.01378L10.5438 2.79878Z" fill="#2E3238"/>
<path d="M11 1.60001L11.265 1.57751C11.4388 1.56251 11.5338 1.64501 11.55 1.82751L11.6013 2.42001C11.6113 2.53126 11.5913 2.60751 11.5425 2.64626C11.4938 2.68626 11.4025 2.71126 11.2688 2.72251L10.7963 2.76376L10.64 0.94751L10.9413 0.92126L11 1.60001ZM11.0188 1.81126L11.0813 2.52626L11.23 2.51376C11.2788 2.51001 11.3 2.48001 11.295 2.42376L11.2475 1.87501C11.2425 1.81876 11.2163 1.79376 11.1675 1.79751L11.0188 1.81126Z" fill="#2E3238"/>
<path d="M12.6812 2.70876L12.375 2.70001L12.3987 1.83626L12.1762 1.83001L12.1525 2.69376L11.85 2.68501L11.9 0.862514L12.2025 0.871264L12.1812 1.61501L12.4037 1.62126L12.425 0.877514L12.7312 0.886264L12.6812 2.70876Z" fill="#2E3238"/>
<path d="M13.41 1.64125L13.6725 1.685C13.845 1.71375 13.9163 1.81875 13.8863 1.9975L13.7875 2.58375C13.7688 2.69375 13.7313 2.7625 13.6738 2.78875C13.6163 2.815 13.5213 2.81625 13.39 2.795L12.9225 2.71625L13.225 0.918747L13.5238 0.968747L13.41 1.64125ZM13.375 1.85L13.2563 2.55875L13.4038 2.58375C13.4513 2.59125 13.48 2.56875 13.49 2.51375L13.5813 1.97125C13.59 1.91625 13.5713 1.885 13.5238 1.87625L13.375 1.85ZM14.205 2.9325L13.9025 2.88125L14.205 1.08375L14.5075 1.135L14.205 2.9325Z" fill="#2E3238"/>
<path d="M15.195 3.24752L14.9025 3.15502L15.0513 2.68627L15.2625 2.05377L15.2488 2.04877L14.7125 3.09502L14.4038 2.99752L14.9525 1.26002L15.2413 1.35127L15.095 1.81377L14.8825 2.45002L14.8963 2.45502L15.4313 1.41252L15.7438 1.51127L15.195 3.24752ZM15.835 0.965017L15.7713 1.16627C15.7363 1.27752 15.6163 1.30127 15.4125 1.23627L15.36 1.22002C15.1563 1.15502 15.0713 1.06752 15.1063 0.956267L15.17 0.755017L15.41 0.831267L15.37 0.956267C15.3588 0.991267 15.3563 1.01877 15.3613 1.04002C15.3663 1.06127 15.385 1.07627 15.4175 1.08627L15.445 1.09502C15.475 1.10502 15.4988 1.10252 15.515 1.09002C15.5313 1.07752 15.5463 1.05252 15.5575 1.01502L15.5975 0.890017L15.835 0.965017Z" fill="#2E3238"/>
<path d="M17.1575 3.99002L17.2575 4.04877L16.9375 4.59252L16.6763 4.43877L16.8888 4.07752L16.3325 3.75002L17.2575 2.18002L17.5188 2.33377L16.7013 3.72252L16.8963 3.83752L17.7138 2.44877L17.975 2.60252L17.1575 3.99002Z" fill="#2E3238"/>
<path d="M18.7363 3.11501L18.78 3.14751C18.985 3.30251 19.0238 3.46626 18.8938 3.63626L18.39 4.30126L17.9688 3.98251L17.72 4.31126C17.6863 4.35626 17.6888 4.39251 17.7275 4.42251L17.7913 4.47126C17.83 4.50001 17.8663 4.49251 17.9 4.44876L18.0275 4.28001L18.2688 4.46251L18.1563 4.61126C18.0275 4.78126 17.86 4.78876 17.655 4.63376L17.6113 4.60126C17.4038 4.44376 17.365 4.28001 17.4938 4.11001L18.2313 3.13751C18.36 2.96501 18.5288 2.95751 18.7363 3.11501ZM18.66 3.32251L18.5963 3.27376C18.5575 3.24376 18.5213 3.25251 18.4875 3.29626L18.0938 3.81626L18.2738 3.95251L18.6675 3.43251C18.7013 3.38876 18.6988 3.35251 18.66 3.32251Z" fill="#2E3238"/>
<path d="M18.745 5.56627L18.5237 5.35502L19.12 4.73001L18.9587 4.57626L18.3625 5.20127L18.1437 4.99251L19.4037 3.67501L19.6225 3.88376L19.1087 4.42126L19.27 4.57501L19.7837 4.03751L20.005 4.24876L18.745 5.56627Z" fill="#2E3238"/>
<path d="M20.6262 5.28503L20.4712 5.10128L19.2362 6.13627L19.0412 5.90502L20.2762 4.87003L20.125 4.68753L20.2875 4.55128L20.7887 5.14878L20.6262 5.28503Z" fill="#2E3238"/>
<path d="M21.3212 5.86626L21.3512 5.91126C21.4612 6.07751 21.4287 6.21876 21.25 6.33751L20.235 7.01501C20.0575 7.13376 19.9125 7.11001 19.8025 6.94501L19.7725 6.90001C19.7312 6.83751 19.715 6.77751 19.7262 6.72001L19.1962 7.07376L19.0287 6.82251L21.0387 5.48001L21.1437 5.63751L21.0887 5.75251C21.1837 5.73751 21.2612 5.77501 21.3212 5.86626ZM21.1312 5.96251L21.0887 5.89876C21.0612 5.85876 21.0275 5.85251 20.985 5.88001L19.915 6.59501C19.8725 6.62376 19.865 6.65751 19.8912 6.69876L19.9337 6.76251C19.9612 6.80251 19.9975 6.80751 20.0437 6.77626L21.1012 6.07001C21.1487 6.03876 21.1587 6.00251 21.1312 5.96251Z" fill="#2E3238"/>
<path d="M22.7725 9.10002L22.7862 9.15252C22.8525 9.40127 22.7825 9.55377 22.5762 9.60877L21.3962 9.92502C21.19 9.98002 21.0525 9.88377 20.9862 9.63502L20.9725 9.58252C20.905 9.33127 20.975 9.17752 21.1812 9.12252L22.3612 8.80627C22.5687 8.75127 22.7062 8.84877 22.7725 9.10002ZM22.5862 9.21877L22.565 9.14127C22.5525 9.09377 22.5187 9.07752 22.465 9.09252L21.2362 9.42127C21.1825 9.43627 21.1612 9.46627 21.1737 9.51377L21.195 9.59127C21.2075 9.63877 21.2412 9.65502 21.295 9.64002L22.5237 9.31127C22.5775 9.29627 22.5987 9.26502 22.5862 9.21877Z" fill="#2E3238"/>
<path d="M23.8025 10.6738L23.59 10.7063C23.3788 10.7375 23.2588 10.6563 23.2288 10.4625L23.205 10.3038C23.1975 10.2563 23.165 10.2363 23.1075 10.245L22.96 10.2675C23.0075 10.305 23.0363 10.36 23.0475 10.435L23.055 10.4888C23.0838 10.6838 22.9925 10.7963 22.7813 10.8288L21.5738 11.01C21.3625 11.0413 21.2375 10.93 21.1988 10.675L21.19 10.6213C21.1513 10.3638 21.2375 10.22 21.4488 10.1875L23.035 9.94875C23.2463 9.9175 23.3663 9.99875 23.3963 10.1925L23.42 10.3513C23.4275 10.3988 23.4588 10.4188 23.5138 10.4113L23.755 10.375L23.8025 10.6738ZM22.835 10.44L22.8225 10.3613C22.815 10.3138 22.7838 10.2938 22.7288 10.3013L21.4713 10.49C21.4163 10.4988 21.3925 10.5263 21.3988 10.575L21.4113 10.6538C21.4188 10.7013 21.45 10.7213 21.505 10.7138L22.7625 10.525C22.8188 10.5163 22.8425 10.4875 22.835 10.44Z" fill="#2E3238"/>
<path d="M23.16 11.6975L23.1625 11.7525C23.17 11.9513 23.0663 12.055 22.8525 12.0625L21.6325 12.105C21.4188 12.1125 21.3088 12.0163 21.3013 11.8175L21.2988 11.7625C21.2963 11.6875 21.315 11.6288 21.355 11.585L20.7175 11.6075L20.7063 11.305L23.1213 11.22L23.1275 11.41L23.02 11.48C23.11 11.515 23.1563 11.5888 23.16 11.6975ZM22.9475 11.6788L22.945 11.6025C22.9438 11.5538 22.9175 11.53 22.8663 11.5325L21.58 11.5775C21.5288 11.5788 21.5038 11.605 21.5063 11.6525L21.5088 11.7288C21.51 11.7775 21.5388 11.8 21.595 11.7988L22.8663 11.7538C22.9225 11.7538 22.95 11.7275 22.9475 11.6788Z" fill="#2E3238"/>
<path d="M23.13 12.8563L23.1262 12.9113C23.1062 13.1675 22.99 13.2875 22.7762 13.2713L21.2612 13.1525L21.2762 12.9638L21.39 12.9075C21.3062 12.8625 21.2675 12.785 21.2762 12.675L21.2812 12.6163C21.2962 12.42 21.4112 12.33 21.6237 12.3475L22.1437 12.3888C22.3575 12.405 22.4562 12.5125 22.44 12.7088L22.435 12.7675C22.4287 12.8425 22.4037 12.8988 22.36 12.9375L22.825 12.9738C22.8812 12.9775 22.91 12.9563 22.9137 12.9075L22.92 12.8275C22.9237 12.7788 22.8975 12.7525 22.8425 12.7488L22.6387 12.7325L22.6625 12.4313L22.84 12.445C23.0537 12.4588 23.15 12.5963 23.13 12.8563ZM22.22 12.85L22.2262 12.77C22.23 12.7213 22.2037 12.695 22.1487 12.6913L21.575 12.6463C21.5187 12.6425 21.49 12.6638 21.4862 12.7125L21.48 12.7925C21.4762 12.8413 21.5 12.8675 21.5512 12.8713L22.1362 12.9175C22.1875 12.9213 22.2162 12.8988 22.22 12.85Z" fill="#2E3238"/>
<path d="M22.9662 14.0963L22.96 14.1325C22.9112 14.385 22.7825 14.4913 22.5725 14.4513L22.275 14.3938C22.125 14.365 22.06 14.28 22.0825 14.1375C22.0462 14.2888 21.9425 14.3488 21.7737 14.315L21.3687 14.2375C21.1587 14.1975 21.0775 14.05 21.1262 13.7975L21.1362 13.7438C21.185 13.4888 21.315 13.3813 21.525 13.4213L21.7 13.455L21.6425 13.7525L21.4425 13.7138C21.3875 13.7038 21.355 13.7213 21.3462 13.77L21.3312 13.8488C21.3225 13.8963 21.345 13.925 21.4 13.9363L21.8975 14.0325C21.9525 14.0425 21.985 14.025 21.9937 13.9763L22.0237 13.8188L22.2312 13.8588L22.205 13.9988C22.1962 14.0463 22.2187 14.075 22.2737 14.0863L22.6537 14.1588C22.7087 14.1688 22.7412 14.1513 22.75 14.1025L22.7612 14.0413C22.77 13.9938 22.7475 13.9638 22.6925 13.9538L22.4925 13.915L22.55 13.6175L22.725 13.6513C22.935 13.6938 23.015 13.8413 22.9662 14.0963Z" fill="#2E3238"/>
<path d="M22.6662 15.3037L22.65 15.3562C22.5737 15.6025 22.4325 15.6937 22.2287 15.63L21.0625 15.2662C20.8587 15.2025 20.795 15.0475 20.8712 14.8025L20.8875 14.75C20.965 14.5012 21.1062 14.41 21.31 14.4725L22.4762 14.8362C22.68 14.9 22.7437 15.0562 22.6662 15.3037ZM22.4437 15.3037L22.4675 15.2275C22.4825 15.1812 22.4625 15.15 22.4087 15.1325L21.1937 14.7537C21.14 14.7375 21.1062 14.7525 21.0925 14.7987L21.0687 14.875C21.0537 14.9212 21.0737 14.9525 21.1275 14.97L22.3425 15.3487C22.3962 15.365 22.43 15.35 22.4437 15.3037Z" fill="#2E3238"/>
<path d="M22.3625 16.13L22.1788 16.5475C22.125 16.67 22.0713 16.7475 22.0175 16.7813C21.9638 16.815 21.8863 16.8088 21.7838 16.7638L21.48 16.63C21.34 16.5688 21.2963 16.4713 21.35 16.3375C21.28 16.4763 21.1675 16.5113 21.0088 16.4425L20.6088 16.2663C20.5063 16.2213 20.45 16.1675 20.4375 16.1075C20.4263 16.0463 20.4475 15.955 20.5013 15.8325L20.6938 15.395L22.3625 16.13ZM21.3625 16.02L20.765 15.7563L20.7038 15.8963C20.6838 15.9413 20.7 15.9738 20.7513 15.9963L21.195 16.1925C21.2463 16.215 21.2813 16.2038 21.3013 16.16L21.3625 16.02ZM22.0463 16.3213L21.5563 16.105L21.5013 16.2288C21.4813 16.2738 21.4975 16.3063 21.5488 16.3288L21.885 16.4775C21.9363 16.5 21.9713 16.4888 21.9913 16.445L22.0463 16.3213Z" fill="#2E3238"/>
<path d="M21.665 17.5925L21.6375 17.64C21.5075 17.8625 21.3512 17.92 21.1662 17.8125L19.8525 17.0475L19.9475 16.8838L20.075 16.8825C20.0187 16.805 20.0187 16.7188 20.0737 16.6238L20.1025 16.5738C20.2012 16.4038 20.3437 16.3725 20.5287 16.48L20.9787 16.7425C21.1637 16.85 21.2062 16.9888 21.1075 17.1588L21.0787 17.2088C21.0412 17.2738 20.9937 17.3138 20.9375 17.3288L21.3412 17.5638C21.39 17.5913 21.4262 17.585 21.45 17.5425L21.49 17.4738C21.515 17.4313 21.5025 17.3963 21.4537 17.3688L21.2775 17.2663L21.43 17.005L21.5837 17.095C21.7687 17.2013 21.7962 17.3675 21.665 17.5925ZM20.8475 17.1925L20.8875 17.1238C20.9125 17.0813 20.9 17.0463 20.8512 17.0188L20.3537 16.7288C20.305 16.7 20.2687 16.7075 20.245 16.75L20.205 16.8188C20.18 16.8613 20.19 16.895 20.235 16.92L20.7425 17.215C20.7875 17.2413 20.8225 17.2338 20.8475 17.1925Z" fill="#2E3238"/>
<path d="M20.575 18.8025L20.7175 18.6088L19.4187 17.655L19.5975 17.4113L20.8962 18.365L21.0362 18.1738L21.2062 18.2988L20.745 18.9275L20.575 18.8025Z" fill="#2E3238"/>
<path d="M20.2463 19.535L20.2088 19.575C20.035 19.765 19.8688 19.7875 19.7113 19.6438L19.095 19.0813L19.4513 18.6913L19.1475 18.4138C19.1063 18.3763 19.0688 18.375 19.0363 18.4113L18.9825 18.47C18.95 18.5063 18.9538 18.5425 18.995 18.58L19.1513 18.7225L18.9475 18.9463L18.81 18.8213C18.6525 18.6775 18.66 18.51 18.8338 18.32L18.8713 18.28C19.0463 18.0875 19.2138 18.0638 19.3713 18.2088L20.2725 19.0325C20.43 19.175 20.4213 19.3425 20.2463 19.535ZM20.0463 19.44L20.1 19.3813C20.1325 19.345 20.1288 19.3088 20.0875 19.2713L19.6063 18.8313L19.4538 18.9975L19.935 19.4375C19.9763 19.475 20.0125 19.4763 20.0463 19.44Z" fill="#2E3238"/>
<path d="M17.78 19.3388L18.0112 19.1387L19.0662 20.3563L19.165 20.27L18.2712 19.1438C18.2337 19.0962 18.2162 19.0475 18.22 18.9975C18.2237 18.9475 18.2462 18.905 18.2887 18.8675L18.4512 18.7262L18.59 18.8862L18.5512 18.92C18.5225 18.945 18.525 18.98 18.5587 19.0238L19.5262 20.235L18.9725 20.715L17.78 19.3388Z" fill="#2E3238"/>
<path d="M17.9663 20.6075L17.7463 20.7575C17.6013 20.8563 17.4775 20.83 17.375 20.6788L17.0413 20.1875C16.9788 20.095 16.9588 20.02 16.9825 19.9613C17.0063 19.9025 17.0725 19.8363 17.1838 19.7613L17.5763 19.495L18.6 21.0025L18.35 21.1725L17.9663 20.6075ZM17.8475 20.4325L17.4438 19.8388L17.32 19.9225C17.28 19.95 17.275 19.9863 17.3063 20.0325L17.615 20.4875C17.6463 20.5338 17.6825 20.5438 17.7225 20.5163L17.8475 20.4325Z" fill="#2E3238"/>
<path d="M15.9587 20.46L16.23 20.3188L16.63 21.085L16.8275 20.9825L16.4275 20.2163L16.6962 20.0763L17.54 21.6913L17.2712 21.8313L16.9262 21.1725L16.7287 21.275L17.0737 21.9338L16.8025 22.075L15.9587 20.46Z" fill="#2E3238"/>
<path d="M16.0413 22.415L15.99 22.435C15.75 22.5275 15.5913 22.4738 15.5138 22.275L15.075 21.135C14.9988 20.935 15.08 20.7888 15.32 20.6963L15.3713 20.6763C15.6138 20.5825 15.7738 20.6363 15.85 20.835L16.2888 21.975C16.3663 22.175 16.2838 22.3225 16.0413 22.415ZM15.9038 22.2413L15.9788 22.2125C16.0238 22.195 16.0363 22.16 16.0163 22.1075L15.5588 20.92C15.5388 20.8675 15.5063 20.85 15.46 20.8675L15.385 20.8963C15.34 20.9138 15.3275 20.9488 15.3475 21.0013L15.805 22.1888C15.825 22.2425 15.8588 22.2588 15.9038 22.2413Z" fill="#2E3238"/>
<path d="M14.4312 22.6763L14.865 22.5613L14.45 21.0038L14.7425 20.9263L15.2112 22.6875L14.4862 22.8813L14.4312 22.6763Z" fill="#2E3238"/>
<path d="M13.7225 23.0388L13.6688 23.0475C13.4138 23.0863 13.27 23.0013 13.2375 22.7888L13.0513 21.5825C13.0188 21.3713 13.13 21.2463 13.3838 21.2063L13.4375 21.1975C13.695 21.1575 13.8388 21.2438 13.8713 21.455L14.0575 22.6613C14.0913 22.8738 13.9788 22.9988 13.7225 23.0388ZM13.625 22.84L13.7038 22.8275C13.7513 22.82 13.7713 22.7888 13.7625 22.7338L13.5688 21.4763C13.56 21.4213 13.5325 21.3975 13.4838 21.405L13.405 21.4175C13.3575 21.425 13.3375 21.4563 13.3463 21.5113L13.54 22.7688C13.5488 22.8225 13.5775 22.8475 13.625 22.84Z" fill="#2E3238"/>
<path d="M10.1075 23.0125L10.0712 23.0063C9.81749 22.9625 9.70874 22.835 9.74624 22.6238L9.79874 22.3263C9.82499 22.175 9.90874 22.11 10.0512 22.13C9.89874 22.0963 9.83749 21.9938 9.86749 21.8238L9.93874 21.4175C9.97499 21.2063 10.1212 21.1238 10.375 21.1675L10.4287 21.1775C10.685 21.2225 10.795 21.35 10.7575 21.56L10.7262 21.7363L10.4287 21.6838L10.4637 21.4825C10.4737 21.4275 10.4537 21.3963 10.4062 21.3875L10.3275 21.3738C10.28 21.365 10.2512 21.3888 10.2412 21.4438L10.1537 21.9425C10.1437 21.9975 10.1637 22.0288 10.2112 22.0375L10.3687 22.065L10.3325 22.2738L10.1925 22.2488C10.145 22.24 10.1162 22.2638 10.1062 22.3188L10.04 22.7C10.03 22.755 10.05 22.7863 10.0975 22.795L10.1587 22.8063C10.2062 22.815 10.235 22.7913 10.245 22.7363L10.28 22.535L10.5775 22.5875L10.5462 22.7638C10.51 22.975 10.3637 23.0575 10.1075 23.0125Z" fill="#2E3238"/>
<path d="M8.90626 22.7363L8.85376 22.7213C8.60626 22.6488 8.51251 22.51 8.57251 22.305L9.00001 20.8463L9.18251 20.9L9.21501 21.0238C9.27751 20.9513 9.36001 20.93 9.46501 20.96L9.52126 20.9763C9.71001 21.0313 9.77501 21.1613 9.71501 21.3675L9.56876 21.8675C9.50876 22.0725 9.38376 22.1475 9.19501 22.0925L9.13876 22.0763C9.06626 22.055 9.01626 22.0188 8.98876 21.9675L8.85751 22.415C8.84126 22.4688 8.85751 22.5025 8.90376 22.5163L8.98126 22.5388C9.02751 22.5525 9.05876 22.5325 9.07501 22.4788L9.13251 22.2825L9.42251 22.3675L9.37251 22.5388C9.31001 22.7438 9.15501 22.81 8.90626 22.7363ZM9.09751 21.8475L9.17501 21.87C9.22126 21.8838 9.25251 21.8638 9.26876 21.81L9.43001 21.2575C9.44626 21.2038 9.43001 21.17 9.38376 21.1563L9.30626 21.1338C9.26001 21.12 9.22876 21.1375 9.21501 21.1863L9.05001 21.75C9.03501 21.8013 9.05126 21.8338 9.09751 21.8475Z" fill="#2E3238"/>
<path d="M7.82373 21.4463L8.01748 20.4475L8.28873 20.5613L8.10373 21.4525L8.14498 21.47L8.48998 20.6463L8.76873 20.7638L8.06373 22.445L7.78498 22.3275L8.06248 21.665L8.02248 21.6488L7.59998 22.25L7.32748 22.1363L7.82373 21.4463Z" fill="#2E3238"/>
<path d="M6.595 21.775L6.5475 21.7488C6.3225 21.6238 6.2625 21.4675 6.36625 21.28L6.96125 20.2138C7.065 20.0275 7.23 19.9963 7.455 20.1213L7.5025 20.1475C7.73 20.2738 7.79125 20.4313 7.6875 20.6175L7.0925 21.6838C6.9875 21.8725 6.8225 21.9025 6.595 21.775ZM6.64125 21.5588L6.71125 21.5975C6.75375 21.6213 6.78875 21.6088 6.81625 21.56L7.43625 20.4488C7.46375 20.4 7.45625 20.3638 7.41375 20.34L7.34375 20.3013C7.30125 20.2775 7.26625 20.29 7.23875 20.3388L6.61875 21.45C6.59 21.4988 6.59875 21.535 6.64125 21.5588Z" fill="#2E3238"/>
<path d="M6.23375 19.345L6.4825 19.5238L5.98 20.2263L6.16125 20.3563L6.66375 19.6538L6.91 19.83L5.84875 21.3125L5.6025 21.1363L6.035 20.5313L5.85375 20.4013L5.42125 21.0063L5.1725 20.8275L6.23375 19.345Z" fill="#2E3238"/>
<path d="M4.52502 20.3L4.48502 20.2638C4.29377 20.0913 4.27002 19.925 4.41377 19.7663L5.23252 18.86C5.37627 18.7013 5.54377 18.7088 5.73377 18.8813L5.77377 18.9175C5.96627 19.0925 5.99127 19.2588 5.84752 19.4175L5.02877 20.3238C4.88627 20.4825 4.71752 20.475 4.52502 20.3ZM4.61877 20.1L4.67877 20.1538C4.71502 20.1863 4.75127 20.1825 4.78877 20.14L5.64252 19.1963C5.68002 19.155 5.68127 19.1175 5.64502 19.085L5.58502 19.0313C5.54877 18.9988 5.51252 19.0025 5.47502 19.045L4.62127 19.9888C4.58252 20.03 4.58252 20.0663 4.61877 20.1Z" fill="#2E3238"/>
<path d="M4.52751 17.945L4.45376 17.86L4.93001 17.4475L5.12876 17.6763L4.81251 17.9513L5.10626 18.29L5.42251 18.015L5.62126 18.2438L5.14501 18.6563L5.08501 18.5875C5.06126 18.5638 5.02751 18.5675 4.98626 18.6013L3.79126 19.555L3.31126 19.0013L4.52751 17.945ZM3.75626 19.1925L4.67376 18.465C4.78876 18.375 4.85251 18.3313 4.86376 18.3338L4.72501 18.1738L3.66751 19.09L3.75626 19.1925Z" fill="#2E3238"/>
<path d="M2.76123 18.275L2.73123 18.23C2.58748 18.0163 2.60498 17.85 2.78248 17.73L4.04373 16.8825L4.14998 17.04L4.09623 17.155C4.18998 17.1388 4.26873 17.175 4.32873 17.2663L4.36123 17.315C4.47123 17.4788 4.43748 17.62 4.25998 17.7388L3.82748 18.03C3.64998 18.1488 3.50623 18.1275 3.39623 17.9638L3.36373 17.915C3.32123 17.8525 3.30623 17.7925 3.31748 17.735L2.92998 17.995C2.88373 18.0263 2.87373 18.0625 2.90123 18.1025L2.94623 18.1688C2.97373 18.2088 3.00998 18.2138 3.05623 18.1825L3.22623 18.0688L3.39498 18.32L3.24623 18.42C3.06748 18.5388 2.90623 18.4913 2.76123 18.275ZM3.47748 17.7138L3.52248 17.78C3.54998 17.82 3.58623 17.825 3.63248 17.7938L4.10998 17.4725C4.15623 17.4413 4.16623 17.405 4.13873 17.365L4.09373 17.2988C4.06623 17.2588 4.03248 17.2525 3.98998 17.2813L3.50248 17.6088C3.45998 17.6388 3.45123 17.6738 3.47748 17.7138Z" fill="#2E3238"/>
<path d="M2.15 16.7663L2.2625 16.9788L3.68875 16.2288L3.83 16.4963L2.40375 17.2463L2.51375 17.4563L2.32625 17.555L1.96375 16.865L2.15 16.7663Z" fill="#2E3238"/>
<path d="M1.63625 16.15L1.61625 16.0988C1.52125 15.8588 1.57375 15.7 1.7725 15.6213L2.54875 15.3138L2.74375 15.805L3.12625 15.6538C3.17875 15.6338 3.195 15.6 3.1775 15.555L3.1475 15.48C3.13 15.435 3.095 15.4225 3.0425 15.4425L2.84625 15.52L2.735 15.2388L2.9075 15.17C3.10625 15.0913 3.25375 15.1713 3.3475 15.4113L3.3675 15.4625C3.46375 15.7038 3.41125 15.865 3.2125 15.9438L2.0775 16.3938C1.87875 16.4738 1.7325 16.3925 1.63625 16.15ZM1.80875 16.0113L1.83875 16.0863C1.85625 16.1313 1.89125 16.1438 1.94375 16.1238L2.55 15.8838L2.46625 15.6738L1.86 15.9138C1.8075 15.9338 1.79125 15.9663 1.80875 16.0113Z" fill="#2E3238"/>
<path d="M2.89001 14.0175L2.97001 14.3138L1.41376 14.7313L1.44751 14.8575L2.85001 14.545C2.90876 14.5313 2.96001 14.5375 3.00376 14.5625C3.04751 14.5875 3.07626 14.6263 3.09001 14.6813L3.14626 14.8888L2.94251 14.9438L2.92876 14.895C2.91876 14.8575 2.88626 14.845 2.83126 14.8575L1.31876 15.2L1.12876 14.4925L2.89001 14.0175Z" fill="#2E3238"/>
<path d="M1.6675 13.6325L1.62875 13.3688C1.60375 13.1963 1.68125 13.0963 1.86125 13.0688L2.44875 12.9825C2.55875 12.9663 2.63625 12.9813 2.67875 13.0275C2.72125 13.0738 2.7525 13.1638 2.77125 13.2963L2.84 13.765L1.0375 14.0313L0.993752 13.7325L1.6675 13.6325ZM1.87625 13.6025L2.58625 13.4975L2.565 13.35C2.5575 13.3025 2.52625 13.2825 2.47125 13.29L1.92625 13.37C1.87125 13.3788 1.84625 13.4063 1.85375 13.4538L1.87625 13.6025Z" fill="#2E3238"/>
<path d="M0.847499 12.41L0.844999 12.355C0.836249 12.0975 0.938749 11.965 1.1525 11.9575L1.33875 11.9513L1.34875 12.2538L1.1375 12.2613C1.08125 12.2638 1.055 12.2888 1.05625 12.3375L1.05875 12.4175C1.06 12.4663 1.08875 12.49 1.145 12.4875L2.41625 12.4438C2.4725 12.4413 2.49875 12.4163 2.4975 12.3675L2.495 12.2875C2.49375 12.2388 2.465 12.215 2.40875 12.2175L2.1975 12.225L2.1875 11.9225L2.37375 11.9163C2.5875 11.9088 2.69875 12.0338 2.7075 12.2913L2.71 12.3463C2.71875 12.6063 2.61625 12.74 2.4025 12.7475L1.1825 12.79C0.967499 12.7963 0.856249 12.67 0.847499 12.41Z" fill="#2E3238"/>
<path d="M1.12623 10.8288L1.10873 11.0688L2.71623 11.185L2.69373 11.4863L1.08748 11.3713L1.06998 11.6075L0.858734 11.5925L0.914984 10.815L1.12623 10.8288Z" fill="#2E3238"/>
<path d="M0.967506 10.4013L1.05001 9.95253C1.07376 9.82128 1.10876 9.73253 1.15251 9.68753C1.19626 9.64253 1.27376 9.63003 1.38376 9.65003L1.71001 9.71003C1.86001 9.73753 1.92501 9.82253 1.90376 9.96377C1.93876 9.81253 2.04126 9.75128 2.21126 9.78253L2.64126 9.86128C2.75126 9.88128 2.81876 9.92003 2.84501 9.97627C2.87001 10.0325 2.87126 10.1263 2.84751 10.2588L2.76126 10.7288L0.967506 10.4013ZM1.23001 10.1425L1.75751 10.2388L1.78126 10.1063C1.79001 10.0588 1.76751 10.03 1.71251 10.02L1.35001 9.95378C1.29501 9.94378 1.26376 9.96253 1.25501 10.01L1.23001 10.1425ZM1.96501 10.2763L2.60626 10.3938L2.63376 10.2438C2.64251 10.1963 2.62001 10.1675 2.56501 10.1575L2.08751 10.07C2.03251 10.06 2.00126 10.0788 1.99251 10.1263L1.96501 10.2763Z" fill="#2E3238"/>
<path d="M1.30751 8.81377L1.32376 8.76127C1.39876 8.51502 1.53876 8.42252 1.74251 8.48502L3.19751 8.92502L3.14251 9.10627L3.01876 9.13752C3.09126 9.20001 3.11126 9.28376 3.08001 9.38876L3.06251 9.44501C3.00501 9.63376 2.87501 9.69626 2.67001 9.63501L2.17126 9.48376C1.96626 9.42126 1.89251 9.29626 1.95001 9.10752L1.96751 9.05127C1.98876 8.97877 2.02626 8.93002 2.07751 8.90127L1.63126 8.76627C1.57751 8.75002 1.54376 8.76502 1.53001 8.81127L1.50626 8.88752C1.49251 8.93377 1.51126 8.96502 1.56501 8.98127L1.76001 9.04002L1.67251 9.33001L1.50126 9.27876C1.29626 9.21751 1.23251 9.06252 1.30751 8.81377ZM2.19501 9.01377L2.17126 9.09002C2.15751 9.13627 2.17626 9.16752 2.23001 9.18377L2.78126 9.35126C2.83501 9.36751 2.86876 9.35251 2.88251 9.30626L2.90626 9.23002C2.92001 9.18377 2.90251 9.15252 2.85376 9.13752L2.29251 8.96752C2.24251 8.95252 2.20876 8.96752 2.19501 9.01377Z" fill="#2E3238"/>
</g>
<defs>
<clipPath id="clip0_1_2">
<rect width="24" height="24" fill="white"/>
</clipPath>
</defs>
</svg>
