<svg width="24" height="24" viewBox="0 0 24 24" fill="none" xmlns="http://www.w3.org/2000/svg">
<path d="M4.75 10.0021H7.647C8.732 10.0021 9.611 9.12307 9.611 8.03807V8.03807C9.611 7.51707 9.404 7.01707 9.036 6.64907L7.332 4.94507" stroke="white" stroke-width="1.4423" stroke-linecap="round" stroke-linejoin="round"/>
<path d="M15.3689 14.4729L14.1349 12.6219C13.9119 12.2869 13.5359 12.0859 13.1329 12.0859V12.0859C12.6769 12.0859 12.2599 11.8279 12.0559 11.4199L11.9639 11.2349C11.7939 10.8959 11.7939 10.4969 11.9639 10.1579L12.7509 8.58495C12.9549 8.17695 13.3719 7.91895 13.8279 7.91895H16.8889" stroke="white" stroke-width="1.4423" stroke-linecap="round" stroke-linejoin="round"/>
<path d="M14 22H8" stroke="white" stroke-width="1.5" stroke-linecap="round" stroke-linejoin="round"/>
<path d="M4 17L4.636 16.364C8.15 19.878 13.85 19.879 17.364 16.364C20.878 12.85 20.878 7.15 17.364 3.636C17.023 3.295 16.656 2.997 16.278 2.722L17 2" stroke="white" stroke-width="1.5" stroke-linecap="round" stroke-linejoin="round"/>
<path d="M11 19V22" stroke="white" stroke-width="1.5" stroke-linecap="round" stroke-linejoin="round"/>
<path d="M15.4194 5.58254C17.8602 8.02332 17.8602 11.9806 15.4194 14.4214C12.9786 16.8621 9.02135 16.8621 6.58059 14.4214C4.13981 11.9806 4.13981 8.02331 6.58059 5.58254C9.02136 3.14176 12.9786 3.14176 15.4194 5.58254" stroke="white" stroke-width="1.4423" stroke-linecap="round" stroke-linejoin="round"/>
</svg>
