<svg width="20" height="20" viewBox="0 0 20 20" fill="none" xmlns="http://www.w3.org/2000/svg">
<path fill-rule="evenodd" clip-rule="evenodd" d="M2.5 9.40915C2.5 11.645 3.68333 13.6133 5.49917 14.8542C5.49833 15.5667 5.5 16.5267 5.5 17.5342L8.4425 16.0783C8.94583 16.175 9.46583 16.2275 10 16.2275C14.1267 16.2275 17.5 13.1917 17.5 9.40915C17.5 5.62665 14.1267 2.59082 10 2.59082C5.87333 2.59082 2.5 5.62665 2.5 9.40915Z" stroke="#FFFFFF" stroke-width="1.5" stroke-linecap="round" stroke-linejoin="round"/>
<path d="M9.9157 10.2735V10.101C9.9157 9.53596 10.2649 9.23013 10.6149 8.99513C10.9565 8.76513 11.299 8.46513 11.299 7.9118C11.299 7.14763 10.6799 6.5293 9.91654 6.5293C9.1532 6.5293 8.5332 7.1468 8.5332 7.91096" stroke="#FFFFFF" stroke-width="1.5" stroke-linecap="round" stroke-linejoin="round"/>
<path d="M9.91584 12.2223C9.84667 12.2223 9.79084 12.2782 9.79167 12.3473C9.79167 12.4165 9.8475 12.4723 9.91667 12.4723C9.98584 12.4723 10.0417 12.4165 10.0417 12.3473C10.0417 12.2782 9.98667 12.2223 9.91584 12.2223" stroke="#FFFFFF" stroke-width="1.5" stroke-linecap="round" stroke-linejoin="round"/>
</svg>
