<svg width="20" height="20" viewBox="0 0 20 20" fill="none" xmlns="http://www.w3.org/2000/svg">
<path fill-rule="evenodd" clip-rule="evenodd" d="M17.849 10.982C17.9633 11.1673 18.0175 11.3833 18.0043 11.6006C17.9067 13.3876 16.461 14.8044 14.6725 14.866C12.8828 14.806 11.4356 13.3887 11.3383 11.6006C11.3237 11.3814 11.3774 11.1631 11.4919 10.9756L14.6693 5.59814C14.6693 5.59814 17.1719 9.83991 17.849 10.982Z" stroke="#FFFFFF" stroke-width="1.5" stroke-linecap="round" stroke-linejoin="round"/>
<path d="M17.9723 11.2669H11.3672" stroke="#FFFFFF" stroke-width="1.5" stroke-linecap="round" stroke-linejoin="round"/>
<path fill-rule="evenodd" clip-rule="evenodd" d="M8.51186 13.7169C8.62543 13.9032 8.67855 14.1202 8.66392 14.3379C8.56749 16.1251 7.12166 17.5424 5.33294 17.6033C3.54356 17.5438 2.09608 16.1272 1.99795 14.3395C1.98491 14.1193 2.04087 13.9005 2.15801 13.7136L5.33534 8.33301L8.51186 13.7169Z" stroke="#FFFFFF" stroke-width="1.5" stroke-linecap="round" stroke-linejoin="round"/>
<path d="M8.63445 14.0017H2.0293" stroke="#FFFFFF" stroke-width="1.5" stroke-linecap="round" stroke-linejoin="round"/>
<path d="M14.6687 5.59814L5.33203 8.33288" stroke="#FFFFFF" stroke-width="1.5" stroke-linecap="round" stroke-linejoin="round"/>
<path d="M9.33376 3.99756V7.16128" stroke="#FFFFFF" stroke-width="1.5" stroke-linecap="round" stroke-linejoin="round"/>
</svg>
