<svg width="40" height="25" viewBox="0 0 40 25" fill="none" xmlns="http://www.w3.org/2000/svg">
<path fill-rule="evenodd" clip-rule="evenodd" d="M0 6.4C0 4.15979 0 3.03969 0.435974 2.18404C0.819467 1.43139 1.43139 0.819467 2.18404 0.435974C3.03969 0 4.15979 0 6.4 0H31.3469L40 8.75V18.6C40 20.8402 40 21.9603 39.564 22.816C39.1805 23.5686 38.5686 24.1805 37.816 24.564C36.9603 25 35.8402 25 33.6 25H6.4C4.15979 25 3.03969 25 2.18404 24.564C1.43139 24.1805 0.819467 23.5686 0.435974 22.816C0 21.9603 0 20.8402 0 18.6V6.4Z" fill="#FFEFEC"/>
<mask id="mask0_2343:46442" style="mask-type:alpha" maskUnits="userSpaceOnUse" x="0" y="0" width="40" height="25">
<path fill-rule="evenodd" clip-rule="evenodd" d="M0 6.4C0 4.15979 0 3.03969 0.435974 2.18404C0.819467 1.43139 1.43139 0.819467 2.18404 0.435974C3.03969 0 4.15979 0 6.4 0H31.3469L40 8.75V18.6C40 20.8402 40 21.9603 39.564 22.816C39.1805 23.5686 38.5686 24.1805 37.816 24.564C36.9603 25 35.8402 25 33.6 25H6.4C4.15979 25 3.03969 25 2.18404 24.564C1.43139 24.1805 0.819467 23.5686 0.435974 22.816C0 21.9603 0 20.8402 0 18.6V6.4Z" fill="white"/>
</mask>
<g mask="url(#mask0_2343:46442)">
<path opacity="0.05" d="M31.25 0L39.9992 8.75H35.25C33.0409 8.75 31.25 6.95914 31.25 4.75L31.25 0Z" fill="black"/>
</g>
<path d="M13.0573 15.6978C13.4033 15.6978 13.6084 15.4884 13.6084 15.1252V13.5872H14.856C16.1035 13.5872 16.9794 12.754 16.9794 11.5236C16.9794 10.2931 16.1292 9.45996 14.903 9.45996H13.0573C12.7155 9.45996 12.5061 9.67358 12.5061 10.0325V15.1252C12.5061 15.4884 12.7155 15.6978 13.0573 15.6978ZM13.6084 12.6985V10.3615H14.6124C15.4028 10.3615 15.86 10.7844 15.86 11.5236C15.86 12.2712 15.3986 12.6985 14.6082 12.6985H13.6084Z" fill="#FE5B3B"/>
<path d="M18.338 15.6251H20.0385C21.8842 15.6251 22.9694 14.4801 22.9694 12.5276C22.9694 10.5751 21.8799 9.45996 20.0385 9.45996H18.338C17.9962 9.45996 17.7869 9.67358 17.7869 10.0325V15.0526C17.7869 15.4115 17.9962 15.6251 18.338 15.6251ZM18.8892 14.6937V10.3914H19.9231C21.1536 10.3914 21.8457 11.1519 21.8457 12.5319C21.8457 13.9375 21.1621 14.6937 19.9231 14.6937H18.8892Z" fill="#FE5B3B"/>
<path d="M24.3964 15.6978C24.7424 15.6978 24.9475 15.4884 24.9475 15.1252V13.1086H27.1222C27.4127 13.1086 27.605 12.9377 27.605 12.66C27.605 12.3823 27.4127 12.2114 27.1222 12.2114H24.9475V10.3914H27.3444C27.6434 10.3914 27.8485 10.2119 27.8485 9.92566C27.8485 9.6394 27.6477 9.45996 27.3444 9.45996H24.3964C24.0546 9.45996 23.8452 9.67358 23.8452 10.0325V15.1252C23.8452 15.4884 24.0546 15.6978 24.3964 15.6978Z" fill="#FE5B3B"/>
</svg>
