<svg width="20" height="20" viewBox="0 0 20 20" fill="none" xmlns="http://www.w3.org/2000/svg">
<path fill-rule="evenodd" clip-rule="evenodd" d="M15.8333 17.0833H4.16667C3.24583 17.0833 2.5 16.3375 2.5 15.4167V7.91667C2.5 6.99583 3.24583 6.25 4.16667 6.25H15.8333C16.7542 6.25 17.5 6.99583 17.5 7.91667V15.4167C17.5 16.3375 16.7542 17.0833 15.8333 17.0833Z" stroke="#758AA8" stroke-linecap="round" stroke-linejoin="round"/>
<path d="M13.4782 6.25008V4.58341C13.4782 3.66258 12.7323 2.91675 11.8115 2.91675H8.18815C7.26732 2.91675 6.52148 3.66258 6.52148 4.58341V6.25008" stroke="#758AA8" stroke-linecap="round" stroke-linejoin="round"/>
<path d="M2.5 7.91675L7.7925 11.4092C8.065 11.5892 8.38417 11.6851 8.71083 11.6851H11.2892C11.6158 11.6851 11.935 11.5892 12.2075 11.4092L17.5 7.91675" stroke="#758AA8" stroke-linecap="round" stroke-linejoin="round"/>
</svg>
