<svg width="24" height="24" viewBox="0 0 24 24" fill="none" xmlns="http://www.w3.org/2000/svg">
<mask id="mask0" mask-type="alpha" maskUnits="userSpaceOnUse" x="0" y="0" width="24" height="24">
<path d="M12 0C5.432 0 0 5.436 0 12C0 18.568 5.432 24 12 24C18.564 24 24 18.568 24 12C24 5.436 18.564 0 12 0Z" fill="white"/>
</mask>
<g mask="url(#mask0)">
<rect y="16" width="24" height="8" fill="#D52B1E"/>
</g>
<mask id="mask1" mask-type="alpha" maskUnits="userSpaceOnUse" x="0" y="0" width="24" height="24">
<path d="M12 24C18.568 24 24 18.564 24 12C24 5.432 18.568 0 12 0C5.436 0 0 5.432 0 12C0 18.564 5.436 24 12 24Z" fill="white"/>
</mask>
<g mask="url(#mask1)">
<rect x="24" y="8" width="24" height="8" transform="rotate(-180 24 8)" fill="white"/>
</g>
<mask id="mask2" mask-type="alpha" maskUnits="userSpaceOnUse" x="0" y="0" width="24" height="24">
<path d="M12 0C5.432 0 0 5.436 0 12C0 18.568 5.432 24 12 24C18.564 24 24 18.568 24 12C24 5.436 18.564 0 12 0Z" fill="#0039A6"/>
</mask>
<g mask="url(#mask2)">
<rect y="8" width="24" height="8" fill="#0039A6"/>
</g>
</svg>
