<svg width="20" height="20" viewBox="0 0 20 20" fill="none" xmlns="http://www.w3.org/2000/svg">
<path fill-rule="evenodd" clip-rule="evenodd" d="M16.6625 10H3.33785C3.09595 9.99979 2.86574 10.104 2.70625 10.2859C2.54677 10.4677 2.47353 10.7096 2.50533 10.9494C2.80148 12.9958 4.03012 14.789 5.83151 15.8041V16.6694C5.83151 17.1299 6.20476 17.5031 6.66519 17.5031H13.3352C13.7956 17.5031 14.1688 17.1299 14.1688 16.6694V15.8041C15.9702 14.789 17.1989 12.9958 17.495 10.9494C17.5268 10.7096 17.4536 10.4677 17.2941 10.2859C17.1346 10.104 16.9044 9.99979 16.6625 10Z" stroke="#758AA8" stroke-linecap="round" stroke-linejoin="round"/>
<path d="M15.5697 10.0001C16.2837 9.16348 16.6741 8.09866 16.6702 6.99882V6.66535C16.6702 6.20492 16.2969 5.83167 15.8364 5.83167H15.503C13.118 5.83208 11.1163 7.62896 10.8594 10.0001" stroke="#758AA8" stroke-linecap="round" stroke-linejoin="round"/>
<path d="M10.8592 9.99998H5.42819C4.98598 9.99998 4.56188 9.82431 4.24919 9.51162L3.90327 9.16572C3.14139 8.40298 3.14165 7.16716 3.90386 6.40474C4.66607 5.64233 5.90189 5.64173 6.66484 6.40341V6.24887H6.66579C6.66563 5.05749 7.30108 3.95652 8.33276 3.36069C9.36445 2.76486 10.6356 2.76469 11.6675 3.36024C12.6993 3.95579 13.3351 5.05659 13.3352 6.24797V6.36438" stroke="#758AA8" stroke-linecap="round" stroke-linejoin="round"/>
</svg>
