<svg version="1" xmlns="http://www.w3.org/2000/svg" width="346.667" height="346.667" viewBox="0 0 260.000000 260.000000"><path d="M64.7.6c-.1.1-5.1.5-11.2.8-6 .3-12.1.8-13.5 1-1.4.3-5.6.7-9.5 1.1-3.8.4-7.2.8-7.5 1-.3.2-3.4.6-7 1-3.5.4-7.4 1.1-8.6 1.5-1.2.5-2.4.6-2.7.3-.3-.2-1.4 0-2.4.5-1.7 1-1.8 6-1.8 122.1C.5 196.5.5 251 .6 251c0 0 4.3-.9 9.5-1.9 5.2-1.1 12.2-2.2 15.6-2.6 3.4-.3 7.2-.8 8.5-1 1.3-.3 8.2-.6 15.3-.6 11.9-.1 13.8.1 20.5 2.6 31.6 11.5 33.5 11.9 53 11.9 10.5-.1 15.4-.6 22-2.3 20.5-5.2 34.7-16.9 40.5-33.1 4.7-13.3 3.4-29.9-3.2-40.3l-2.6-4.1 4.4-4c13.2-12.2 19.8-25.8 19.9-40.6 0-9.5-1.1-14.7-5-22.6-6.5-13.3-19.9-23.2-44-32.4-27.7-10.7-34.5-14.4-37.4-20.5-3.8-7.9-1.6-15.2 5.7-18.8 5.7-2.9 12.9-2.8 27.7.2 20.4 4.1 26.4 5.1 36.3 5.8 5.6.4 16.4.6 24 .6l13.7-.1V224l-2.2.1c-1.3 0-3.2.2-4.3.4-1.9.4-16.3 1.3-21.2 1.4-1.6.1-2.7 1.3-4.2 4.6-4.3 9.7-11.8 18.3-21.5 24.6l-5.9 3.9 3.9.1c5.5.1 27-.3 32.4-.6 7.2-.4 22.1-1.6 23.9-2 .9-.1 4.7-.6 8.6-1 3.8-.4 7.2-.8 7.5-1 .3-.2 2.8-.6 5.5-1 2.8-.3 6.6-.9 8.5-1.3l3.5-.8.2-121.5.2-121.6-5.7 1.3c-3.1.7-7.3 1.6-9.2 1.9-1.9.3-4.6.7-6 1-6.7 1.3-11.9 1.7-28.5 1.9-21.7.4-28.2-.3-43.9-4.9-15.9-4.6-21.4-5.6-31.6-5.6-11.9 0-18.3.9-27.4 3.9-14 4.5-25.1 13.5-30.7 24.7-3.7 7.5-4 9-4.3 19.5-.3 9.4.5 14.2 3.5 21 1.1 2.5 1.9 4.6 1.7 4.6-.2.1.6 1.1 1.6 2.3 1.9 2.1 1.9 2.2-3.3 6.8-5.2 4.6-14.1 16.1-14.1 18.2 0 .6-.5 1.1-1.2 1.1-.6 0-.8.3-.5.7.4.3.3 1.1-.2 1.7-1.9 2.2-3.7 13.4-3.5 20.8.7 24.5 15.8 40.7 49.9 53.3 24.5 9 33.5 13.7 36.2 18.9 3.5 6.7 1.6 16.2-3.9 19.5-4 2.5-12.5 3.9-20.4 3.5-5.4-.3-11.5-1.7-21.2-5-19.8-6.5-20.8-6.7-42.2-6.9l-19.5-.2v-88.2c-.1-48.4.2-88.1.5-88.2.3 0 1.4-.2 2.5-.4 2.3-.5 15.8-1.6 22.8-1.9 4.9-.3 6-.8 6.3-3.1.4-2.8 7.7-12.6 12.9-17.3 2.9-2.7 8.3-6.4 11.9-8.3C96 3 99 1.3 99 1 99 .6 65.2.2 64.7.6zM116 106.2c1.9.9 8.4 3.5 14.4 5.8 18.3 6.9 25.6 11.1 28.2 16.3 4.1 7.8 1.4 20-5.8 26.1-3.9 3.4-4.2 3.5-6.7 2.1-1.4-.8-9.1-4-17-7-15.2-5.9-19.8-8.2-24.3-12.3-5.2-4.8-6.4-13.8-2.9-21.7 1.7-3.8 8.8-11.7 10-11.1.3.1 2.2 1 4.1 1.8z"/></svg>