<svg width="24" height="24" viewBox="0 0 24 24" fill="none" xmlns="http://www.w3.org/2000/svg">
<path fill-rule="evenodd" clip-rule="evenodd" d="M21.4177 13.1784C21.5548 13.4007 21.6199 13.66 21.604 13.9208C21.4869 16.0651 19.7521 17.7653 17.6058 17.8392C15.4583 17.7672 13.7216 16.0664 13.6048 13.9208C13.5873 13.6577 13.6518 13.3957 13.7892 13.1707L17.602 6.7178C17.602 6.7178 20.6052 11.8079 21.4177 13.1784Z" stroke="#414D5D" stroke-width="1.5" stroke-linecap="round" stroke-linejoin="round"/>
<path d="M21.5656 13.5203H13.6395" stroke="#414D5D" stroke-width="1.5" stroke-linecap="round" stroke-linejoin="round"/>
<path fill-rule="evenodd" clip-rule="evenodd" d="M10.2127 16.4601C10.349 16.6838 10.4127 16.9441 10.3952 17.2054C10.2794 19.35 8.54445 21.0508 6.39799 21.1238C4.25073 21.0524 2.51376 19.3525 2.396 17.2073C2.38036 16.9431 2.4475 16.6805 2.58808 16.4563L6.40087 9.9995L10.2127 16.4601Z" stroke="#414D5D" stroke-width="1.5" stroke-linecap="round" stroke-linejoin="round"/>
<path d="M10.3607 16.802H2.4345" stroke="#414D5D" stroke-width="1.5" stroke-linecap="round" stroke-linejoin="round"/>
<path d="M17.602 6.7178L6.39797 9.99949" stroke="#414D5D" stroke-width="1.5" stroke-linecap="round" stroke-linejoin="round"/>
<path d="M11.2 4.79695V8.59341" stroke="#414D5D" stroke-width="1.5" stroke-linecap="round" stroke-linejoin="round"/>
</svg>
