<svg width="24" height="24" viewBox="0 0 24 24" fill="none" xmlns="http://www.w3.org/2000/svg">
<path fill-rule="evenodd" clip-rule="evenodd" d="M3 11.291C3 13.974 4.42 16.336 6.599 17.825C6.598 18.68 6.6 19.832 6.6 21.041L10.131 19.294C10.735 19.41 11.359 19.473 12 19.473C16.952 19.473 21 15.83 21 11.291C21 6.75203 16.952 3.10903 12 3.10903C7.048 3.10903 3 6.75203 3 11.291Z" stroke="#414D5D" stroke-width="1.5" stroke-linecap="round" stroke-linejoin="round"/>
<path d="M11.899 12.328V12.121C11.899 11.443 12.318 11.076 12.738 10.794C13.148 10.518 13.559 10.158 13.559 9.49401C13.559 8.57701 12.816 7.83501 11.9 7.83501C10.984 7.83501 10.24 8.57601 10.24 9.49301" stroke="#414D5D" stroke-width="1.5" stroke-linecap="round" stroke-linejoin="round"/>
<path d="M11.8982 14.667C11.8152 14.667 11.7482 14.734 11.7492 14.817C11.7492 14.9 11.8162 14.967 11.8992 14.967C11.9822 14.967 12.0492 14.9 12.0492 14.817C12.0492 14.734 11.9832 14.667 11.8982 14.667" stroke="#414D5D" stroke-width="1.5" stroke-linecap="round" stroke-linejoin="round"/>
</svg>
