<svg width="24" height="24" viewBox="0 0 24 24" fill="none" xmlns="http://www.w3.org/2000/svg">
<path d="M12.3541 6.76882C12.5492 6.9639 12.5492 7.28104 12.3541 7.47612C12.1591 7.6712 11.8419 7.6712 11.6469 7.47612C11.4518 7.28104 11.4518 6.9639 11.6469 6.76882C11.8419 6.57374 12.1581 6.57374 12.3541 6.76882" stroke="#414D5D" stroke-width="1.5" stroke-linecap="round" stroke-linejoin="round"/>
<path d="M16.3118 7.22501V7.22501C16.3118 8.3965 15.7916 9.50596 14.8922 10.2563L13.4786 11.4348C12.9154 11.905 12.4942 12.5222 12.2621 13.2185L12 14.0008L11.7389 13.2175C11.5068 12.5222 11.0856 11.904 10.5224 11.4338L9.1088 10.2553C8.20842 9.50496 7.68921 8.3955 7.68921 7.22401V7.22401V7.24602C7.68821 4.5569 9.91613 2.99625 12 2.99625C14.0839 2.99625 16.3118 4.5569 16.3118 7.24702" stroke="#414D5D" stroke-width="1.5" stroke-linecap="round" stroke-linejoin="round"/>
<path d="M5.9985 12C5.0451 12 4.22376 12.6733 4.03668 13.6087L3.03627 18.6108C2.78816 19.8483 3.73556 21.0037 4.99808 21.0037H19.0029C20.2654 21.0037 21.2128 19.8483 20.9647 18.6108L19.9643 13.6087C19.7772 12.6733 18.9559 12 18.0025 12" stroke="#414D5D" stroke-width="1.5" stroke-linecap="round" stroke-linejoin="round"/>
</svg>
