<svg width="24" height="24" viewBox="0 0 24 24" fill="none" xmlns="http://www.w3.org/2000/svg">
<path fill-rule="evenodd" clip-rule="evenodd" d="M18.4142 6.414L15.5862 3.586C15.2112 3.211 14.7022 3 14.1722 3H7.00017C5.89517 3 5.00017 3.895 5.00017 5V19C5.00017 20.105 5.89517 21 7.00017 21H17.0002C18.1052 21 19.0002 20.105 19.0002 19V7.828C19.0002 7.298 18.7892 6.789 18.4142 6.414V6.414Z" stroke="#414D5D" stroke-width="1.5" stroke-linecap="round" stroke-linejoin="round"/>
<path d="M19.0002 8H15.0002C14.4482 8 14.0002 7.552 14.0002 7V3" stroke="#414D5D" stroke-width="1.5" stroke-linecap="round" stroke-linejoin="round"/>
<path d="M8.00017 11H14.0002" stroke="#414D5D" stroke-width="1.5" stroke-linecap="round" stroke-linejoin="round"/>
<path d="M8.00017 14H14.0002" stroke="#414D5D" stroke-width="1.5" stroke-linecap="round" stroke-linejoin="round"/>
<path d="M8.00017 17H12.3302" stroke="#414D5D" stroke-width="1.5" stroke-linecap="round" stroke-linejoin="round"/>
</svg>
