<svg width="20" height="20" viewBox="0 0 20 20" fill="none" xmlns="http://www.w3.org/2000/svg">
<path d="M5 15.7783H4.16667C3.24583 15.7783 2.5 15.0325 2.5 14.1117V12.0675C2.5 11.1067 3.27917 10.3275 4.24 10.3275H5" stroke="#758AA8" stroke-linecap="round" stroke-linejoin="round"/>
<path d="M15 15.7784H15.8333C16.7542 15.7784 17.5 15.0325 17.5 14.1117V12.0284C17.5 11.1075 16.7542 10.3617 15.8333 10.3617H15" stroke="#758AA8" stroke-linecap="round" stroke-linejoin="round"/>
<path fill-rule="evenodd" clip-rule="evenodd" d="M11.6667 14.9117H8.33333C7.87333 14.9117 7.5 14.5384 7.5 14.0784V12.4117C7.5 11.9517 7.87333 11.5784 8.33333 11.5784H11.6667C12.1267 11.5784 12.5 11.9517 12.5 12.4117V14.0784C12.5 14.5392 12.1267 14.9117 11.6667 14.9117Z" stroke="#758AA8" stroke-linecap="round" stroke-linejoin="round"/>
<path d="M12.5 5V4.16667C12.5 3.24583 11.7542 2.5 10.8333 2.5H9.16667C8.24583 2.5 7.5 3.24583 7.5 4.16667V5" stroke="#758AA8" stroke-linecap="round" stroke-linejoin="round"/>
<path d="M10.8337 8.33329H9.16699" stroke="#758AA8" stroke-linecap="round" stroke-linejoin="round"/>
<path fill-rule="evenodd" clip-rule="evenodd" d="M11.6667 5H8.33333C6.4925 5 5 6.4925 5 8.33333V15.8333C5 16.7542 5.74583 17.5 6.66667 17.5H13.3333C14.2542 17.5 15 16.7542 15 15.8333V8.33333C15 6.4925 13.5075 5 11.6667 5Z" stroke="#758AA8" stroke-linecap="round" stroke-linejoin="round"/>
</svg>
