<svg width="24" height="24" viewBox="0 0 24 24" fill="none" xmlns="http://www.w3.org/2000/svg">
<path fill-rule="evenodd" clip-rule="evenodd" d="M15.5505 3.11862H15.5506C16.3758 3.3937 16.9324 4.16609 16.9321 5.03597V5.09069C16.9318 6.18978 17.8101 7.08751 18.909 7.11127L19.0271 7.11383C19.7766 7.13003 20.4555 7.55981 20.7907 8.23029V8.23029C21.1797 9.00835 21.0271 9.94807 20.4118 10.563L20.3731 10.6017C19.5957 11.3786 19.582 12.6345 20.3422 13.4283L20.4239 13.5136C20.9424 14.055 21.1185 14.8389 20.8815 15.55V15.55C20.6064 16.3753 19.834 16.9319 18.9641 16.9316H18.9094C17.8103 16.9313 16.9126 17.8096 16.8889 18.9084L16.8863 19.0266C16.8701 19.7761 16.4403 20.4549 15.7698 20.7902V20.7902C14.9918 21.1792 14.0521 21.0266 13.4371 20.4113L13.3985 20.3726C12.6215 19.5952 11.3656 19.5814 10.5718 20.3417L10.4865 20.4234C9.94514 20.9419 9.16122 21.118 8.45008 20.881V20.881C7.62483 20.6059 7.06827 19.8335 7.06851 18.9636V18.9089C7.06881 17.8098 6.19051 16.9121 5.09168 16.8883L4.97349 16.8858C4.22406 16.8696 3.54519 16.4398 3.20997 15.7693V15.7693C2.82094 14.9913 2.97352 14.0516 3.58874 13.4367L3.62744 13.398C4.40482 12.621 4.41858 11.3652 3.65841 10.5714L3.57661 10.486C3.05816 9.94459 2.88202 9.16068 3.11906 8.44955V8.44955C3.39414 7.6243 4.16654 7.06774 5.03643 7.06798H5.09112C6.19021 7.06828 7.08794 6.18998 7.11169 5.09116L7.11426 4.97297C7.13046 4.22355 7.56022 3.54469 8.23067 3.20946V3.20946C9.00872 2.82043 9.94844 2.97306 10.5634 3.58834L10.602 3.627C11.379 4.40441 12.6349 4.41815 13.4287 3.65792L13.514 3.57621C14.0554 3.05769 14.8393 2.88154 15.5505 3.11862Z" stroke="white" stroke-width="1.5" stroke-linecap="round" stroke-linejoin="round"/>
<circle cx="12.0001" cy="11.9991" r="2.50104" stroke="white" stroke-width="1.5" stroke-linecap="round" stroke-linejoin="round"/>
</svg>
