<svg width="20" height="20" viewBox="0 0 20 20" fill="none" xmlns="http://www.w3.org/2000/svg">
<path d="M8.33333 10.0108C9.25417 8.9 10.7458 8.9 11.6667 10.0108" stroke="#758AA8" stroke-width="1.5" stroke-linecap="round" stroke-linejoin="round"/>
<path d="M7.35703 7.64298C8.65878 8.94473 8.65878 11.0553 7.35703 12.357C6.05528 13.6588 3.94473 13.6588 2.64298 12.357C1.34123 11.0553 1.34123 8.94472 2.64298 7.64298C3.94473 6.34123 6.05528 6.34123 7.35703 7.64298" stroke="#758AA8" stroke-width="1.5" stroke-linecap="round" stroke-linejoin="round"/>
<path d="M17.357 7.64298C18.6588 8.94473 18.6588 11.0553 17.357 12.357C16.0553 13.6588 13.9447 13.6588 12.643 12.357C11.3412 11.0553 11.3412 8.94472 12.643 7.64298C13.9447 6.34123 16.0553 6.34123 17.357 7.64298" stroke="#758AA8" stroke-width="1.5" stroke-linecap="round" stroke-linejoin="round"/>
<path d="M1.66667 10H0.833333" stroke="#758AA8" stroke-width="1.5" stroke-linecap="round" stroke-linejoin="round"/>
<path d="M19.1667 10H18.3333" stroke="#758AA8" stroke-width="1.5" stroke-linecap="round" stroke-linejoin="round"/>
</svg>
