<svg width="32" height="32" viewBox="0 0 32 32" fill="none" xmlns="http://www.w3.org/2000/svg">
<path d="M25 11.536C24.4086 11.8 23.7772 11.976 23.1139 12.056C23.7932 11.648 24.3127 11.008 24.5524 10.24C23.9211 10.616 23.2178 10.888 22.4665 11.04C21.8671 10.4 21.02 10 20.0689 10C18.2547 10 16.7922 11.472 16.7922 13.28C16.7922 13.536 16.8242 13.784 16.8801 14.032C14.1548 13.896 11.7413 12.592 10.1189 10.6C9.83916 11.088 9.67133 11.648 9.67133 12.248C9.67133 13.384 10.2468 14.392 11.1339 14.984C10.5984 14.968 10.0869 14.816 9.64735 14.576C9.64735 14.592 9.64735 14.6 9.64735 14.616C9.64735 16.208 10.7742 17.536 12.2767 17.832C12.005 17.904 11.7093 17.944 11.4136 17.944C11.2058 17.944 10.998 17.92 10.7982 17.888C11.2138 19.192 12.4286 20.144 13.8591 20.168C12.7403 21.048 11.3257 21.576 9.78322 21.576C9.51948 21.576 9.25574 21.56 9 21.528C10.4545 22.456 12.1728 23 14.027 23C20.0609 23 23.3536 18 23.3536 13.664C23.3536 13.52 23.3536 13.384 23.3457 13.24C24.001 12.776 24.5604 12.2 25 11.536Z" fill="#8C9CB3"/>
<rect x="0.5" y="0.5" width="31" height="31" rx="15.5" stroke="#8C9CB3"/>
</svg>
