<svg width="174" height="174" viewBox="0 0 174 174" fill="none" xmlns="http://www.w3.org/2000/svg">
<path d="M142.617 76.9257V42.1953" stroke="#2E3238" stroke-width="1.5" stroke-linecap="round" stroke-linejoin="round"/>
<path d="M80.012 118.683H38.2729C30.5891 118.683 24.3599 112.454 24.3599 104.763V41.998" stroke="#2E3238" stroke-width="1.5" stroke-linecap="round" stroke-linejoin="round"/>
<path fill-rule="evenodd" clip-rule="evenodd" d="M128.628 28.0078H38.3495C30.6239 28.0078 24.3599 34.2718 24.3599 41.9974V41.9974C24.3599 46.6397 26.6567 50.9758 30.4986 53.5788L67.7624 78.8506C77.2628 85.2886 89.7212 85.2886 99.2216 78.8506L136.479 53.5858C140.32 50.9828 142.617 46.6397 142.617 42.0044V41.9974C142.617 34.2718 136.353 28.0078 128.628 28.0078Z" stroke="#2E3238" stroke-width="1.5" stroke-linecap="round" stroke-linejoin="round"/>
<path d="M146.097 103.488L111.443 138.142" stroke="#2E3238" stroke-width="1.5" stroke-linecap="round" stroke-linejoin="round"/>
<path d="M146.097 138.161L111.443 103.508" stroke="#2E3238" stroke-width="1.5" stroke-linecap="round" stroke-linejoin="round"/>
</svg>
